<svg xmlns="http://www.w3.org/2000/svg" xmlns:xlink="http://www.w3.org/1999/xlink" viewBox="0 0 688.29 682.16"><defs><style>.a2af6970-150a-46e7-a140-08381a872312{fill:#566271;}.fa9c4576-12fe-4cde-a9c4-ee9fb444d9a4{fill:none;}.a3c96868-c8f1-40cd-a721-60b3b7d468ad{clip-path:url(#ae7d265a-e348-4f51-b370-f1419c69190c);}.b26c7712-1217-47bd-b41e-2f577ec5d3c1{fill:#f26a21;}.b9f06fdb-8635-4bf5-9fe1-388831d0aad1{fill:#a8dcd9;}.ffe7a3a9-6962-4e51-89fa-098d1be38a50{fill:#fff;}.e77d9c1b-bf45-4758-8384-3700bcc09f17{fill:#c6d930;}.a89bab45-c940-489c-b655-d76bf8c7ccc9{fill:#c44d58;}</style><clipPath id="ae7d265a-e348-4f51-b370-f1419c69190c" transform="translate(37.26 45.92)"><rect class="a2af6970-150a-46e7-a140-08381a872312" width="600" height="600"/></clipPath></defs><g id="abbdadb2-1c85-4eac-a259-aa1acbc1a6f0" data-name="Layer 2"><g id="b49aab79-dc40-4e84-84c3-3fb9e26b8701" data-name="Layer 1"><rect class="fa9c4576-12fe-4cde-a9c4-ee9fb444d9a4" x="37.26" y="45.92" width="600" height="600"/><rect class="a2af6970-150a-46e7-a140-08381a872312" x="37.26" y="45.92" width="600" height="600"/><g class="a3c96868-c8f1-40cd-a721-60b3b7d468ad"><g id="b4e4d464-32d4-4911-966f-80289eca3687" data-name="faAsWI"><path class="b26c7712-1217-47bd-b41e-2f577ec5d3c1" d="M484.23,200a4.76,4.76,0,0,1,1.88,2.93c1.56,6,3.09,12.06,4.72,18.06.33,1.23,0,1.59-1.15,1.88-7.41,1.86-14.79,3.84-22.21,5.68a29.88,29.88,0,0,1-18.53-1.29c-2.12-.83-2.48-2.26-1-4a30.53,30.53,0,0,1,16.5-10.34c5.19-1.31,10.37-2.68,15.57-4,1-.26,1.91-.37,1.51-1.95s-1.25-1.2-2.26-.93c-3.2.84-6.44,1.56-9.6,2.52-2.15.65-2.56-.51-3-2.15s-.67-2.82,1.53-3.32c4.23-1,8.4-2.13,12.6-3.21A5.05,5.05,0,0,1,484.23,200Z" transform="translate(37.26 45.92)"/><path class="b26c7712-1217-47bd-b41e-2f577ec5d3c1" d="M503.57,217.86a6.12,6.12,0,0,1-3.88,2.43c-1.83.41-4.05,1.65-5.39,1s-1.18-3.34-1.68-5.13c-.79-2.8-1.44-5.64-2.24-8.43-.3-1.06-.15-1.56,1-1.79,1.85-.38,3.65-1,5.5-1.34s3.73.1,4.54,2a35.19,35.19,0,0,1,2.42,9.31A6.26,6.26,0,0,1,503.57,217.86Z" transform="translate(37.26 45.92)"/></g><g id="abd0e855-c9c0-443e-adb7-3b08e5c5335a" data-name="otP480"><path class="b9f06fdb-8635-4bf5-9fe1-388831d0aad1" d="M368.39,229.35c0-4.57,0-9.14,0-13.71a8.55,8.55,0,0,1,8.91-8.92c9.23,0,18.45,0,27.67,0,2.21,0,3.13.85,3.11,3.07q-.07,13.83,0,27.66c0,1.91-1.34,3.5-1.05,5.48.25,1.68,0,3.35.78,5,1.13,2.46-.15,4.11-2.91,4.11q-13.83,0-27.66,0c-5.24,0-8.82-3.69-8.86-9C368.37,238.49,368.39,233.92,368.39,229.35Zm20.52,11.35c-3.85,0-7.7,0-11.56,0-1.91,0-3.3.85-3.26,2.89s1.4,2.85,3.33,2.83h20.76c3.84,0,3.73,0,4-3.84.12-1.72-.51-2-1.95-1.92C396.46,240.75,392.69,240.7,388.91,240.7Zm.51-19.81c2.83,0,5.66,0,8.49,0,1.1,0,1.77-.16,1.74-1.52S399,218,398,218q-8.37,0-16.75,0c-1,0-1.59.17-1.62,1.39,0,1.37.63,1.54,1.73,1.53C384.07,220.86,386.74,220.89,389.42,220.89Zm.29,5.68c2.83,0,5.66,0,8.49,0,1,0,1.44-.28,1.44-1.34s-.22-1.59-1.43-1.58c-5.66,0-11.33,0-17,0-1.06,0-1.56.28-1.56,1.46s.48,1.48,1.55,1.46C384,226.54,386.88,226.57,389.71,226.57Z" transform="translate(37.26 45.92)"/></g><g id="e60c5fa0-009b-4929-9a5a-1f26d86ae310" data-name="7VvAr8"><path class="ffe7a3a9-6962-4e51-89fa-098d1be38a50" d="M370,93.35a6,6,0,0,1-3.72-3.14,4.77,4.77,0,0,0-3.46-2.74C357.48,85.78,352.22,84,347,82.25a4.45,4.45,0,0,0-3.88.11,6.49,6.49,0,1,1-5.58-11.71,3.23,3.23,0,0,0,1.91-2.11q2.88-8.84,5.84-17.63a3.29,3.29,0,0,0-.26-2.84A6.49,6.49,0,1,1,356.44,42a4.24,4.24,0,0,0,2.76,2.34c5.64,1.82,11.25,3.69,16.87,5.58a3.54,3.54,0,0,0,3.1-.16,6.36,6.36,0,0,1,7.7.94,6.67,6.67,0,0,1,1.51,7.4,6.55,6.55,0,0,1-6.74,3.9c-3.65-.2-6.12,2.7-6.95,4.9-1.14,3-3.45,6.27-1.85,10.16.81,2,1.22,3.75,3.2,5.07,2.55,1.69,3.1,5.4,1.7,8A6.77,6.77,0,0,1,370,93.35Zm5.91-36.59c-7.05-2.33-13.47-4.61-20-6.52a3.53,3.53,0,0,0-4.28,2.51c-2,6-4.05,12.09-6,18.17a3.52,3.52,0,0,0,2,4.52c6.38,2.34,12.87,4.35,19.78,6.63-1-3.63-.55-7.1-4.17-9.24-2.32-1.36-2.72-4.14-1.9-6.72s2.87-4.76,5.67-4.46C371.21,62.11,372.75,58.86,375.86,56.76ZM350.25,46.55a1.61,1.61,0,0,0,1.95-1.06,1.63,1.63,0,1,0-3.13-.84A1.6,1.6,0,0,0,350.25,46.55ZM382,57.07A1.66,1.66,0,0,0,383.85,56a1.63,1.63,0,1,0-3.14-.83C380.54,56,381,56.69,382,57.07Zm-12.9,11.61a1.63,1.63,0,0,0-.85-2.08,1.54,1.54,0,0,0-2.22.91,1.51,1.51,0,0,0,.83,2A1.62,1.62,0,0,0,369.14,68.68Zm-30.53,7.43a1.6,1.6,0,0,0,1,2,1.63,1.63,0,1,0,.88-3.13A1.62,1.62,0,0,0,338.61,76.11Zm33,12.58a1.68,1.68,0,0,0,1.82-1.11,1.63,1.63,0,1,0-3.14-.84C370.08,87.64,370.54,88.31,371.57,88.69Z" transform="translate(37.26 45.92)"/></g><g id="e67b710b-4c09-4ea1-8288-cce700c55319" data-name="7VvAr8"><path class="ffe7a3a9-6962-4e51-89fa-098d1be38a50" d="M346.67,543a6,6,0,0,1-4.52-1.81,4.76,4.76,0,0,0-4.15-1.51c-5.55.05-11.1,0-16.65,0a4.48,4.48,0,0,0-3.66,1.32,6.49,6.49,0,1,1-9-9.36,3.28,3.28,0,0,0,1.15-2.6q0-9.28,0-18.58a3.27,3.27,0,0,0-1.14-2.61,6.49,6.49,0,1,1,9-9.39,4.28,4.28,0,0,0,3.36,1.35c5.92,0,11.85,0,17.77,0a3.57,3.57,0,0,0,2.9-1.12,6.35,6.35,0,0,1,7.6-1.54,6.7,6.7,0,0,1,3.76,6.55,6.57,6.57,0,0,1-5.18,5.83c-3.52,1-5,4.49-5,6.83-.14,3.23-1.31,7,1.43,10.23,1.38,1.6,2.33,3.17,4.63,3.8,2.95.81,4.64,4.16,4.12,7A6.78,6.78,0,0,1,346.67,543Zm-5.89-36.59c-7.42,0-14.24-.15-21,.09a3.54,3.54,0,0,0-3.28,3.73c0,6.38,0,12.76,0,19.13a3.51,3.51,0,0,0,3.35,3.65c6.79.22,13.59.09,20.86.09-2.11-3.13-2.75-6.57-6.86-7.46-2.64-.57-3.88-3.09-3.92-5.79s1.23-5.42,4-6C338.05,512.93,338.48,509.36,340.78,506.39Zm-27.52-1.65a1.61,1.61,0,0,0,1.52-1.62,1.63,1.63,0,1,0-3.24.19A1.61,1.61,0,0,0,313.26,504.74Zm33.48,0a1.67,1.67,0,0,0,1.38-1.62,1.63,1.63,0,1,0-3.25.19C345,504.21,345.64,504.71,346.74,504.74Zm-8.59,15.07a1.62,1.62,0,0,0-1.47-1.7,1.54,1.54,0,0,0-1.82,1.56,1.51,1.51,0,0,0,1.43,1.68C337.36,521.48,338,520.83,338.15,519.81Zm-26.66,16.65a1.61,1.61,0,0,0,1.6,1.55,1.63,1.63,0,1,0-.15-3.25A1.62,1.62,0,0,0,311.49,536.46Zm35.25,1.59a1.69,1.69,0,0,0,1.38-1.63,1.63,1.63,0,1,0-3.25.19C345,537.52,345.64,538,346.74,538.05Z" transform="translate(37.26 45.92)"/></g><g id="f142bc33-5114-48c8-bcd2-91e7ac8a8884" data-name="BQRE4H"><path class="b26c7712-1217-47bd-b41e-2f577ec5d3c1" d="M457.05,544.92l-15.65-6.19c-3.91-1.55-4.82-3.55-3.32-7.37q4.14-10.54,8.33-21.08c1.49-3.75,3.52-4.63,7.24-3.2a17.75,17.75,0,0,1,2,.79c2.43,1.27,4.6,2,6.6-.93,1-1.45,2.92-1.39,4.59-.74q4.86,1.88,9.7,3.83c2.41,1,3.24,2.89,3,5.31a2.2,2.2,0,0,0,1.81,2.71,40.08,40.08,0,0,1,5.07,2c2.63,1.19,3.63,3.35,2.6,6q-4.41,11.46-9,22.84c-1.14,2.83-3.42,3.7-6.4,2.55C468.06,549.31,462.56,547.1,457.05,544.92Zm2.12-6a10.63,10.63,0,1,0-5.59-14A10.59,10.59,0,0,0,459.17,538.93Z" transform="translate(37.26 45.92)"/><path class="b26c7712-1217-47bd-b41e-2f577ec5d3c1" d="M470.52,532a7.69,7.69,0,1,1-4.21-9.9A7.41,7.41,0,0,1,470.52,532Z" transform="translate(37.26 45.92)"/></g><g id="e0c51e9a-bb8e-4ae9-a263-15583df0b20e" data-name="cH71Ww"><path class="b26c7712-1217-47bd-b41e-2f577ec5d3c1" d="M201.29,297.6c0,4.88-.06,9.75,0,14.63a5,5,0,0,1-2.41,4.54,11.42,11.42,0,0,1-12.07-.14c-2.89-2.08-2.93-5.41,0-7.44a9.19,9.19,0,0,1,7.15-1.66c1.53.3,2-.15,1.95-1.62,0-4.32-.07-8.65,0-13,0-1.67-.59-1.77-2-1.36q-9.71,2.91-19.45,5.67c-1.36.39-1.62,1.14-1.61,2.39,0,6-.07,12,.05,17.93a5.32,5.32,0,0,1-3.37,5.4,11.1,11.1,0,0,1-10.65-.37c-3.57-2-3.54-6,0-8.09a9.08,9.08,0,0,1,6.57-1.32c1.69.37,2.05-.23,2-1.75,0-6.45,0-12.9,0-19.35,0-3.6.4-4.08,3.87-5.1q12.54-3.69,25.08-7.39c3.53-1,4.78-.09,4.79,3.62Z" transform="translate(37.26 45.92)"/></g><path class="b26c7712-1217-47bd-b41e-2f577ec5d3c1" d="M591.13,111.61a73.54,73.54,0,0,1,6.36,3.84,52,52,0,0,1,9.78,10,55.76,55.76,0,0,1,5.39,8.23c.62,1.2,1.26,1.65,2.63,1.27a6.17,6.17,0,0,1,5,.84c2.25,1.36,2.69,3.92.14,5.81-.92.68-2.64.63-2.79,1.69s.88,2.05,1.31,3.11c3.58,8.84,6.31,17.89,6.59,27.53.07,2.2.19,4.37-.92,6.47a4.05,4.05,0,0,1-5.75,1.7,14.59,14.59,0,0,1-4.45-4.4,79.67,79.67,0,0,0-9.86-11.61,155.1,155.1,0,0,0-19-16c-5-3.66-10.24-6.83-15.5-10-4.66-2.84-7.53-6.58-7.13-12.31,0-.08-.14-.17-.22-.25l1.29-5c1.76-3,3.56-5.83,6.44-7.94,3.52-2.58,7.16-4.63,11.66-4.74.76,0,1.48.67,2.24.06Z" transform="translate(37.26 45.92)"/><path class="b9f06fdb-8635-4bf5-9fe1-388831d0aad1" d="M344.22,144.1a72.9,72.9,0,0,1,4.25-6.09,52.26,52.26,0,0,1,10.65-9.08,55.91,55.91,0,0,1,8.57-4.81c1.25-.54,1.73-1.15,1.45-2.55a6.2,6.2,0,0,1,1.17-4.93c1.52-2.16,4.1-2.42,5.81.25.62,1,.45,2.67,1.5,2.9s2.1-.74,3.19-1.1c9.07-3,18.28-5.08,27.91-4.71,2.2.09,4.38.11,6.4,1.36a4.07,4.07,0,0,1,1.31,5.86,14.78,14.78,0,0,1-4.69,4.13,80.37,80.37,0,0,0-12.26,9.06,155.47,155.47,0,0,0-17.25,17.84c-4,4.7-7.51,9.76-11.07,14.79-3.15,4.45-7.08,7.06-12.76,6.27-.08,0-.18.13-.27.2l-4.9-1.62c-2.83-2-5.58-3.94-7.49-7-2.33-3.69-4.13-7.46-3.94-12,0-.75.78-1.43.22-2.22Z" transform="translate(37.26 45.92)"/><path class="b26c7712-1217-47bd-b41e-2f577ec5d3c1" d="M-8.87,111.61a73.54,73.54,0,0,1,6.36,3.84,52,52,0,0,1,9.78,10,55.76,55.76,0,0,1,5.39,8.23c.62,1.2,1.26,1.65,2.63,1.27a6.17,6.17,0,0,1,5,.84c2.25,1.36,2.69,3.92.14,5.81-.92.68-2.64.63-2.79,1.69s.88,2.05,1.31,3.11c3.58,8.84,6.31,17.89,6.59,27.53.07,2.2.19,4.37-.92,6.47a4.05,4.05,0,0,1-5.75,1.7,14.59,14.59,0,0,1-4.45-4.4,79.67,79.67,0,0,0-9.86-11.61,155.1,155.1,0,0,0-19-16c-5-3.66-10.24-6.83-15.5-10-4.66-2.84-7.53-6.58-7.13-12.31,0-.08-.14-.17-.22-.25l1.29-5c1.76-3,3.56-5.83,6.44-7.94,3.52-2.58,7.16-4.63,11.66-4.74.76,0,1.48.67,2.24.06Z" transform="translate(37.26 45.92)"/><path class="e77d9c1b-bf45-4758-8384-3700bcc09f17" d="M311,376.17c-4.57,6.73-11.14,8.89-18.45,8.93-5.42,0-10.6-1.37-14.77-5.21-4.52-4.17-6.89-11.95-2.47-17.33a9.75,9.75,0,0,1,4.72-3.4c.56-.17,1-.57,1.47,0a1.19,1.19,0,0,1,0,1.56c-.4.6-.79,1.21-1.15,1.83-1.07,1.79-1.27,3.71.18,5.27a5.67,5.67,0,0,0,5.06,1.48c3.34-.41,6.09-2.14,8.87-3.88a16.13,16.13,0,0,1,9-2.85,9.45,9.45,0,0,1,6.67,2.79c.85.82,1.33,1.46,2.55.23,4.58-4.59,10.83-3.41,15.22-.57,2.66,1.73,5.22,3.59,8.48,4.2a5.78,5.78,0,0,0,6-2c1.45-1.73,1.23-3.5.13-5.36-.5-.85-1.24-2-.14-2.84s1.81.3,2.53.71c5.32,3,6.39,9.77,2.51,15.64-3.7,5.61-8.95,8.44-15.61,9.32-5.72.75-11,0-15.81-3.07A11.65,11.65,0,0,1,311,376.17Z" transform="translate(37.26 45.92)"/><rect class="a89bab45-c940-489c-b655-d76bf8c7ccc9" x="254.86" y="411.59" width="3.28" height="13.75" transform="translate(-108.05 182.51) rotate(-23.44)"/><rect class="a89bab45-c940-489c-b655-d76bf8c7ccc9" x="219.98" y="420.04" width="34.22" height="13.75" transform="translate(-112.97 175.43) rotate(-23.44)"/><path class="a89bab45-c940-489c-b655-d76bf8c7ccc9" d="M265.67,422.08a4,4,0,0,0,2.07-5.23l-2.28-5.27a4,4,0,0,0-5.24-2.07l-2.63,1.14,5.54,12.78Z" transform="translate(37.26 45.92)"/><path class="a89bab45-c940-489c-b655-d76bf8c7ccc9" d="M208.43,438.11a1.22,1.22,0,0,0-.16,1.28,1.14,1.14,0,0,0,.61.57l.43.18,12.45.38-5.1-11.76Z" transform="translate(37.26 45.92)"/><path class="e77d9c1b-bf45-4758-8384-3700bcc09f17" d="M518.11,515.48a1.49,1.49,0,0,0,1.62-1.36,1.52,1.52,0,0,1,3,.25,1.49,1.49,0,0,0,1.36,1.62,1.06,1.06,0,0,0,.25,0,1.49,1.49,0,0,0,1.36-1.36,4.5,4.5,0,0,0-9-.74A1.49,1.49,0,0,0,518.11,515.48Z" transform="translate(37.26 45.92)"/><path class="e77d9c1b-bf45-4758-8384-3700bcc09f17" d="M533.77,510.82a4.49,4.49,0,0,0-4.86,4.09,1.49,1.49,0,1,0,3,.3v0a1.52,1.52,0,1,1,3,.25,1.51,1.51,0,0,0,1.36,1.62l.25,0a1.5,1.5,0,0,0,1.36-1.36A4.49,4.49,0,0,0,533.77,510.82Z" transform="translate(37.26 45.92)"/><path class="e77d9c1b-bf45-4758-8384-3700bcc09f17" d="M526.8,520.59a9.36,9.36,0,0,0-8.82,4.58,1.49,1.49,0,1,0,2.58,1.51,6.3,6.3,0,0,1,11.36,1,1.5,1.5,0,0,0,2.8-1h0A9.36,9.36,0,0,0,526.8,520.59Z" transform="translate(37.26 45.92)"/><path class="e77d9c1b-bf45-4758-8384-3700bcc09f17" d="M553.18,491.23a4.49,4.49,0,0,0-6.07,1.88,4.55,4.55,0,0,0-.31,3.43,1.5,1.5,0,1,0,2.86-.88,1.5,1.5,0,0,1,2.87-.9,1.49,1.49,0,1,0,2.85-.89A4.44,4.44,0,0,0,553.18,491.23Z" transform="translate(37.26 45.92)"/><path class="e77d9c1b-bf45-4758-8384-3700bcc09f17" d="M560.83,480.89a1.48,1.48,0,0,0-1.25-1,46.61,46.61,0,0,0-35.85,11.17,1.5,1.5,0,0,0-.48,1.54l.48,1.52c.42,1.48.85,3,1.35,4.56a46.56,46.56,0,0,0-15.44,2.45,1.5,1.5,0,0,0-1,1.28l-.17,1.53c-1,8.7-2.13,19.54,4.87,29A16.46,16.46,0,0,0,538,535a28.5,28.5,0,0,0,7.89-13.64,16.37,16.37,0,0,0,16.91-9.65c4.83-10.72,1.35-21-1.45-29.33Zm-24.92,52a13.47,13.47,0,0,1-20.16-1.72c-6.31-8.49-5.21-18.68-4.31-26.86l.07-.61a43.61,43.61,0,0,1,33.22,2.85l0,.6C544.21,515.33,543.58,525.55,535.91,532.84Zm24.15-22.36a13.45,13.45,0,0,1-13.55,7.95,69.62,69.62,0,0,0,1-8.16l.72,0a9.29,9.29,0,0,0,8.07-6.18,1.5,1.5,0,0,0-2.83-1,6.28,6.28,0,0,1-5.74,4.2l.1-1.53a1.47,1.47,0,0,0-.81-1.43,46.11,46.11,0,0,0-9.16-3.8,1.5,1.5,0,0,0,0-1,1.51,1.51,0,0,1,1-1.88,1.49,1.49,0,0,1,1.88,1h0a1.5,1.5,0,0,0,2.86-.89h0a4.49,4.49,0,0,0-8.73,2,47.79,47.79,0,0,0-6.63-1c-.62-1.88-1.15-3.72-1.65-5.51l-.16-.58a43.65,43.65,0,0,1,31.88-9.92l.2.59c2.63,7.79,5.9,17.5,1.56,27.15Z" transform="translate(37.26 45.92)"/><g id="b4c9d9a5-e704-4469-9f77-375ce53774e0" data-name="FsgmBF"><path class="a89bab45-c940-489c-b655-d76bf8c7ccc9" d="M201.82,477a1.73,1.73,0,0,1-.42,2.05c-3.42,3.47-3.69,5.25-1.55,9.57l.7,1.4c-.08.07-.15.17-.18.16a12.64,12.64,0,0,0-7.6-.18c-4.93,1.18-9-.2-12.48-3.81-2.54-2.64-3-2.85-6.63-4.16l1.84-1c3.9-2.19,4.81-4.16,3.86-8.55-.19-.89-.15-1.58.7-2.06Z" transform="translate(37.26 45.92)"/><path class="a89bab45-c940-489c-b655-d76bf8c7ccc9" d="M199.52,501.84c-2.63-2.22-5.61-2.43-8.74-1.91-1.12.19-2.23.35-3.34.53a9.76,9.76,0,0,1-8.38-2.48c-1.29-1.15-2.54-2.34-3.86-3.46a8.92,8.92,0,0,0-6.21-2.26c-.64,0-.93,0-.73-.82a32.19,32.19,0,0,1,2.14-6,1.94,1.94,0,0,1,2.19-1.2,7.56,7.56,0,0,1,4.55,2c1.19,1,2.31,2.12,3.51,3.13a12.79,12.79,0,0,0,10.2,3.08c1.52-.18,3-.44,4.54-.64a8.41,8.41,0,0,1,3.35.17c2.51.69,3,1.53,2.6,4.07A19.73,19.73,0,0,1,199.52,501.84Z" transform="translate(37.26 45.92)"/><path class="a89bab45-c940-489c-b655-d76bf8c7ccc9" d="M193.16,510.43a10.48,10.48,0,0,0-4.87-.32c-1.43.2-2.86.46-4.29.66a9.47,9.47,0,0,1-7.75-2.26c-1.13-1-2.2-2-3.3-3a10.22,10.22,0,0,0-4.91-2.69c-.61-.12-.77-.41-.76-1,0-2.13.16-4.26.34-6.38.06-.7.37-.95,1.06-1a7.42,7.42,0,0,1,5.74,2.35,27.33,27.33,0,0,0,4.93,4.05,14.46,14.46,0,0,0,9.79,1.66c1.86-.28,3.71-.83,5.62-.5a7.38,7.38,0,0,1,1.06.22c2.67.88,3,1.59,1.58,4-.61,1.08-1.31,2.12-2,3.19S194.27,511.35,193.16,510.43Z" transform="translate(37.26 45.92)"/><path class="a89bab45-c940-489c-b655-d76bf8c7ccc9" d="M176.88,519.94c-2.23-.68-4.46-1.37-6.7-2a1.53,1.53,0,0,1-1.24-1.28,74.81,74.81,0,0,1-1.5-10.74c-.07-1,.25-1.09,1.07-.74a11.56,11.56,0,0,1,3.46,2.58c2.54,2.49,5.32,4.54,9,5.12a19.84,19.84,0,0,0,6.83-.34,11.16,11.16,0,0,1,4.42-.18c.8.17.91.43.4,1.1a68.31,68.31,0,0,1-7.25,8.23,1.45,1.45,0,0,1-1.63.36C181.43,521.3,179.15,520.63,176.88,519.94Z" transform="translate(37.26 45.92)"/></g><path class="a89bab45-c940-489c-b655-d76bf8c7ccc9" d="M410.09,479.66l3.81,3.06a1.45,1.45,0,0,0,2.22-.57l2.24-5.1a1.48,1.48,0,0,0-.4-1.71l-5.23-4.63a10.32,10.32,0,0,0-5.89-2.43l-2.8-.16-5.57-2.46-.06-.71a4.12,4.12,0,0,0,2.12-5.73,4.27,4.27,0,0,0-2.56-2.06,4.07,4.07,0,0,0-4,1.17,4.32,4.32,0,0,0-1.09,3.32l0,.19a.64.64,0,0,0,.69.59l1.1-.09a.65.65,0,0,0,.59-.69l0-.32a1.8,1.8,0,0,1,.53-1.4,1.68,1.68,0,0,1,1.46-.45,1.61,1.61,0,0,1,1.32,1.13,1.7,1.7,0,0,1-1.12,2.16,2,2,0,0,0-1.45,2.06l.08,1-5.16,3.33-2.8.61a9.8,9.8,0,0,0-5.42,3.36l-4.47,5.47a1.57,1.57,0,0,0-.12,1.76l3,4.67a1.51,1.51,0,0,0,2.35.2l3.26-3.63,3.26,9.83a5.53,5.53,0,0,1,0,3.55l-6.31,21a2.62,2.62,0,0,0,2.73,3.4l30.15-2.46a2.62,2.62,0,0,0,2.15-3.79L409,493.41a6,6,0,0,1-.54-3.52Zm-12.67-11.84,3.75,1.63-2,4.95a1.35,1.35,0,0,1-2.44.2L394,470Z" transform="translate(37.26 45.92)"/><g id="f0e22088-e91d-4e0f-a1a2-4f28cf48b1b1" data-name="xjPlSa"><path class="b26c7712-1217-47bd-b41e-2f577ec5d3c1" d="M327.24,438.77a3,3,0,0,1-.4,1.05c-2.13,2.31-4.38,4.64-7.62,5.09-4,.56-6.16-2.16-7.84-5.28-2.8-5.21-5.53-10.45-8.29-15.67-.59-1.12-1.23-2.21-1.78-3.34-1.29-2.71-.93-5,1-6.69,1.64-1.44,3.91-1.48,6.25.41a134.22,134.22,0,0,1,12.74,11.93,33,33,0,0,1,4.86,6.07A9,9,0,0,1,327.24,438.77Z" transform="translate(37.26 45.92)"/><path class="b26c7712-1217-47bd-b41e-2f577ec5d3c1" d="M322.08,463.49c1.31-1.47,3.28-2.25,3.58-3.95.37-2-2-2.54-3-3.9a9,9,0,0,1-1.64-6.46c.16-1.46,7.82-7.1,9.27-6.84a9.91,9.91,0,0,1,7.53,7.63C339.63,459.49,331.9,466.25,322.08,463.49Z" transform="translate(37.26 45.92)"/></g><g id="ecc63a56-a093-4909-b03e-7188b8b4541c" data-name="faAsWI"><path class="b26c7712-1217-47bd-b41e-2f577ec5d3c1" d="M100.47,537.8a4.71,4.71,0,0,1,2.31,2.6c2.49,5.71,4.93,11.43,7.47,17.11.52,1.16.26,1.56-.84,2-7,3-14,6.09-21,9.06a29.9,29.9,0,0,1-18.51,1.62c-2.22-.49-2.81-1.85-1.65-3.8a30.54,30.54,0,0,1,14.69-12.77c4.93-2.11,9.83-4.26,14.76-6.38,1-.42,1.83-.66,1.19-2.15s-1.42-1-2.38-.58c-3,1.33-6.12,2.54-9.09,4-2,1-2.61-.11-3.27-1.65s-1.1-2.69,1-3.53c4-1.6,8-3.41,11.94-5.13A5.1,5.1,0,0,1,100.47,537.8Z" transform="translate(37.26 45.92)"/><path class="b26c7712-1217-47bd-b41e-2f577ec5d3c1" d="M122.35,552.42a6.15,6.15,0,0,1-3.46,3c-1.74.69-3.74,2.26-5.16,1.84s-1.68-3.11-2.46-4.8c-1.22-2.64-2.3-5.35-3.52-8-.46-1-.39-1.52.71-1.93,1.77-.65,3.45-1.53,5.22-2.17s3.7-.48,4.81,1.31a35.77,35.77,0,0,1,3.84,8.83A6.4,6.4,0,0,1,122.35,552.42Z" transform="translate(37.26 45.92)"/></g><g id="e17ac9ef-3b68-4cbb-a518-61eebb97e45a" data-name="otP480"><path class="b26c7712-1217-47bd-b41e-2f577ec5d3c1" d="M506.32,584.18c.63-4.53,1.23-9.06,1.9-13.58a8.55,8.55,0,0,1,10-7.61c9.14,1.23,18.27,2.56,27.41,3.77,2.19.29,3,1.27,2.66,3.47q-2,13.68-3.8,27.39c-.25,1.9-1.8,3.28-1.79,5.29,0,1.7-.47,3.32.07,5.1.79,2.59-.7,4-3.44,3.67q-13.71-1.87-27.4-3.81c-5.18-.74-8.23-4.86-7.54-10.12C505,593.22,505.69,588.7,506.32,584.18Zm18.76,14.06c-3.81-.53-7.63-1.07-11.45-1.58-1.9-.26-3.39.39-3.63,2.42s1,3,2.91,3.26l1.64.23,18.93,2.63c3.8.52,3.69.5,4.49-3.26.36-1.68-.23-2-1.66-2.16C532.56,599.33,528.82,598.76,525.08,598.24Zm3.23-19.55c2.8.39,5.61.76,8.41,1.19,1.09.16,1.77.08,1.93-1.27s-.41-1.47-1.41-1.61q-8.29-1.11-16.59-2.3c-1-.15-1.6-.05-1.8,1.16s.41,1.61,1.51,1.74C523,577.93,525.66,578.33,528.31,578.69Zm-.49,5.66c2.8.39,5.61.76,8.41,1.18.95.15,1.46-.07,1.6-1.12s0-1.61-1.19-1.77q-8.43-1.11-16.83-2.33c-1-.15-1.58.06-1.74,1.23s.27,1.53,1.33,1.66C522.21,583.55,525,584,527.82,584.35Z" transform="translate(37.26 45.92)"/></g><g id="e3ed6a41-00f7-42ff-b230-1fbae03ffb02" data-name="otP480"><path class="b26c7712-1217-47bd-b41e-2f577ec5d3c1" d="M506.32-15.82c.63-4.53,1.23-9.06,1.9-13.58a8.55,8.55,0,0,1,10-7.61c9.14,1.23,18.27,2.56,27.41,3.77,2.19.29,3,1.27,2.66,3.47q-2,13.68-3.8,27.39c-.25,1.9-1.8,3.28-1.79,5.29,0,1.7-.47,3.32.07,5.1.79,2.59-.7,4.05-3.44,3.67Q525.67,9.81,512,7.87c-5.18-.74-8.23-4.86-7.54-10.12C505-6.78,505.69-11.3,506.32-15.82ZM525.08-1.76c-3.81-.53-7.63-1.07-11.45-1.58-1.9-.26-3.39.39-3.63,2.42s1,3,2.91,3.26l1.64.23L533.48,5.2c3.8.52,3.69.5,4.49-3.26.36-1.68-.23-2-1.66-2.16C532.56-.67,528.82-1.24,525.08-1.76Zm3.23-19.55c2.8.39,5.61.76,8.41,1.19,1.09.16,1.77.08,1.93-1.27s-.41-1.47-1.41-1.61q-8.29-1.11-16.59-2.3c-1-.15-1.6-.05-1.8,1.16s.41,1.61,1.51,1.74C523-22.07,525.66-21.67,528.31-21.31Zm-.49,5.66c2.8.39,5.61.76,8.41,1.18.95.15,1.46-.07,1.6-1.12s0-1.61-1.19-1.77q-8.43-1.11-16.83-2.33c-1-.15-1.58.06-1.74,1.23s.27,1.53,1.33,1.66C522.21-16.45,525-16,527.82-15.65Z" transform="translate(37.26 45.92)"/></g><g id="bfa8db99-ddbf-4fb7-a847-405e7553cac1" data-name="otP480"><path class="a89bab45-c940-489c-b655-d76bf8c7ccc9" d="M276.31,107.51c3.61-2.8,7.2-5.63,10.83-8.4a8.57,8.57,0,0,1,12.52,1.56c5.68,7.27,11.29,14.59,17,21.83,1.37,1.74,1.25,3-.51,4.35q-11,8.42-21.84,17c-1.51,1.18-3.59,1.09-5,2.54-1.18,1.22-2.66,2-3.52,3.7-1.24,2.41-3.32,2.41-5,.22q-8.51-10.9-17-21.85c-3.19-4.14-2.49-9.22,1.67-12.5C269.08,113.09,272.7,110.31,276.31,107.51Zm3.62,23.17q-3.54-4.58-7.1-9.13c-1.18-1.51-2.7-2.08-4.28-.8s-1.39,2.85-.2,4.36l1,1.31,11.72,15.1c2.35,3,2.29,2.93,5.49.8,1.43-.95,1.22-1.59.32-2.71C284.52,136.67,282.25,133.66,279.93,130.68Zm15.95-11.75c1.74,2.23,3.5,4.45,5.2,6.72.67.88,1.21,1.29,2.27.43s.73-1.34.11-2.13q-5.16-6.6-10.27-13.23c-.62-.8-1.12-1.15-2.1-.43s-.83,1.45-.14,2.31C292.63,114.68,294.24,116.81,295.88,118.93Zm-4.3,3.71c1.74,2.23,3.49,4.46,5.2,6.71.58.77,1.1,1,1.93.32s1.13-1.15.38-2.1q-5.25-6.67-10.42-13.42c-.65-.84-1.18-1.06-2.11-.34s-.87,1.29-.2,2.13C288.13,118.15,289.84,120.4,291.58,122.64Z" transform="translate(37.26 45.92)"/></g><g id="a6f3b521-f357-4740-9d9a-36e82a571a87" data-name="7VvAr8"><path class="b26c7712-1217-47bd-b41e-2f577ec5d3c1" d="M330,210.92a6,6,0,0,1-4.84.56,4.77,4.77,0,0,0-4.36.66c-4.85,2.7-9.74,5.33-14.63,8a4.47,4.47,0,0,0-2.58,2.91,6.49,6.49,0,1,1-12.35-3.95,3.22,3.22,0,0,0-.24-2.83q-4.47-8.14-8.87-16.32a3.26,3.26,0,0,0-2.24-1.76,6.49,6.49,0,1,1,3.39-12.53,4.26,4.26,0,0,0,3.6-.41c5.18-2.87,10.39-5.68,15.6-8.49a3.51,3.51,0,0,0,2-2.37,6.35,6.35,0,0,1,5.95-5,6.68,6.68,0,0,1,6.42,4,6.56,6.56,0,0,1-1.76,7.59c-2.64,2.52-2.22,6.31-1.18,8.41,1.42,2.91,2.21,6.81,6.14,8.3,2,.76,3.57,1.68,5.89,1.14,3-.7,6.06,1.44,7,4.21A6.77,6.77,0,0,1,330,210.92Zm-22.64-29.35c-6.53,3.55-12.59,6.68-18.45,10.14a3.53,3.53,0,0,0-1.1,4.84c3,5.61,6.05,11.23,9.15,16.8A3.52,3.52,0,0,0,301.6,215c6.07-3.05,12-6.41,18.37-9.88-3.35-1.75-5.56-4.47-9.59-3.28-2.59.75-4.88-.86-6.2-3.22s-1.51-5.35.62-7.18C308,188.63,306.71,185.28,307.31,181.57Zm-25,11.7a1.61,1.61,0,0,0,.56-2.15,1.63,1.63,0,1,0-2.76,1.71A1.61,1.61,0,0,0,282.34,193.27Zm29.42-16a1.67,1.67,0,0,0,.43-2.09,1.63,1.63,0,1,0-2.76,1.72A1.68,1.68,0,0,0,311.76,177.29Zm-.36,17.34a1.63,1.63,0,0,0-2.1-.8,1.54,1.54,0,0,0-.85,2.25,1.51,1.51,0,0,0,2.06.79A1.61,1.61,0,0,0,311.4,194.63ZM295.93,222a1.61,1.61,0,0,0,2.14.59,1.63,1.63,0,1,0-1.68-2.78A1.62,1.62,0,0,0,295.93,222Zm31.73-15.44a1.67,1.67,0,0,0,.43-2.09,1.63,1.63,0,1,0-2.76,1.72A1.68,1.68,0,0,0,327.66,206.55Z" transform="translate(37.26 45.92)"/></g><g id="b48938c4-5a37-46da-849d-9753773becfb" data-name="BQRE4H"><path class="b9f06fdb-8635-4bf5-9fe1-388831d0aad1" d="M538.81,454.84l-16.71,2c-4.18.51-5.93-.82-6.43-4.89q-1.39-11.25-2.75-22.5c-.48-4,.89-5.76,4.83-6.27a17.24,17.24,0,0,1,2.12-.25c2.75,0,5-.45,5.36-4,.17-1.75,1.9-2.62,3.68-2.84q5.16-.67,10.35-1.27c2.58-.3,4.23,1,5.18,3.23a2.2,2.2,0,0,0,2.89,1.52,40.64,40.64,0,0,1,5.4-.67c2.87-.21,4.79,1.21,5.16,4q1.59,12.17,3,24.37c.35,3-1.24,4.88-4.41,5.3C550.57,453.44,544.69,454.12,538.81,454.84Zm-1-6.28a10.63,10.63,0,1,0-11.59-9.62A10.59,10.59,0,0,0,537.81,448.56Z" transform="translate(37.26 45.92)"/><path class="b9f06fdb-8635-4bf5-9fe1-388831d0aad1" d="M544.48,437.06a7.68,7.68,0,1,1-8.43-6.7A7.41,7.41,0,0,1,544.48,437.06Z" transform="translate(37.26 45.92)"/></g><g id="b49aa96e-8dd9-404d-9686-b8e773abac84" data-name="BQRE4H"><path class="b26c7712-1217-47bd-b41e-2f577ec5d3c1" d="M162.89,252.66q-8.35,1-16.71,2c-4.18.5-5.93-.82-6.43-4.89q-1.4-11.25-2.75-22.5c-.48-4,.89-5.76,4.83-6.28a19.38,19.38,0,0,1,2.12-.24c2.75,0,5-.45,5.36-4,.17-1.75,1.9-2.62,3.68-2.85q5.16-.66,10.35-1.26c2.57-.3,4.23,1,5.18,3.23a2.2,2.2,0,0,0,2.89,1.52,40.64,40.64,0,0,1,5.4-.67c2.87-.21,4.78,1.21,5.15,4q1.6,12.16,3,24.37c.35,3-1.24,4.88-4.41,5.29C174.65,251.26,168.77,251.94,162.89,252.66Zm-1-6.27a10.63,10.63,0,1,0-11.59-9.62A10.6,10.6,0,0,0,161.89,246.39Z" transform="translate(37.26 45.92)"/><path class="b26c7712-1217-47bd-b41e-2f577ec5d3c1" d="M168.56,234.88a7.69,7.69,0,1,1-8.43-6.69A7.41,7.41,0,0,1,168.56,234.88Z" transform="translate(37.26 45.92)"/></g><g id="ab41ee53-3143-4b12-9a45-a72dbc19e7c7" data-name="cH71Ww"><path class="b9f06fdb-8635-4bf5-9fe1-388831d0aad1" d="M536.05,236.35c3.2,3.67,6.37,7.38,9.64,11a5,5,0,0,1,1.16,5,11.4,11.4,0,0,1-9.17,7.83c-3.55.33-5.77-2.15-4.91-5.6a9.16,9.16,0,0,1,4.3-6c1.34-.78,1.39-1.41.4-2.51-2.88-3.22-5.75-6.46-8.52-9.78-1.08-1.28-1.62-.94-2.38.27q-5.4,8.56-10.92,17.06c-.77,1.19-.47,1.93.36,2.87,4,4.47,7.81,9,11.84,13.46a5.32,5.32,0,0,1,1,6.29,11.08,11.08,0,0,1-8.26,6.72c-4,.81-6.62-2.19-5.3-6.11a9,9,0,0,1,4.07-5.31c1.52-.84,1.4-1.51.38-2.66-4.28-4.83-8.5-9.7-12.73-14.56-2.37-2.72-2.39-3.34-.45-6.39l14-22.06c2-3.11,3.55-3.21,6-.42Z" transform="translate(37.26 45.92)"/></g><path class="e77d9c1b-bf45-4758-8384-3700bcc09f17" d="M189,554.08a73.63,73.63,0,0,1,7.12,2.12,52.59,52.59,0,0,1,12,7.25,55.68,55.68,0,0,1,7.27,6.62c.9,1,1.64,1.27,2.87.57a6.19,6.19,0,0,1,5.06-.44c2.52.75,3.58,3.12,1.58,5.59-.72.89-2.39,1.26-2.27,2.33s1.36,1.77,2,2.69c5.68,7.67,10.58,15.75,13.26,25,.62,2.12,1.29,4.19.73,6.5a4.05,4.05,0,0,1-5.14,3.09,14.78,14.78,0,0,1-5.41-3.15,80.07,80.07,0,0,0-12.45-8.78,155.86,155.86,0,0,0-22.37-10.75c-5.72-2.3-11.63-4.05-17.52-5.84-5.22-1.59-8.94-4.5-10-10.14,0-.08-.18-.13-.28-.2v-5.15c1-3.31,2-6.54,4.25-9.3,2.76-3.38,5.78-6.28,10.11-7.51.72-.21,1.6.28,2.18-.5Z" transform="translate(37.26 45.92)"/><path class="e77d9c1b-bf45-4758-8384-3700bcc09f17" d="M189-45.92a73.63,73.63,0,0,1,7.12,2.12,52.59,52.59,0,0,1,12,7.25,55.68,55.68,0,0,1,7.27,6.62c.9,1,1.64,1.27,2.87.57a6.19,6.19,0,0,1,5.06-.44c2.52.75,3.58,3.12,1.58,5.59-.72.89-2.39,1.26-2.27,2.33s1.36,1.77,2,2.69c5.68,7.67,10.58,15.75,13.26,25,.62,2.12,1.29,4.19.73,6.5a4.05,4.05,0,0,1-5.14,3.09,14.78,14.78,0,0,1-5.41-3.15,80.07,80.07,0,0,0-12.45-8.78A155.86,155.86,0,0,0,193.24-7.28c-5.72-2.3-11.63-4-17.52-5.84-5.22-1.59-8.94-4.5-10-10.14,0-.08-.18-.13-.28-.2v-5.15c1-3.31,2-6.54,4.25-9.3,2.76-3.38,5.78-6.28,10.11-7.51.72-.21,1.6.28,2.18-.5Z" transform="translate(37.26 45.92)"/><path class="a89bab45-c940-489c-b655-d76bf8c7ccc9" d="M450.24,308.86c-2.75.23-4.39,2.08-6.32,3.22A42.87,42.87,0,0,1,428.48,318c-2.57.39-5.19-3.66-4.33-6.65.55-1.91,1.65-3.05,3.79-3.07a35,35,0,0,0,15.49-4.3,30.48,30.48,0,0,0,13-13.44,47,47,0,0,0,4.09-10.3c.87-3.44,3-4.45,6.32-3,1.37.59,2.2,1.85,3.23,2.88,1.35,1.35.33,2.55,0,3.79-1.59,5.62-4.84,10.22-8.73,14.45a28.8,28.8,0,0,1-3.2,3.24c-.56.45-1.05,1.12-.69,1.74s1.17.15,1.72,0c4.78-1.37,9.56-1.95,14.39-.24a19.41,19.41,0,0,1,10.15,8.35,40.86,40.86,0,0,1,2.65,4.64c1,2.19.95,2.48-1.17,3.38-6.56,2.78-12.28.92-17.83-2.92-2.5-1.72-4.49-4-7.09-5.57-.47-.28-1.2-.86-1.69-.22a1.76,1.76,0,0,0,.16,2.1c2.62,4.27,5.13,8.62,6.49,13.47,1.89,6.69,2,13.3-1.41,19.66-.56,1-1,.54-1.61.27a20.48,20.48,0,0,1-4.62-3.38,26.42,26.42,0,0,1-9.45-15.94c-1-5.43,0-10.58,1.39-15.74C449.72,310.46,449.94,309.82,450.24,308.86Z" transform="translate(37.26 45.92)"/><path class="b26c7712-1217-47bd-b41e-2f577ec5d3c1" d="M251,500.82c-2.74.23-4.38,2.08-6.32,3.22a42.82,42.82,0,0,1-15.43,5.87c-2.58.39-5.19-3.66-4.33-6.65.55-1.91,1.64-3.05,3.78-3.07a35.05,35.05,0,0,0,15.5-4.3,30.53,30.53,0,0,0,13-13.44,46.94,46.94,0,0,0,4.08-10.3c.88-3.44,3-4.45,6.33-3,1.37.59,2.2,1.85,3.22,2.88,1.35,1.35.34,2.55,0,3.79-1.59,5.62-4.84,10.22-8.73,14.45a28.8,28.8,0,0,1-3.2,3.24c-.56.45-1.06,1.12-.7,1.74s1.18.15,1.73,0c4.77-1.37,9.56-2,14.38-.24a19.47,19.47,0,0,1,10.16,8.35,42.44,42.44,0,0,1,2.65,4.64c1,2.19.95,2.48-1.17,3.38-6.56,2.78-12.28.92-17.84-2.92-2.5-1.72-4.49-4-7.09-5.57-.46-.28-1.2-.86-1.69-.22a1.78,1.78,0,0,0,.16,2.1c2.63,4.27,5.13,8.62,6.5,13.47,1.88,6.69,2,13.3-1.42,19.66-.55,1-1,.54-1.61.27a20.42,20.42,0,0,1-4.61-3.38,26.42,26.42,0,0,1-9.45-16c-1-5.42,0-10.57,1.39-15.73C250.51,502.42,250.73,501.78,251,500.82Z" transform="translate(37.26 45.92)"/><path class="b26c7712-1217-47bd-b41e-2f577ec5d3c1" d="M459.27,73.9c-2.75.23-4.39,2.07-6.32,3.22A42.85,42.85,0,0,1,437.51,83c-2.57.4-5.19-3.65-4.33-6.64.55-1.91,1.65-3,3.79-3.08A34.9,34.9,0,0,0,452.46,69a30.48,30.48,0,0,0,13-13.44,47.17,47.17,0,0,0,4.09-10.3c.87-3.44,3-4.45,6.32-3,1.37.59,2.2,1.85,3.23,2.88,1.35,1.35.33,2.55,0,3.79-1.59,5.61-4.84,10.21-8.73,14.45a29.58,29.58,0,0,1-3.19,3.24c-.57.45-1.06,1.12-.7,1.74s1.17.15,1.72,0c4.78-1.37,9.56-2,14.39-.25a19.48,19.48,0,0,1,10.15,8.36,40.86,40.86,0,0,1,2.65,4.64c1,2.19.95,2.48-1.17,3.38-6.56,2.78-12.28.91-17.83-2.92-2.5-1.73-4.49-4-7.09-5.58-.47-.27-1.2-.86-1.69-.21a1.76,1.76,0,0,0,.16,2.1c2.62,4.26,5.13,8.61,6.49,13.46,1.89,6.7,2,13.31-1.41,19.67-.56,1-1,.53-1.61.27a20.79,20.79,0,0,1-4.62-3.38,26.42,26.42,0,0,1-9.45-16c-1-5.42.05-10.57,1.39-15.73C458.75,75.5,459,74.86,459.27,73.9Z" transform="translate(37.26 45.92)"/><path class="ffe7a3a9-6962-4e51-89fa-098d1be38a50" d="M92.84,16.55c-.8,8.09-5.54,13.13-12,16.65-4.75,2.61-10,3.86-15.46,2.47-6-1.5-11.75-7.2-10.44-14a9.72,9.72,0,0,1,2.52-5.25c.41-.41.6-1,1.32-.65a1.21,1.21,0,0,1,.76,1.37c-.07.71-.12,1.43-.15,2.15-.08,2.09.66,3.86,2.68,4.55a5.66,5.66,0,0,0,5.15-1.12c2.74-2,4.33-4.79,6-7.65a16.13,16.13,0,0,1,6.55-6.8A9.45,9.45,0,0,1,87,7.5c1.13.31,1.85.65,2.34-1,1.84-6.22,7.89-8.16,13.1-7.76,3.16.24,6.3.66,9.46-.36a5.77,5.77,0,0,0,4.31-4.59c.45-2.21-.59-3.66-2.44-4.77-.85-.51-2-1.13-1.48-2.43S114-14,114.82-14c6.11.11,10.28,5.54,9.68,12.55-.58,6.7-3.84,11.69-9.27,15.64-4.67,3.39-9.66,5.21-15.36,4.86A11.68,11.68,0,0,1,92.84,16.55Z" transform="translate(37.26 45.92)"/><path class="a89bab45-c940-489c-b655-d76bf8c7ccc9" d="M186.7,172.19c-7.74,2.51-14.25.18-20-4.28-4.3-3.3-7.53-7.58-8.46-13.18-1-6.06,1.9-13.65,8.68-15.19a9.73,9.73,0,0,1,5.82.21c.54.21,1.13.17,1.13.95a1.19,1.19,0,0,1-1,1.24c-.68.22-1.36.46-2,.73-1.95.76-3.28,2.15-3.09,4.28a5.66,5.66,0,0,0,3.08,4.27c2.89,1.72,6.12,2.05,9.39,2.38a16.16,16.16,0,0,1,8.86,3.28,9.46,9.46,0,0,1,3.55,6.3c.17,1.17.15,2,1.87,1.75,6.44-.82,10.64,3.95,12.36,8.89,1,3,1.92,6,4.12,8.52a5.76,5.76,0,0,0,5.93,2.11c2.21-.47,3.12-2,3.39-4.14.13-1,.23-2.31,1.64-2.33,1.25,0,1.24,1.35,1.56,2.11,2.35,5.63-1,11.63-7.62,13.89-6.36,2.16-12.25,1.17-18-2.23-5-2.92-8.63-6.76-10.59-12.13A11.62,11.62,0,0,1,186.7,172.19Z" transform="translate(37.26 45.92)"/><path class="ffe7a3a9-6962-4e51-89fa-098d1be38a50" d="M92.84,616.55c-.8,8.09-5.54,13.13-12,16.65-4.75,2.61-10,3.86-15.46,2.47-6-1.5-11.75-7.2-10.44-14a9.72,9.72,0,0,1,2.52-5.25c.41-.41.6-1,1.32-.65a1.21,1.21,0,0,1,.76,1.37c-.07.71-.12,1.43-.15,2.15-.08,2.09.66,3.86,2.68,4.55a5.66,5.66,0,0,0,5.15-1.12c2.74-2,4.33-4.79,6-7.65a16.13,16.13,0,0,1,6.55-6.8,9.45,9.45,0,0,1,7.2-.73c1.13.31,1.85.65,2.34-1,1.84-6.22,7.89-8.16,13.1-7.76,3.16.24,6.3.66,9.46-.36a5.77,5.77,0,0,0,4.31-4.59c.45-2.21-.59-3.66-2.44-4.77-.85-.51-2-1.13-1.48-2.43s1.74-.6,2.56-.59c6.11.11,10.28,5.54,9.68,12.55-.58,6.7-3.84,11.69-9.27,15.64-4.67,3.39-9.66,5.21-15.36,4.86A11.68,11.68,0,0,1,92.84,616.55Z" transform="translate(37.26 45.92)"/><rect class="b26c7712-1217-47bd-b41e-2f577ec5d3c1" x="-10.07" y="494.97" width="13.75" height="3.28" transform="translate(-364.58 246.36) rotate(-53.76)"/><rect class="b26c7712-1217-47bd-b41e-2f577ec5d3c1" x="7.02" y="492" width="13.75" height="34.22" transform="translate(-367.63 265.19) rotate(-53.75)"/><path class="b26c7712-1217-47bd-b41e-2f577ec5d3c1" d="M-4.71,486.87a4,4,0,0,0-5.56.86l-3.39,4.64a4,4,0,0,0,.85,5.56l2.32,1.69,8.23-11.22Z" transform="translate(37.26 45.92)"/><path class="b26c7712-1217-47bd-b41e-2f577ec5d3c1" d="M38,528.2a1.21,1.21,0,0,0,1.19-.5,1.19,1.19,0,0,0,.19-.82l-.07-.46-5.95-10.95L25.8,525.81Z" transform="translate(37.26 45.92)"/><rect class="b26c7712-1217-47bd-b41e-2f577ec5d3c1" x="589.93" y="494.97" width="13.75" height="3.28" transform="translate(-119.3 730.28) rotate(-53.76)"/><rect class="b26c7712-1217-47bd-b41e-2f577ec5d3c1" x="607.02" y="492" width="13.75" height="34.22" transform="translate(-122.42 749.05) rotate(-53.75)"/><path class="b26c7712-1217-47bd-b41e-2f577ec5d3c1" d="M595.29,486.87a4,4,0,0,0-5.56.86l-3.39,4.64a4,4,0,0,0,.85,5.56l2.32,1.69,8.23-11.22Z" transform="translate(37.26 45.92)"/><path class="b26c7712-1217-47bd-b41e-2f577ec5d3c1" d="M638,528.2a1.21,1.21,0,0,0,1.19-.5,1.19,1.19,0,0,0,.19-.82l-.07-.46-6-10.95-7.58,10.34Z" transform="translate(37.26 45.92)"/><path class="b26c7712-1217-47bd-b41e-2f577ec5d3c1" d="M87.88,481.35a1.5,1.5,0,0,0,.54-2.05A1.51,1.51,0,0,1,91,477.78a1.5,1.5,0,0,0,2,.55l.19-.16a1.5,1.5,0,0,0,.34-1.9,4.5,4.5,0,0,0-7.78,4.53A1.49,1.49,0,0,0,87.88,481.35Z" transform="translate(37.26 45.92)"/><path class="b26c7712-1217-47bd-b41e-2f577ec5d3c1" d="M98,468.56a4.5,4.5,0,0,0-1.64,6.13,1.51,1.51,0,0,0,2,.58,1.48,1.48,0,0,0,.57-2l0-.05a1.51,1.51,0,0,1,2.62-1.52,1.49,1.49,0,0,0,2,.55,1.56,1.56,0,0,0,.2-.16,1.5,1.5,0,0,0,.34-1.9A4.5,4.5,0,0,0,98,468.56Z" transform="translate(37.26 45.92)"/><path class="b26c7712-1217-47bd-b41e-2f577ec5d3c1" d="M97.93,480.55a9.35,9.35,0,0,0-4.61,8.81,1.49,1.49,0,1,0,3-.24,6.31,6.31,0,0,1,9.86-5.72,1.5,1.5,0,1,0,1.69-2.47h0A9.37,9.37,0,0,0,97.93,480.55Z" transform="translate(37.26 45.92)"/><path class="b26c7712-1217-47bd-b41e-2f577ec5d3c1" d="M102.73,441.37a4.5,4.5,0,0,0-2.18,8,1.5,1.5,0,0,0,1.84-2.37,1.5,1.5,0,1,1,1.83-2.37,1.5,1.5,0,0,0,1.83-2.37A4.49,4.49,0,0,0,102.73,441.37Z" transform="translate(37.26 45.92)"/><path class="b26c7712-1217-47bd-b41e-2f577ec5d3c1" d="M103.09,428.52a1.49,1.49,0,0,0-1.61-.11,46.59,46.59,0,0,0-23,29.69,1.48,1.48,0,0,0,.49,1.53l1.26,1c1.2,1,2.42,2,3.72,3a46.2,46.2,0,0,0-11.25,10.85,1.51,1.51,0,0,0-.09,1.63l.74,1.34c4.2,7.68,9.44,17.24,20.58,21A16.59,16.59,0,0,0,107.46,497a17,17,0,0,0,2.22-1.55,16.58,16.58,0,0,0,5.67-9.48,28.41,28.41,0,0,0-1.35-15.7,16.39,16.39,0,0,0,8.35-17.6c-2.19-11.55-10.95-18-18-23.21Zm9.32,56.86A13.44,13.44,0,0,1,96.62,496a14,14,0,0,1-1.72-.46c-10-3.34-15-12.33-18.92-19.55l-.29-.53a43.64,43.64,0,0,1,28.87-16.7l.31.52C109.18,466.27,114.52,475,112.41,485.38Zm7-32.16a13.47,13.47,0,0,1-6.55,14.28,70.93,70.93,0,0,0-3.87-7.25c.18-.15.39-.28.57-.44a9.28,9.28,0,0,0,3.07-9.69,1.5,1.5,0,0,0-2.87.82,6.28,6.28,0,0,1-2.3,6.74l-.79-1.32a1.5,1.5,0,0,0-1.49-.71,46.13,46.13,0,0,0-9.69,2.14A1.5,1.5,0,0,0,95,457a1.5,1.5,0,1,1,1.84-2.37h0a1.49,1.49,0,0,0,1.83-2.36h0a4.49,4.49,0,0,0-6,6.62,47.18,47.18,0,0,0-6,3c-1.59-1.19-3.08-2.39-4.51-3.57l-.47-.39a43.64,43.64,0,0,1,20.46-26.39l.49.37c6.62,4.88,14.86,11,16.83,21.36Z" transform="translate(37.26 45.92)"/><g id="b6615c8f-a6bc-4f56-8f74-5fad133b47d5" data-name="FsgmBF"><path class="e77d9c1b-bf45-4758-8384-3700bcc09f17" d="M396.89,558a1.74,1.74,0,0,1,.84,1.92c-.82,4.79,0,6.41,4.2,8.73l1.38.75c0,.09,0,.22-.05.23a12.61,12.61,0,0,0-6.34,4.21c-3.37,3.78-7.49,5-12.42,4-3.59-.71-4.1-.6-7.81.38.35-.72.64-1.3.92-1.89,1.94-4,1.56-6.17-1.73-9.22-.67-.62-1-1.21-.61-2.09Z" transform="translate(37.26 45.92)"/><path class="e77d9c1b-bf45-4758-8384-3700bcc09f17" d="M409.26,579.73c-3.43-.32-6,1.22-8.26,3.44-.8.79-1.62,1.56-2.43,2.34a9.73,9.73,0,0,1-8.29,2.77c-1.71-.2-3.42-.46-5.15-.62a8.84,8.84,0,0,0-6.38,1.7c-.51.38-.78.5-1.07-.26a31.92,31.92,0,0,1-1.69-6.16,1.94,1.94,0,0,1,1.11-2.24,7.66,7.66,0,0,1,4.88-1c1.56.16,3.11.42,4.67.57A12.86,12.86,0,0,0,396.78,577c1.14-1,2.22-2.1,3.35-3.13a8.42,8.42,0,0,1,2.84-1.78c2.46-.87,3.35-.48,4.47,1.84A19.9,19.9,0,0,1,409.26,579.73Z" transform="translate(37.26 45.92)"/><path class="e77d9c1b-bf45-4758-8384-3700bcc09f17" d="M409,590.41a10.46,10.46,0,0,0-4.17,2.53c-1.07,1-2.09,2-3.14,3a9.49,9.49,0,0,1-7.65,2.58c-1.48-.14-2.95-.38-4.43-.57a10.16,10.16,0,0,0-5.56.61.81.81,0,0,1-1.18-.37c-1.2-1.77-2.31-3.58-3.38-5.43a.93.93,0,0,1,.31-1.41,7.42,7.42,0,0,1,6.05-1.37,27.1,27.1,0,0,0,6.36.5,14.46,14.46,0,0,0,9-4.24c1.36-1.3,2.55-2.81,4.31-3.63a6.28,6.28,0,0,1,1-.43c2.69-.8,3.33-.39,3.58,2.36.11,1.24.13,2.49.22,3.73S410.41,590.52,409,590.41Z" transform="translate(37.26 45.92)"/><path class="e77d9c1b-bf45-4758-8384-3700bcc09f17" d="M401.07,607.53c-2.22.72-4.44,1.43-6.65,2.18a1.55,1.55,0,0,1-1.75-.35,75,75,0,0,1-7.39-7.94c-.64-.81-.41-1,.46-1.22a11.36,11.36,0,0,1,4.31.13c3.51.59,7,.68,10.28-.94a19.82,19.82,0,0,0,5.4-4.18,11,11,0,0,1,3.53-2.68c.75-.32,1-.17.95.68A67.62,67.62,0,0,1,409,604.1a1.45,1.45,0,0,1-1.13,1.23C405.59,606,403.33,606.79,401.07,607.53Z" transform="translate(37.26 45.92)"/></g><g id="f1a6db0b-e7ec-45ee-9ef2-f3a049017a10" data-name="FsgmBF"><path class="b26c7712-1217-47bd-b41e-2f577ec5d3c1" d="M396.89-42a1.74,1.74,0,0,1,.84,1.92c-.82,4.79,0,6.41,4.2,8.73l1.38.75c0,.09,0,.22-.05.23a12.61,12.61,0,0,0-6.34,4.21c-3.37,3.78-7.49,5-12.42,4-3.59-.71-4.1-.6-7.81.38.35-.72.64-1.3.92-1.89,1.94-4,1.56-6.17-1.73-9.22-.67-.62-1-1.21-.61-2.09Z" transform="translate(37.26 45.92)"/><path class="b26c7712-1217-47bd-b41e-2f577ec5d3c1" d="M409.26-20.27c-3.43-.32-6,1.22-8.26,3.44-.8.79-1.62,1.56-2.43,2.34a9.73,9.73,0,0,1-8.29,2.77c-1.71-.2-3.42-.46-5.15-.62a8.84,8.84,0,0,0-6.38,1.7c-.51.38-.78.5-1.07-.26A31.92,31.92,0,0,1,376-17.06a1.94,1.94,0,0,1,1.11-2.24,7.66,7.66,0,0,1,4.88-1c1.56.16,3.11.42,4.67.57A12.86,12.86,0,0,0,396.78-23c1.14-1,2.22-2.1,3.35-3.13A8.42,8.42,0,0,1,403-27.92c2.46-.87,3.35-.48,4.47,1.84A19.9,19.9,0,0,1,409.26-20.27Z" transform="translate(37.26 45.92)"/><path class="b26c7712-1217-47bd-b41e-2f577ec5d3c1" d="M409-9.59a10.46,10.46,0,0,0-4.17,2.53c-1.07,1-2.09,2-3.14,3A9.49,9.49,0,0,1,394-1.48c-1.48-.14-2.95-.38-4.43-.57a10.16,10.16,0,0,0-5.56.61.81.81,0,0,1-1.18-.37c-1.2-1.77-2.31-3.58-3.38-5.43a.93.93,0,0,1,.31-1.41A7.42,7.42,0,0,1,385.82-10a27.1,27.1,0,0,0,6.36.5,14.46,14.46,0,0,0,9-4.24c1.36-1.3,2.55-2.81,4.31-3.63a6.28,6.28,0,0,1,1-.43c2.69-.8,3.33-.39,3.58,2.36.11,1.24.13,2.49.22,3.73S410.41-9.48,409-9.59Z" transform="translate(37.26 45.92)"/><path class="e77d9c1b-bf45-4758-8384-3700bcc09f17" d="M401.07,7.53c-2.22.72-4.44,1.43-6.65,2.18a1.55,1.55,0,0,1-1.75-.35,75,75,0,0,1-7.39-7.94c-.64-.81-.41-1,.46-1.22a11.36,11.36,0,0,1,4.31.13c3.51.59,7,.68,10.28-.94a19.82,19.82,0,0,0,5.4-4.18,11,11,0,0,1,3.53-2.68c.75-.32,1-.17.95.68A67.62,67.62,0,0,1,409,4.1a1.45,1.45,0,0,1-1.13,1.23C405.59,6,403.33,6.79,401.07,7.53Z" transform="translate(37.26 45.92)"/></g><path class="b26c7712-1217-47bd-b41e-2f577ec5d3c1" d="M458.66,583.51l4.87.32A1.43,1.43,0,0,0,465,582.1l-1.08-5.47a1.48,1.48,0,0,0-1.31-1.17l-6.94-.8a10.27,10.27,0,0,0-6.22,1.38l-2.38,1.47-6,1.18-.45-.55a4.13,4.13,0,0,0-1.55-5.92,4.3,4.3,0,0,0-3.28-.22,4.06,4.06,0,0,0-2.59,3.24,4.36,4.36,0,0,0,1,3.35l.12.15a.64.64,0,0,0,.91.08l.85-.7a.64.64,0,0,0,.08-.9L436,577a1.83,1.83,0,0,1-.37-1.46,1.68,1.68,0,0,1,.94-1.19,1.6,1.6,0,0,1,1.72.16,1.68,1.68,0,0,1,.32,2.41,2.07,2.07,0,0,0,0,2.52l.66.8L437,585.9,435,588a9.86,9.86,0,0,0-2.53,5.86l-.53,7a1.59,1.59,0,0,0,.91,1.51l5.17,2.09a1.5,1.5,0,0,0,2-1.18l.6-4.85,8.3,6.19a5.6,5.6,0,0,1,2.06,2.9l6.83,20.8a2.62,2.62,0,0,0,4.19,1.22l23.31-19.27a2.63,2.63,0,0,0-.41-4.35l-19.3-10.58a6,6,0,0,1-2.46-2.56Zm-17.18-2.45,4-.81,1.2,5.2a1.36,1.36,0,0,1-1.89,1.56l-4.88-2.16Z" transform="translate(37.26 45.92)"/><path class="b26c7712-1217-47bd-b41e-2f577ec5d3c1" d="M95.82,167.67l4.87.33a1.45,1.45,0,0,0,1.49-1.74l-1.09-5.46a1.48,1.48,0,0,0-1.31-1.18l-6.93-.79a10.19,10.19,0,0,0-6.22,1.38l-2.39,1.47-6,1.17-.45-.54a4.15,4.15,0,0,0-1.55-5.92,4.3,4.3,0,0,0-3.28-.22,4.08,4.08,0,0,0-2.6,3.23,4.3,4.3,0,0,0,1,3.35l.12.15a.65.65,0,0,0,.91.09l.84-.7a.65.65,0,0,0,.09-.91l-.21-.25a1.77,1.77,0,0,1-.36-1.45,1.66,1.66,0,0,1,.93-1.2,1.59,1.59,0,0,1,1.73.17,1.69,1.69,0,0,1,.32,2.41,2.07,2.07,0,0,0,0,2.52l.66.79-2.33,5.69-1.94,2.11A9.91,9.91,0,0,0,69.64,178l-.53,7a1.56,1.56,0,0,0,.91,1.51l5.16,2.09a1.51,1.51,0,0,0,2-1.18l.59-4.84,8.31,6.19a5.62,5.62,0,0,1,2.06,2.9L95,212.54a2.63,2.63,0,0,0,4.2,1.22l23.31-19.28a2.62,2.62,0,0,0-.42-4.34L102.8,179.56a6,6,0,0,1-2.46-2.57Zm-17.18-2.45,4-.81,1.2,5.2A1.35,1.35,0,0,1,82,171.17L77.09,169Z" transform="translate(37.26 45.92)"/><path class="b26c7712-1217-47bd-b41e-2f577ec5d3c1" d="M458.66-16.49l4.87.32A1.43,1.43,0,0,0,465-17.9l-1.08-5.47a1.48,1.48,0,0,0-1.31-1.17l-6.94-.8A10.27,10.27,0,0,0,449.47-24l-2.38,1.47-6,1.18-.45-.55a4.13,4.13,0,0,0-1.55-5.92,4.3,4.3,0,0,0-3.28-.22,4.06,4.06,0,0,0-2.59,3.24,4.36,4.36,0,0,0,1,3.35l.12.15a.64.64,0,0,0,.91.08l.85-.7a.64.64,0,0,0,.08-.9L436-23a1.83,1.83,0,0,1-.37-1.46,1.68,1.68,0,0,1,.94-1.19,1.6,1.6,0,0,1,1.72.16,1.68,1.68,0,0,1,.32,2.41,2.07,2.07,0,0,0,0,2.52l.66.8L437-14.1,435-12a9.86,9.86,0,0,0-2.53,5.86L432,.91a1.59,1.59,0,0,0,.91,1.51L438,4.51a1.5,1.5,0,0,0,2-1.18l.6-4.85L449,4.67A5.6,5.6,0,0,1,451,7.57l6.83,20.8A2.62,2.62,0,0,0,462,29.59l23.31-19.27A2.63,2.63,0,0,0,484.94,6L465.64-4.61a6,6,0,0,1-2.46-2.56Zm-17.18-2.45,4-.81,1.2,5.2A1.36,1.36,0,0,1,444.81-13l-4.88-2.16Z" transform="translate(37.26 45.92)"/><g id="b0ec9702-9aa4-4df8-8c71-c2af933e938a" data-name="xjPlSa"><path class="ffe7a3a9-6962-4e51-89fa-098d1be38a50" d="M238.58,354.55a3.08,3.08,0,0,1-1-.54c-2-2.42-4-5-4-8.24,0-4,3-5.81,6.29-7,5.54-2.07,11.1-4.07,16.65-6.1,1.19-.43,2.35-.92,3.55-1.3,2.86-.92,5.07-.26,6.49,1.88,1.21,1.82.94,4.07-1.25,6.14a135.37,135.37,0,0,1-13.55,11,33.1,33.1,0,0,1-6.67,4A9.07,9.07,0,0,1,238.58,354.55Z" transform="translate(37.26 45.92)"/><path class="ffe7a3a9-6962-4e51-89fa-098d1be38a50" d="M214.78,346.09c1.28,1.5,1.79,3.55,3.43,4.09,1.94.63,2.79-1.66,4.27-2.43a8.94,8.94,0,0,1,6.62-.75c1.43.35,6,8.71,5.52,10.11a9.91,9.91,0,0,1-8.57,6.43C216.37,364,210.72,355.45,214.78,346.09Z" transform="translate(37.26 45.92)"/></g><g id="a69b308e-c12a-45ce-a234-b6749dc40c78" data-name="faAsWI"><path class="b26c7712-1217-47bd-b41e-2f577ec5d3c1" d="M376.69,288.64a4.73,4.73,0,0,1,2.32,2.6c2.48,5.71,4.92,11.43,7.47,17.11.51,1.16.25,1.57-.84,2-7,3-14,6.09-21.06,9.07a30,30,0,0,1-18.51,1.61c-2.22-.49-2.8-1.85-1.65-3.8a30.54,30.54,0,0,1,14.69-12.77c4.93-2.11,9.83-4.26,14.76-6.37,1-.43,1.83-.67,1.19-2.16s-1.42-1-2.38-.58c-3,1.33-6.12,2.54-9.09,4-2,1-2.6-.1-3.27-1.65s-1.1-2.69,1-3.52c4-1.6,8-3.42,11.94-5.14A5.16,5.16,0,0,1,376.69,288.64Z" transform="translate(37.26 45.92)"/><path class="b26c7712-1217-47bd-b41e-2f577ec5d3c1" d="M398.57,303.26a6.09,6.09,0,0,1-3.45,3c-1.75.69-3.75,2.26-5.17,1.85s-1.68-3.12-2.46-4.81c-1.22-2.64-2.29-5.34-3.52-8-.46-1-.39-1.51.72-1.93,1.76-.65,3.45-1.52,5.22-2.17s3.69-.48,4.8,1.31a35.93,35.93,0,0,1,3.84,8.83A6.4,6.4,0,0,1,398.57,303.26Z" transform="translate(37.26 45.92)"/></g><g id="be5ea4bb-28c8-4d0b-a05a-3ccb70078b5b" data-name="otP480"><path class="b9f06fdb-8635-4bf5-9fe1-388831d0aad1" d="M85.8,360.74c1.32-4.37,2.63-8.75,4-13.11a8.56,8.56,0,0,1,11.12-5.95c8.83,2.65,17.64,5.39,26.48,8,2.12.63,2.75,1.72,2.09,3.85q-4.09,13.2-8,26.46c-.55,1.83-2.29,3-2.59,4.94-.26,1.68-1,3.2-.73,5.05.38,2.68-1.33,3.88-4,3.09q-13.23-4-26.46-8.05c-5-1.54-7.37-6.09-5.86-11.17C83.12,369.48,84.47,365.11,85.8,360.74Zm16.33,16.83c-3.69-1.12-7.37-2.25-11.07-3.36-1.83-.54-3.4-.13-4,1.82s.51,3.14,2.37,3.68l1.58.48,18.28,5.56c3.67,1.12,3.57,1.07,5-2.51.62-1.61.08-2-1.31-2.4C109.34,379.81,105.74,378.67,102.13,377.57Zm6.24-18.81c2.71.83,5.43,1.62,8.12,2.49,1.05.33,1.74.36,2.11-.95s-.18-1.52-1.15-1.81q-8-2.4-16-4.87c-1-.3-1.58-.3-2,.86s.16,1.66,1.22,2C103.26,357.18,105.81,358,108.37,358.76ZM107,364.28c2.71.82,5.42,1.62,8.12,2.48.92.29,1.46.15,1.76-.86s.26-1.59-.9-1.93q-8.15-2.42-16.26-4.94c-1-.31-1.57-.18-1.91.94s0,1.56,1.06,1.85C101.59,362.6,104.29,363.46,107,364.28Z" transform="translate(37.26 45.92)"/></g><g id="ac6b1d52-3019-435f-a2ed-dfbd6f9e21c6" data-name="7VvAr8"><path class="e77d9c1b-bf45-4758-8384-3700bcc09f17" d="M472.14,461.76a6,6,0,0,1-4.52-1.81,4.76,4.76,0,0,0-4.14-1.51c-5.55.05-11.11,0-16.66,0a4.47,4.47,0,0,0-3.65,1.32,6.49,6.49,0,1,1-9-9.36,3.28,3.28,0,0,0,1.15-2.6q-.06-9.29,0-18.58a3.23,3.23,0,0,0-1.13-2.61,6.49,6.49,0,1,1,9-9.39,4.28,4.28,0,0,0,3.36,1.35c5.92,0,11.84,0,17.76,0a3.49,3.49,0,0,0,2.9-1.12,6.37,6.37,0,0,1,7.61-1.53,6.69,6.69,0,0,1,3.75,6.55,6.56,6.56,0,0,1-5.17,5.83c-3.53.95-5,4.49-5.06,6.83-.13,3.23-1.3,7,1.44,10.23,1.38,1.6,2.33,3.17,4.63,3.8,2.95.81,4.64,4.16,4.12,7A6.78,6.78,0,0,1,472.14,461.76Zm-5.88-36.6c-7.43,0-14.24-.14-21.05.1a3.53,3.53,0,0,0-3.27,3.73c0,6.38-.05,12.75,0,19.13a3.52,3.52,0,0,0,3.35,3.65c6.79.22,13.59.09,20.86.09-2.1-3.13-2.75-6.58-6.86-7.46-2.63-.57-3.88-3.09-3.91-5.79s1.23-5.42,4-6C463.52,431.71,464,428.14,466.26,425.16Zm-27.52-1.64a1.6,1.6,0,0,0,1.51-1.62,1.62,1.62,0,1,0-3.23.19A1.6,1.6,0,0,0,438.74,423.52Zm33.48,0a1.66,1.66,0,0,0,1.37-1.62,1.63,1.63,0,1,0-3.24.19C470.47,423,471.12,423.49,472.22,423.52Zm-8.6,15.07a1.61,1.61,0,0,0-1.46-1.7,1.54,1.54,0,0,0-1.82,1.56,1.5,1.5,0,0,0,1.43,1.68C462.84,440.25,463.43,439.61,463.62,438.59ZM437,455.24a1.61,1.61,0,0,0,1.6,1.55,1.63,1.63,0,1,0-.15-3.25A1.62,1.62,0,0,0,437,455.24Zm35.25,1.58a1.66,1.66,0,0,0,1.37-1.62,1.63,1.63,0,1,0-3.24.19C470.47,456.29,471.12,456.79,472.22,456.82Z" transform="translate(37.26 45.92)"/></g><g id="a73e2054-1ed0-4583-8ca8-edb5698f79d2" data-name="7VvAr8"><path class="b26c7712-1217-47bd-b41e-2f577ec5d3c1" d="M193.86,65.19a6,6,0,0,1-4.84.56,4.77,4.77,0,0,0-4.36.66c-4.85,2.7-9.74,5.33-14.63,8a4.49,4.49,0,0,0-2.58,2.91,6.49,6.49,0,1,1-12.35-4,3.26,3.26,0,0,0-.23-2.83q-4.49-8.15-8.87-16.33a3.27,3.27,0,0,0-2.24-1.75,6.49,6.49,0,1,1,3.38-12.53,4.3,4.3,0,0,0,3.6-.41c5.18-2.87,10.39-5.68,15.61-8.49a3.55,3.55,0,0,0,2-2.37,6.36,6.36,0,0,1,5.95-5,6.68,6.68,0,0,1,6.43,4A6.56,6.56,0,0,1,179,35.2c-2.64,2.52-2.21,6.31-1.18,8.41,1.43,2.91,2.21,6.81,6.15,8.3,2,.75,3.56,1.68,5.88,1.14,3-.7,6.06,1.43,7,4.21A6.77,6.77,0,0,1,193.86,65.19ZM171.22,35.84c-6.52,3.55-12.58,6.68-18.45,10.14a3.54,3.54,0,0,0-1.1,4.84c3,5.61,6.05,11.23,9.15,16.8a3.54,3.54,0,0,0,4.69,1.61c6.07-3,12-6.41,18.37-9.89-3.34-1.74-5.55-4.46-9.59-3.28-2.58.76-4.88-.86-6.2-3.21s-1.51-5.35.63-7.19C171.94,42.9,170.62,39.55,171.22,35.84Zm-25,11.7a1.61,1.61,0,0,0,.56-2.15,1.62,1.62,0,1,0-2.75,1.71A1.6,1.6,0,0,0,146.25,47.54Zm29.42-16a1.68,1.68,0,0,0,.43-2.09,1.63,1.63,0,1,0-2.75,1.72A1.67,1.67,0,0,0,175.67,31.56Zm-.36,17.34a1.62,1.62,0,0,0-2.1-.8,1.55,1.55,0,0,0-.85,2.25,1.51,1.51,0,0,0,2.06.79A1.62,1.62,0,0,0,175.31,48.9ZM159.85,76.26a1.61,1.61,0,0,0,2.14.59,1.63,1.63,0,1,0-1.68-2.78A1.6,1.6,0,0,0,159.85,76.26Zm31.72-15.44a1.67,1.67,0,0,0,.43-2.09,1.63,1.63,0,1,0-2.75,1.72A1.67,1.67,0,0,0,191.57,60.82Z" transform="translate(37.26 45.92)"/></g><g id="b2304976-7ae8-476b-ad4a-c10ec1b20ff5" data-name="7VvAr8"><path class="b26c7712-1217-47bd-b41e-2f577ec5d3c1" d="M23.75,266.67a6,6,0,0,1-4.53-1.82,4.76,4.76,0,0,0-4.14-1.51c-5.55.06-11.1,0-16.66,0a4.47,4.47,0,0,0-3.65,1.33,6.39,6.39,0,0,1-9.4-.16,6.46,6.46,0,0,1,.43-9.21,3.27,3.27,0,0,0,1.15-2.6q-.06-9.28,0-18.58a3.24,3.24,0,0,0-1.14-2.6,6.45,6.45,0,0,1-.45-9.21,6.44,6.44,0,0,1,9.41-.19,4.29,4.29,0,0,0,3.36,1.36c5.92-.05,11.84,0,17.76,0a3.59,3.59,0,0,0,2.91-1.12,6.36,6.36,0,0,1,7.6-1.53,6.66,6.66,0,0,1,3.75,6.55A6.55,6.55,0,0,1,25,233.2c-3.52,1-5,4.49-5.06,6.83-.13,3.23-1.3,7,1.44,10.23,1.38,1.6,2.33,3.18,4.63,3.81,3,.8,4.64,4.15,4.12,7A6.79,6.79,0,0,1,23.75,266.67Zm-5.89-36.6c-7.42,0-14.24-.15-21,.1a3.52,3.52,0,0,0-3.27,3.72c0,6.38,0,12.76,0,19.14a3.53,3.53,0,0,0,3.35,3.65c6.79.21,13.59.08,20.87.08-2.11-3.13-2.76-6.57-6.87-7.46C8.27,248.73,7,246.22,7,243.52s1.23-5.42,4-6C15.13,236.61,15.56,233,17.86,230.07Zm-27.52-1.65a1.6,1.6,0,0,0,1.51-1.62,1.52,1.52,0,0,0-1.72-1.66A1.52,1.52,0,0,0-11.38,227,1.6,1.6,0,0,0-9.66,228.42Zm33.48,0a1.67,1.67,0,0,0,1.37-1.63,1.52,1.52,0,0,0-1.72-1.66A1.52,1.52,0,0,0,22,227C22.07,227.9,22.72,228.39,23.82,228.43Zm-8.6,15.07a1.62,1.62,0,0,0-1.46-1.71,1.54,1.54,0,0,0-1.82,1.57A1.51,1.51,0,0,0,13.37,245C14.44,245.16,15,244.51,15.22,243.5Zm-26.65,16.65a1.61,1.61,0,0,0,1.6,1.54A1.52,1.52,0,0,0-8.15,260,1.51,1.51,0,0,0-10,258.45,1.61,1.61,0,0,0-11.43,260.15Zm35.25,1.58a1.65,1.65,0,0,0,1.37-1.63,1.63,1.63,0,1,0-3.24.2C22.07,261.2,22.72,261.69,23.82,261.73Z" transform="translate(37.26 45.92)"/></g><g id="a56d1aca-752f-49ed-9f6c-4205a0c8a713" data-name="7VvAr8"><path class="b26c7712-1217-47bd-b41e-2f577ec5d3c1" d="M623.75,266.67a6,6,0,0,1-4.53-1.82,4.76,4.76,0,0,0-4.14-1.51c-5.55.06-11.1,0-16.66,0a4.47,4.47,0,0,0-3.65,1.33,6.49,6.49,0,1,1-9-9.37,3.27,3.27,0,0,0,1.15-2.6q-.06-9.28,0-18.58a3.24,3.24,0,0,0-1.14-2.6,6.5,6.5,0,1,1,9-9.4,4.29,4.29,0,0,0,3.36,1.36c5.92-.05,11.84,0,17.76,0a3.59,3.59,0,0,0,2.91-1.12,6.36,6.36,0,0,1,7.6-1.53,6.66,6.66,0,0,1,3.75,6.55A6.55,6.55,0,0,1,625,233.2c-3.52,1-5,4.49-5.06,6.83-.13,3.23-1.3,7,1.44,10.23,1.38,1.6,2.33,3.18,4.63,3.81,3,.8,4.64,4.15,4.12,7A6.79,6.79,0,0,1,623.75,266.67Zm-5.89-36.6c-7.42,0-14.24-.15-21.05.1a3.52,3.52,0,0,0-3.27,3.72c0,6.38,0,12.76,0,19.14a3.53,3.53,0,0,0,3.35,3.65c6.79.21,13.59.08,20.87.08-2.11-3.13-2.76-6.57-6.87-7.46-2.63-.57-3.87-3.08-3.91-5.78s1.23-5.42,4-6C615.13,236.61,615.56,233,617.86,230.07Zm-27.52-1.65a1.6,1.6,0,0,0,1.51-1.62,1.62,1.62,0,1,0-3.23.19A1.6,1.6,0,0,0,590.34,228.42Zm33.48,0a1.67,1.67,0,0,0,1.37-1.63A1.63,1.63,0,1,0,622,227C622.07,227.9,622.72,228.39,623.82,228.43Zm-8.6,15.07a1.62,1.62,0,0,0-1.46-1.71,1.54,1.54,0,0,0-1.82,1.57,1.51,1.51,0,0,0,1.43,1.68C614.44,245.16,615,244.51,615.22,243.5Zm-26.65,16.65a1.61,1.61,0,0,0,1.6,1.54,1.63,1.63,0,1,0-.15-3.24A1.61,1.61,0,0,0,588.57,260.15Zm35.25,1.58a1.65,1.65,0,0,0,1.37-1.63,1.63,1.63,0,1,0-3.24.2C622.07,261.2,622.72,261.69,623.82,261.73Z" transform="translate(37.26 45.92)"/></g><g id="b5800ab9-baf0-4a11-bfe9-1841b5e3cee1" data-name="BQRE4H"><path class="b26c7712-1217-47bd-b41e-2f577ec5d3c1" d="M533.63,85.25l-16.71,2c-4.18.51-5.93-.82-6.43-4.89q-1.39-11.25-2.75-22.5c-.48-4,.88-5.76,4.83-6.27a17,17,0,0,1,2.12-.25c2.75,0,5-.45,5.36-4,.17-1.75,1.9-2.62,3.68-2.84q5.16-.68,10.35-1.27c2.57-.3,4.23,1,5.18,3.23A2.2,2.2,0,0,0,542.15,50a40.64,40.64,0,0,1,5.4-.67c2.87-.21,4.78,1.21,5.15,4q1.6,12.17,3,24.37c.35,3-1.24,4.88-4.41,5.3C545.39,83.85,539.51,84.53,533.63,85.25Zm-1-6.28A10.63,10.63,0,1,0,521,69.35,10.59,10.59,0,0,0,532.63,79Z" transform="translate(37.26 45.92)"/><path class="b26c7712-1217-47bd-b41e-2f577ec5d3c1" d="M539.3,67.47a7.68,7.68,0,1,1-8.43-6.7A7.41,7.41,0,0,1,539.3,67.47Z" transform="translate(37.26 45.92)"/></g><g id="bcbb3d42-9e06-4eb0-93ce-bca939d0cb2e" data-name="BQRE4H"><path class="e77d9c1b-bf45-4758-8384-3700bcc09f17" d="M280.78,67.8l-16.7,2c-4.18.51-5.93-.82-6.44-4.89q-1.39-11.25-2.75-22.5c-.48-4,.89-5.76,4.84-6.27a16.79,16.79,0,0,1,2.12-.25c2.74-.05,5-.44,5.35-4,.18-1.75,1.9-2.62,3.68-2.84q5.17-.67,10.35-1.27c2.58-.3,4.24,1,5.18,3.23a2.2,2.2,0,0,0,2.89,1.52,40.79,40.79,0,0,1,5.41-.67c2.87-.21,4.78,1.21,5.15,4q1.59,12.17,3,24.37c.34,3-1.24,4.88-4.42,5.3C292.55,66.4,286.66,67.08,280.78,67.8Zm-1-6.28A10.63,10.63,0,1,0,268.2,51.9,10.61,10.61,0,0,0,279.78,61.52Z" transform="translate(37.26 45.92)"/><path class="e77d9c1b-bf45-4758-8384-3700bcc09f17" d="M286.45,50a7.68,7.68,0,1,1-8.43-6.7A7.41,7.41,0,0,1,286.45,50Z" transform="translate(37.26 45.92)"/></g><g id="b91ddb6e-1366-402f-b06b-3355c099a8cb" data-name="cH71Ww"><path class="b26c7712-1217-47bd-b41e-2f577ec5d3c1" d="M619.2,570.79c-1.79,4.53-3.63,9.05-5.35,13.61a5,5,0,0,1-3.92,3.33,11.38,11.38,0,0,1-11.16-4.56c-1.93-3-.74-6.11,2.72-6.92a9.21,9.21,0,0,1,7.26,1.08c1.31.84,1.89.59,2.41-.79,1.54-4,3.11-8.07,4.78-12.06.64-1.55.1-1.87-1.33-2-6.73-.58-13.45-1.19-20.17-1.87-1.41-.14-1.93.46-2.38,1.63-2.15,5.58-4.45,11.1-6.53,16.7a5.35,5.35,0,0,1-5.13,3.78,11.13,11.13,0,0,1-9.77-4.26c-2.56-3.22-1.08-6.89,3-7.52a9.1,9.1,0,0,1,6.59,1.18c1.44,1,2,.55,2.54-.88,2.32-6,4.71-12,7.09-18,1.33-3.34,1.87-3.64,5.47-3.32q13,1.19,26,2.34c3.66.34,4.47,1.68,3.12,5.13Q621.85,564.09,619.2,570.79Z" transform="translate(37.26 45.92)"/></g><g id="fd8bca47-a5b8-41e5-9a20-08d635b0f066" data-name="cH71Ww"><path class="b26c7712-1217-47bd-b41e-2f577ec5d3c1" d="M19.2,570.79c-1.79,4.53-3.63,9.05-5.35,13.61a5,5,0,0,1-3.92,3.33,11.38,11.38,0,0,1-11.16-4.56c-1.93-3-.74-6.11,2.72-6.92a9.21,9.21,0,0,1,7.26,1.08c1.31.84,1.89.59,2.41-.79,1.54-4,3.11-8.07,4.78-12.06.64-1.55.1-1.87-1.33-2-6.73-.58-13.45-1.19-20.17-1.87-1.41-.14-1.93.46-2.38,1.63-2.15,5.58-4.45,11.1-6.53,16.7a5.35,5.35,0,0,1-5.13,3.78,11.13,11.13,0,0,1-9.77-4.26c-2.56-3.22-1.08-6.89,3-7.52a9.1,9.1,0,0,1,6.59,1.18c1.44,1,2,.55,2.54-.88,2.32-6,4.71-12,7.09-18,1.33-3.34,1.87-3.64,5.47-3.32q13,1.19,26.05,2.34c3.66.34,4.47,1.68,3.12,5.13Q21.85,564.09,19.2,570.79Z" transform="translate(37.26 45.92)"/></g><path class="e77d9c1b-bf45-4758-8384-3700bcc09f17" d="M102.31,260a73.3,73.3,0,0,1-1.24,7.33,52.45,52.45,0,0,1-5.75,12.75,55.19,55.19,0,0,1-5.7,8c-.89,1-1.07,1.78-.22,2.91a6.23,6.23,0,0,1,1,5c-.45,2.6-2.68,3.94-5.36,2.25-1-.61-1.55-2.22-2.59-2s-1.59,1.57-2.42,2.36c-6.93,6.55-14.36,12.4-23.23,16.18-2,.86-4,1.77-6.36,1.5a4,4,0,0,1-3.68-4.74,14.72,14.72,0,0,1,2.47-5.74,79.12,79.12,0,0,0,7.21-13.42,154.83,154.83,0,0,0,8-23.5c1.6-6,2.62-12,3.69-18.1,1-5.37,3.38-9.41,8.86-11.13.08,0,.11-.19.16-.29l5.12-.63c3.4.56,6.73,1.19,9.74,3.1,3.69,2.34,6.93,5,8.67,9.13.3.69-.08,1.62.76,2.1Z" transform="translate(37.26 45.92)"/><path class="b26c7712-1217-47bd-b41e-2f577ec5d3c1" d="M617.82,410.08c-.41-2.73-2.37-4.24-3.64-6.09a43,43,0,0,1-6.9-15c-.57-2.55,3.29-5.43,6.34-4.77,1.94.42,3.15,1.43,3.32,3.56A35.07,35.07,0,0,0,622.27,403a30.62,30.62,0,0,0,14.3,12.1,47.09,47.09,0,0,0,10.56,3.37c3.48.64,4.64,2.71,3.44,6.11-.5,1.41-1.7,2.32-2.66,3.41-1.25,1.44-2.52.51-3.78.25-5.71-1.21-10.52-4.14-15-7.73a29.66,29.66,0,0,1-3.45-3c-.48-.53-1.19-1-1.78-.58s-.07,1.18.12,1.72c1.7,4.67,2.6,9.4,1.23,14.33a19.45,19.45,0,0,1-7.65,10.7,40.43,40.43,0,0,1-4.45,3c-2.11,1.16-2.41,1.12-3.45-.93-3.22-6.36-1.75-12.19,1.7-18,1.55-2.61,3.73-4.75,5.08-7.45.24-.48.78-1.25.11-1.7a1.78,1.78,0,0,0-2.09.3c-4.08,2.91-8.25,5.7-13,7.39-6.56,2.34-13.15,2.87-19.72-.07-1.07-.48-.6-1-.38-1.59a20.46,20.46,0,0,1,3.06-4.83,26.36,26.36,0,0,1,15.27-10.51c5.34-1.33,10.55-.68,15.79.31C616.19,409.67,616.85,409.85,617.82,410.08Z" transform="translate(37.26 45.92)"/><path class="b26c7712-1217-47bd-b41e-2f577ec5d3c1" d="M17.82,410.08c-.41-2.73-2.37-4.24-3.64-6.09a43,43,0,0,1-6.9-15c-.57-2.55,3.29-5.43,6.34-4.77,1.94.42,3.15,1.43,3.32,3.56A35.07,35.07,0,0,0,22.27,403a30.62,30.62,0,0,0,14.3,12.1,47.09,47.09,0,0,0,10.56,3.37c3.48.64,4.64,2.71,3.44,6.11-.5,1.41-1.7,2.32-2.66,3.41-1.25,1.44-2.52.51-3.78.25-5.71-1.21-10.52-4.14-15-7.73a29.66,29.66,0,0,1-3.45-3c-.48-.53-1.19-1-1.78-.58s-.07,1.18.12,1.72c1.7,4.67,2.6,9.4,1.23,14.33a19.45,19.45,0,0,1-7.65,10.7,40.43,40.43,0,0,1-4.45,3c-2.11,1.16-2.41,1.12-3.45-.93-3.22-6.36-1.75-12.19,1.7-18,1.55-2.61,3.73-4.75,5.08-7.45.24-.48.78-1.25.11-1.7a1.78,1.78,0,0,0-2.09.3c-4.08,2.91-8.25,5.7-13,7.39-6.56,2.34-13.15,2.87-19.72-.07-1.07-.48-.6-1-.38-1.59a20.46,20.46,0,0,1,3.06-4.83A26.36,26.36,0,0,1-.27,409.23c5.34-1.33,10.55-.68,15.79.31C16.19,409.67,16.85,409.85,17.82,410.08Z" transform="translate(37.26 45.92)"/><path class="ffe7a3a9-6962-4e51-89fa-098d1be38a50" d="M480.79,154c-5.63,5.87-12.46,6.91-19.68,5.73-5.35-.88-10.22-3.12-13.69-7.6-3.76-4.86-4.8-12.92.45-17.49a9.75,9.75,0,0,1,5.23-2.58c.57-.07,1.06-.39,1.44.3a1.21,1.21,0,0,1-.25,1.55c-.5.52-1,1-1.45,1.6-1.35,1.6-1.86,3.45-.69,5.23a5.62,5.62,0,0,0,4.74,2.3c3.36.15,6.36-1.09,9.39-2.35a16.25,16.25,0,0,1,9.36-1.31,9.45,9.45,0,0,1,6.11,3.87c.7.95,1.07,1.66,2.48.65,5.28-3.76,11.24-1.55,15.09,2,2.34,2.14,4.55,4.4,7.67,5.55a5.75,5.75,0,0,0,6.22-.95c1.73-1.46,1.8-3.25,1-5.26-.36-.93-.9-2.14.33-2.82s1.74.6,2.38,1.11c4.74,3.85,4.67,10.7-.13,15.85-4.58,4.91-10.23,6.83-17,6.58-5.76-.21-10.8-1.86-15.08-5.65A11.75,11.75,0,0,1,480.79,154Z" transform="translate(37.26 45.92)"/><path class="b26c7712-1217-47bd-b41e-2f577ec5d3c1" d="M303.49,599c-5.62,5.87-12.46,6.91-19.68,5.73-5.35-.88-10.22-3.11-13.69-7.6-3.76-4.86-4.8-12.92.45-17.49a9.67,9.67,0,0,1,5.23-2.57c.57-.07,1.07-.39,1.44.29A1.21,1.21,0,0,1,277,579c-.5.52-1,1-1.45,1.6-1.34,1.6-1.86,3.45-.69,5.24a5.64,5.64,0,0,0,4.74,2.29c3.36.15,6.36-1.09,9.4-2.34a16,16,0,0,1,9.35-1.31,9.4,9.4,0,0,1,6.11,3.86c.71,1,1.07,1.66,2.48.65,5.28-3.76,11.24-1.55,15.1,2,2.33,2.14,4.55,4.41,7.66,5.55a5.77,5.77,0,0,0,6.23-1c1.72-1.46,1.79-3.25,1-5.26-.36-.92-.89-2.14.33-2.82s1.74.6,2.38,1.12c4.74,3.84,4.67,10.7-.13,15.84-4.58,4.91-10.23,6.83-16.95,6.58-5.76-.21-10.8-1.86-15.08-5.65A11.71,11.71,0,0,1,303.49,599Z" transform="translate(37.26 45.92)"/><path class="b26c7712-1217-47bd-b41e-2f577ec5d3c1" d="M303.49-1C297.87,4.91,291,6,283.81,4.77c-5.35-.88-10.22-3.11-13.69-7.6-3.76-4.86-4.8-12.92.45-17.49a9.67,9.67,0,0,1,5.23-2.57c.57-.07,1.07-.39,1.44.29A1.21,1.21,0,0,1,277-21c-.5.52-1,1.05-1.45,1.6-1.34,1.6-1.86,3.45-.69,5.24a5.64,5.64,0,0,0,4.74,2.29C283-11.77,286-13,289-14.26a16,16,0,0,1,9.35-1.31,9.4,9.4,0,0,1,6.11,3.86c.71,1,1.07,1.66,2.48.65,5.28-3.76,11.24-1.55,15.1,2,2.33,2.14,4.55,4.41,7.66,5.55a5.77,5.77,0,0,0,6.23-1c1.72-1.46,1.79-3.25,1-5.26-.36-.92-.89-2.14.33-2.82s1.74.6,2.38,1.12c4.74,3.84,4.67,10.7-.13,15.84-4.58,4.91-10.23,6.83-16.95,6.58-5.76-.21-10.8-1.86-15.08-5.65A11.71,11.71,0,0,1,303.49-1Z" transform="translate(37.26 45.92)"/><rect class="b26c7712-1217-47bd-b41e-2f577ec5d3c1" x="528.77" y="326.55" width="3.28" height="13.75" transform="translate(29.99 700.91) rotate(-63.04)"/><rect class="b26c7712-1217-47bd-b41e-2f577ec5d3c1" x="503.73" y="345.42" width="34.22" height="13.75" transform="translate(7.89 702.61) rotate(-63.03)"/><path class="b26c7712-1217-47bd-b41e-2f577ec5d3c1" d="M539.78,330.36A4,4,0,0,0,538,325l-5.12-2.61a4,4,0,0,0-5.35,1.75l-1.3,2.56L538.68,333Z" transform="translate(37.26 45.92)"/><path class="b26c7712-1217-47bd-b41e-2f577ec5d3c1" d="M505.89,379.19a1.21,1.21,0,0,0,.68,1.09,1.18,1.18,0,0,0,.84.06l.45-.15,9.84-7.64-11.43-5.81Z" transform="translate(37.26 45.92)"/><rect class="b26c7712-1217-47bd-b41e-2f577ec5d3c1" x="235.24" y="92.77" width="3.28" height="13.75" transform="translate(77.92 311.51) rotate(-63.04)"/><rect class="b26c7712-1217-47bd-b41e-2f577ec5d3c1" x="210.2" y="111.64" width="34.22" height="13.75" transform="translate(55.84 313.26) rotate(-63.03)"/><path class="b26c7712-1217-47bd-b41e-2f577ec5d3c1" d="M246.25,96.58a4,4,0,0,0-1.74-5.35l-5.12-2.61A4,4,0,0,0,234,90.37l-1.3,2.56,12.41,6.31Z" transform="translate(37.26 45.92)"/><path class="b26c7712-1217-47bd-b41e-2f577ec5d3c1" d="M212.36,145.41a1.2,1.2,0,0,0,.68,1.09,1.18,1.18,0,0,0,.84.06l.45-.15,9.84-7.64L212.74,133Z" transform="translate(37.26 45.92)"/><path class="b26c7712-1217-47bd-b41e-2f577ec5d3c1" d="M380.07,398.68a1.49,1.49,0,0,0,.55-2,1.52,1.52,0,1,1,2.62-1.53,1.49,1.49,0,0,0,2,.55,1.56,1.56,0,0,0,.2-.16,1.5,1.5,0,0,0,.34-1.9,4.5,4.5,0,1,0-7.78,4.54A1.49,1.49,0,0,0,380.07,398.68Z" transform="translate(37.26 45.92)"/><path class="b26c7712-1217-47bd-b41e-2f577ec5d3c1" d="M390.24,385.89A4.48,4.48,0,0,0,388.6,392a1.49,1.49,0,0,0,2.61-1.45l0,0a1.52,1.52,0,0,1,2.62-1.53,1.49,1.49,0,0,0,2,.55l.19-.16a1.49,1.49,0,0,0,.34-1.9A4.49,4.49,0,0,0,390.24,385.89Z" transform="translate(37.26 45.92)"/><path class="b26c7712-1217-47bd-b41e-2f577ec5d3c1" d="M390.13,397.88a9.36,9.36,0,0,0-4.61,8.81,1.49,1.49,0,1,0,3-.24,6.3,6.3,0,0,1,9.85-5.72,1.5,1.5,0,0,0,1.7-2.46h0A9.35,9.35,0,0,0,390.13,397.88Z" transform="translate(37.26 45.92)"/><path class="b26c7712-1217-47bd-b41e-2f577ec5d3c1" d="M394.93,358.71a4.49,4.49,0,0,0-2.18,8,1.49,1.49,0,1,0,1.83-2.36,1.52,1.52,0,0,1-.27-2.11,1.5,1.5,0,0,1,2.11-.27,1.49,1.49,0,1,0,1.83-2.36A4.42,4.42,0,0,0,394.93,358.71Z" transform="translate(37.26 45.92)"/><path class="b26c7712-1217-47bd-b41e-2f577ec5d3c1" d="M395.28,345.85a1.48,1.48,0,0,0-1.6-.11,46.66,46.66,0,0,0-23,29.69,1.53,1.53,0,0,0,.5,1.54l1.26,1c1.19,1,2.41,2,3.72,3a46.43,46.43,0,0,0-11.25,10.86,1.49,1.49,0,0,0-.09,1.62l.73,1.35c4.21,7.68,9.44,17.24,20.59,21a16.53,16.53,0,0,0,13.51-1.35,15.48,15.48,0,0,0,2.22-1.55,16.57,16.57,0,0,0,5.68-9.48,28.5,28.5,0,0,0-1.35-15.7,16.39,16.39,0,0,0,8.34-17.6c-2.18-11.55-11-18-18-23.21Zm9.33,56.86a13.45,13.45,0,0,1-15.8,10.59,12.69,12.69,0,0,1-1.71-.46c-10-3.33-15-12.32-18.92-19.55l-.29-.53a43.64,43.64,0,0,1,28.86-16.7l.31.52C401.38,383.6,406.72,392.34,404.61,402.71Zm7-32.16A13.44,13.44,0,0,1,405,384.83a67.21,67.21,0,0,0-3.87-7.25l.58-.43a9.32,9.32,0,0,0,3.07-9.7,1.5,1.5,0,0,0-2.87.82,6.28,6.28,0,0,1-2.3,6.74l-.8-1.31a1.48,1.48,0,0,0-1.48-.72,46.48,46.48,0,0,0-9.69,2.14,1.46,1.46,0,0,0-.53-.8,1.5,1.5,0,0,1,1.84-2.38h0a1.49,1.49,0,1,0,1.83-2.36h0a4.49,4.49,0,0,0-6,6.63,46.46,46.46,0,0,0-6,3c-1.58-1.18-3.07-2.39-4.51-3.57l-.47-.38a43.59,43.59,0,0,1,20.46-26.39l.5.36c6.62,4.89,14.86,11,16.83,21.36Z" transform="translate(37.26 45.92)"/><path class="b9f06fdb-8635-4bf5-9fe1-388831d0aad1" d="M62.54,92.71a1.49,1.49,0,0,0,2.06-.48,1.52,1.52,0,0,1,2.58,1.6,1.49,1.49,0,0,0,.48,2.06,1.57,1.57,0,0,0,.23.09,1.48,1.48,0,0,0,1.83-.59,4.5,4.5,0,1,0-7.66-4.73A1.49,1.49,0,0,0,62.54,92.71Z" transform="translate(37.26 45.92)"/><path class="b9f06fdb-8635-4bf5-9fe1-388831d0aad1" d="M78.61,95.66a4.49,4.49,0,0,0-6.18,1.44,1.49,1.49,0,1,0,2.51,1.62l0,0a1.51,1.51,0,1,1,2.57,1.59,1.5,1.5,0,0,0,.48,2.06l.24.1a1.5,1.5,0,0,0,1.83-.6A4.49,4.49,0,0,0,78.61,95.66Z" transform="translate(37.26 45.92)"/><path class="b9f06fdb-8635-4bf5-9fe1-388831d0aad1" d="M68,101.21a9.38,9.38,0,0,0-10,.08,1.5,1.5,0,0,0,1.62,2.52,6.3,6.3,0,0,1,9.69,6,1.49,1.49,0,0,0,3,.33h0A9.35,9.35,0,0,0,68,101.21Z" transform="translate(37.26 45.92)"/><path class="b9f06fdb-8635-4bf5-9fe1-388831d0aad1" d="M104.8,87a4.5,4.5,0,0,0-8.1,1.85,1.5,1.5,0,0,0,3,.51,1.5,1.5,0,1,1,3,.5,1.5,1.5,0,0,0,3,.5A4.51,4.51,0,0,0,104.8,87Z" transform="translate(37.26 45.92)"/><path class="b9f06fdb-8635-4bf5-9fe1-388831d0aad1" d="M116.31,81.25a1.5,1.5,0,0,0-.66-1.47,46.65,46.65,0,0,0-37-6.3,1.49,1.49,0,0,0-1.12,1.16l-.27,1.57c-.29,1.51-.61,3.06-.86,4.67A46.45,46.45,0,0,0,61.5,76.07a1.49,1.49,0,0,0-1.47.69L59.19,78c-4.8,7.33-10.76,16.45-8.8,28A16.55,16.55,0,0,0,58,117.36a15.18,15.18,0,0,0,2.41,1.23,16.52,16.52,0,0,0,11,.54,28.51,28.51,0,0,0,13.22-8.58,16.42,16.42,0,0,0,19.46-.93c9.16-7.37,10.73-18.15,12-26.81Zm-45.77,35a13.45,13.45,0,0,1-16.78-9,13.16,13.16,0,0,1-.41-1.73c-1.78-10.43,3.83-19,8.34-25.9l.33-.51a43.69,43.69,0,0,1,28.33,17.6l-.31.52C85.88,104.41,80.68,113.23,70.54,116.26Zm31.66-9a13.46,13.46,0,0,1-15.68,1,70,70,0,0,0,4.57-6.83c.22.09.43.21.65.3a9.3,9.3,0,0,0,10-1.86,1.49,1.49,0,0,0-2.07-2.14,6.29,6.29,0,0,1-7,1.14l.78-1.32a1.48,1.48,0,0,0-.07-1.64,45.5,45.5,0,0,0-6.45-7.54,1.48,1.48,0,0,0,.47-.84,1.49,1.49,0,0,1,1.73-1.23A1.51,1.51,0,0,1,90.33,88h0a1.49,1.49,0,0,0,2.94.5h0a4.49,4.49,0,0,0-8.68-2.19,47.67,47.67,0,0,0-5.45-3.89c.3-2,.66-3.84,1-5.66l.12-.6a43.66,43.66,0,0,1,32.91,5.62l-.09.61c-1.19,8.14-2.67,18.28-10.92,24.91Z" transform="translate(37.26 45.92)"/><g id="a726b4e5-a36b-4442-a58f-50c601c61c09" data-name="FsgmBF"><path class="b26c7712-1217-47bd-b41e-2f577ec5d3c1" d="M299.64,260.87a1.74,1.74,0,0,1,.84,1.92c-.82,4.79,0,6.41,4.2,8.73l1.38.74c0,.1,0,.23-.05.24a12.55,12.55,0,0,0-6.34,4.21c-3.37,3.78-7.49,5-12.42,4-3.59-.71-4.1-.6-7.81.39.35-.72.64-1.3.92-1.89,1.94-4,1.56-6.18-1.73-9.23-.67-.62-1-1.21-.61-2.08Z" transform="translate(37.26 45.92)"/><path class="b26c7712-1217-47bd-b41e-2f577ec5d3c1" d="M312,282.59c-3.43-.32-6,1.22-8.26,3.44l-2.43,2.34a9.7,9.7,0,0,1-8.29,2.76c-1.71-.2-3.42-.46-5.15-.61a8.84,8.84,0,0,0-6.38,1.69c-.51.39-.78.51-1.07-.25a32.12,32.12,0,0,1-1.69-6.16,1.92,1.92,0,0,1,1.11-2.24,7.6,7.6,0,0,1,4.88-1c1.56.16,3.11.42,4.67.57a12.87,12.87,0,0,0,10.13-3.33c1.14-1,2.22-2.09,3.35-3.12a8.44,8.44,0,0,1,2.84-1.79c2.46-.86,3.35-.47,4.47,1.85A19.8,19.8,0,0,1,312,282.59Z" transform="translate(37.26 45.92)"/><path class="b26c7712-1217-47bd-b41e-2f577ec5d3c1" d="M311.72,293.26a10.3,10.3,0,0,0-4.17,2.54c-1.07,1-2.09,2-3.15,3a9.43,9.43,0,0,1-7.64,2.59c-1.48-.14-2.95-.38-4.43-.57a10.16,10.16,0,0,0-5.56.61.81.81,0,0,1-1.18-.37c-1.2-1.77-2.31-3.58-3.38-5.43a.94.94,0,0,1,.3-1.42,7.48,7.48,0,0,1,6.06-1.36,27.06,27.06,0,0,0,6.35.5,14.42,14.42,0,0,0,9-4.25c1.37-1.29,2.56-2.8,4.32-3.63a7.29,7.29,0,0,1,1-.42c2.69-.8,3.33-.39,3.58,2.35.11,1.25.13,2.49.22,3.74S313.16,293.38,311.72,293.26Z" transform="translate(37.26 45.92)"/><path class="b26c7712-1217-47bd-b41e-2f577ec5d3c1" d="M303.82,310.39c-2.22.72-4.44,1.43-6.66,2.18a1.54,1.54,0,0,1-1.74-.35,76,76,0,0,1-7.39-7.94c-.64-.81-.41-1,.46-1.22a11.36,11.36,0,0,1,4.31.13c3.51.59,7,.68,10.28-.94a19.82,19.82,0,0,0,5.4-4.18,11.2,11.2,0,0,1,3.53-2.69c.75-.31,1-.16.95.68a67.62,67.62,0,0,1-1.23,10.9,1.45,1.45,0,0,1-1.13,1.23C308.33,308.9,306.08,309.65,303.82,310.39Z" transform="translate(37.26 45.92)"/></g><g id="ba620e1d-d544-40ad-a91f-8a4c3d3c4235" data-name="FsgmBF"><path class="b26c7712-1217-47bd-b41e-2f577ec5d3c1" d="M184.87,381.24a1.72,1.72,0,0,1-.6,2c-3.73,3.13-4.16,4.88-2.44,9.39l.57,1.45c-.08.06-.16.16-.19.15a12.58,12.58,0,0,0-7.55-.89c-5,.71-8.95-1-12.08-5-2.28-2.86-2.74-3.11-6.21-4.75l1.93-.85c4.09-1.82,5.18-3.7,4.64-8.16-.11-.9,0-1.58.88-2Z" transform="translate(37.26 45.92)"/><path class="b26c7712-1217-47bd-b41e-2f577ec5d3c1" d="M180.27,405.81c-2.41-2.46-5.36-2.94-8.52-2.72-1.13.09-2.25.15-3.37.22a9.72,9.72,0,0,1-8.11-3.24c-1.18-1.27-2.32-2.57-3.53-3.81a8.89,8.89,0,0,0-6-2.82c-.64,0-.93-.12-.65-.89a32.11,32.11,0,0,1,2.69-5.8,1.93,1.93,0,0,1,2.29-1,7.55,7.55,0,0,1,4.34,2.42c1.09,1.13,2.11,2.33,3.2,3.45a12.87,12.87,0,0,0,9.88,4c1.53,0,3-.16,4.58-.22a8.52,8.52,0,0,1,3.32.47c2.43.93,2.86,1.81,2.21,4.3A19.72,19.72,0,0,1,180.27,405.81Z" transform="translate(37.26 45.92)"/><path class="b26c7712-1217-47bd-b41e-2f577ec5d3c1" d="M173.15,413.77a10.39,10.39,0,0,0-4.82-.77c-1.45.07-2.89.19-4.34.26a9.48,9.48,0,0,1-7.5-3c-1-1.06-2-2.19-3-3.29a10.26,10.26,0,0,0-4.64-3.14c-.59-.17-.72-.48-.66-1,.23-2.12.55-4.23.93-6.33.13-.69.45-.91,1.15-.88a7.4,7.4,0,0,1,5.49,2.87,27.16,27.16,0,0,0,4.54,4.49,14.4,14.4,0,0,0,9.59,2.56c1.88-.11,3.76-.48,5.64,0a9,9,0,0,1,1,.32c2.57,1.13,2.79,1.86,1.2,4.11-.71,1-1.51,2-2.24,3S174.17,414.78,173.15,413.77Z" transform="translate(37.26 45.92)"/><path class="b26c7712-1217-47bd-b41e-2f577ec5d3c1" d="M156.06,421.73c-2.16-.88-4.32-1.78-6.49-2.64a1.55,1.55,0,0,1-1.11-1.4,75.32,75.32,0,0,1-.5-10.83c0-1,.35-1.06,1.14-.63a11.58,11.58,0,0,1,3.2,2.88c2.29,2.72,4.87,5,8.45,5.93a19.86,19.86,0,0,0,6.83.3,11,11,0,0,1,4.42.23c.78.24.86.51.29,1.14a68.27,68.27,0,0,1-8,7.51,1.48,1.48,0,0,1-1.66.22C160.46,423.51,158.26,422.63,156.06,421.73Z" transform="translate(37.26 45.92)"/></g><path class="e77d9c1b-bf45-4758-8384-3700bcc09f17" d="M252.33,232.94l3.55,3.35a1.45,1.45,0,0,0,2.26-.38l2.64-4.91a1.48,1.48,0,0,0-.26-1.74l-4.84-5a10.17,10.17,0,0,0-5.67-2.9l-2.78-.39-5.35-2.9v-.71a4.13,4.13,0,0,0,2.58-5.55,4.27,4.27,0,0,0-2.38-2.25,4.06,4.06,0,0,0-4.07.83,4.35,4.35,0,0,0-1.35,3.23v.19a.65.65,0,0,0,.64.65h1.1a.64.64,0,0,0,.64-.65v-.32a1.79,1.79,0,0,1,.65-1.35,1.65,1.65,0,0,1,1.48-.33A1.6,1.6,0,0,1,242.4,213a1.69,1.69,0,0,1-1.29,2.06A2.05,2.05,0,0,0,239.5,217v1l-5.42,2.9-2.84.39a9.85,9.85,0,0,0-5.68,2.9l-4.9,5.1a1.58,1.58,0,0,0-.26,1.74l2.65,4.9a1.51,1.51,0,0,0,2.32.39l3.55-3.36,2.45,10.07a5.61,5.61,0,0,1-.26,3.54l-8,20.38a2.63,2.63,0,0,0,2.45,3.62h30.25a2.63,2.63,0,0,0,2.45-3.62l-8.12-20.44a6,6,0,0,1-.26-3.55ZM240.66,220.1l3.61,1.94-2.39,4.77a1.36,1.36,0,0,1-2.45,0L237,222Z" transform="translate(37.26 45.92)"/><g id="ff617731-16cf-4ad9-97ac-e7588aed3adb" data-name="xjPlSa"><path class="b26c7712-1217-47bd-b41e-2f577ec5d3c1" d="M585.27,321.9a3,3,0,0,1,0-1.11c1.1-3,2.3-6,5.13-7.6,3.51-2,6.53-.32,9.26,1.94,4.55,3.77,9.06,7.59,13.59,11.38,1,.81,2,1.58,2.9,2.43,2.22,2,2.75,4.26,1.61,6.56-1,2-3.06,2.84-5.94,2a136.13,136.13,0,0,1-16.3-6.24,33.55,33.55,0,0,1-6.8-3.79A9.05,9.05,0,0,1,585.27,321.9Z" transform="translate(37.26 45.92)"/><path class="b26c7712-1217-47bd-b41e-2f577ec5d3c1" d="M580.73,297.06c-.67,1.86-2.19,3.32-1.83,5,.42,2,2.82,1.59,4.23,2.48a9,9,0,0,1,4,5.36c.4,1.42-4.57,9.53-6,9.84a9.91,9.91,0,0,1-9.85-4.23C566,307.39,570.59,298.22,580.73,297.06Z" transform="translate(37.26 45.92)"/></g><g id="a9817d56-1753-41cf-a9e9-90a530b9406a" data-name="xjPlSa"><path class="b26c7712-1217-47bd-b41e-2f577ec5d3c1" d="M-14.73,321.9a3,3,0,0,1,0-1.11c1.1-3,2.3-6,5.13-7.6,3.51-2,6.53-.32,9.26,1.94,4.55,3.77,9.06,7.59,13.59,11.38,1,.81,2,1.58,2.9,2.43,2.22,2,2.75,4.26,1.61,6.56-1,2-3.06,2.84-5.94,2a136.13,136.13,0,0,1-16.3-6.24,33.55,33.55,0,0,1-6.8-3.79A9.05,9.05,0,0,1-14.73,321.9Z" transform="translate(37.26 45.92)"/><path class="b26c7712-1217-47bd-b41e-2f577ec5d3c1" d="M-19.27,297.06c-.67,1.86-2.19,3.32-1.83,5,.42,2,2.82,1.59,4.23,2.48a9,9,0,0,1,4,5.36c.4,1.42-4.57,9.53-6,9.84a9.91,9.91,0,0,1-9.85-4.23C-34,307.39-29.41,298.22-19.27,297.06Z" transform="translate(37.26 45.92)"/></g><path class="b26c7712-1217-47bd-b41e-2f577ec5d3c1" d="M3.08,46.31c-2.38-1.38-4.78-.8-7-1a43.08,43.08,0,0,1-16-4c-2.33-1.15-2.16-6,.26-7.92,1.55-1.25,3.09-1.56,4.86-.36A35,35,0,0,0,.32,38.38a30.56,30.56,0,0,0,18.39-3.55A47.05,47.05,0,0,0,28,28.72c2.68-2.31,5-1.92,6.91,1.15.79,1.27.74,2.78,1,4.21.33,1.88-1.19,2.28-2.19,3.1-4.51,3.69-9.81,5.6-15.43,6.84a28.37,28.37,0,0,1-4.47.83c-.72,0-1.51.31-1.57,1s.88.8,1.42,1c4.7,1.61,8.95,3.87,11.93,8A19.44,19.44,0,0,1,29.1,67.56a43.27,43.27,0,0,1-.48,5.32c-.43,2.37-.65,2.58-2.9,2.1-7-1.48-10.59-6.28-12.95-12.61-1.06-2.84-1.37-5.88-2.62-8.63-.22-.49-.49-1.39-1.26-1.15s-1,.93-1.07,1.82c-.29,5-.73,10-2.39,14.76C3.14,75.74-.58,81.2-7,84.48c-1,.53-1.16-.16-1.48-.7a20.9,20.9,0,0,1-1.84-5.42A26.4,26.4,0,0,1-8.93,59.88c2.32-5,6.1-8.64,10.15-12.11C1.74,47.33,2.29,46.93,3.08,46.31Z" transform="translate(37.26 45.92)"/><path class="b26c7712-1217-47bd-b41e-2f577ec5d3c1" d="M603.08,46.31c-2.38-1.38-4.78-.8-7-1a43.08,43.08,0,0,1-16-4c-2.33-1.15-2.16-6,.26-7.92,1.55-1.25,3.09-1.56,4.86-.36a35,35,0,0,0,15.16,5.36,30.56,30.56,0,0,0,18.39-3.55A47.05,47.05,0,0,0,628,28.72c2.68-2.31,5-1.92,6.91,1.15.79,1.27.74,2.78,1,4.21.33,1.88-1.19,2.28-2.19,3.1-4.51,3.69-9.81,5.6-15.43,6.84a28.37,28.37,0,0,1-4.47.83c-.72,0-1.51.31-1.57,1s.88.8,1.42,1c4.7,1.61,9,3.87,11.93,8a19.44,19.44,0,0,1,3.54,12.67,43.27,43.27,0,0,1-.48,5.32c-.43,2.37-.65,2.58-2.9,2.1-7-1.48-10.59-6.28-13-12.61-1.06-2.84-1.37-5.88-2.62-8.63-.22-.49-.49-1.39-1.26-1.15s-1,.93-1.07,1.82c-.29,5-.73,10-2.39,14.76-2.29,6.57-6,12-12.42,15.31-1,.53-1.16-.16-1.48-.7a20.9,20.9,0,0,1-1.84-5.42,26.4,26.4,0,0,1,1.38-18.48c2.32-5,6.1-8.64,10.15-12.11C601.74,47.33,602.29,46.93,603.08,46.31Z" transform="translate(37.26 45.92)"/></g></g></g></svg>