<svg xmlns="http://www.w3.org/2000/svg" viewBox="0 0 279.23 476.89"><defs><style>.b8584d77-1d1c-4548-9fae-57b5201bf62e{fill:#566271;}.ace52dd2-becc-4d4d-a867-b847524a1b74{fill:#c44d58;}</style></defs><g id="b523edd0-ae6d-485b-9de9-89b3eccdf00d" data-name="Layer 2"><g id="fbd88dfc-c7a8-41a9-aebd-1ea6df057b44" data-name="Layer 1"><path class="b8584d77-1d1c-4548-9fae-57b5201bf62e" d="M150.4,178.1q-12.06-11.21-37.89-11.2-48.21,0-88.4,33.87Q0,181.83,0,150.25,0,122.7,31.29,102t87-20.66q66,0,97.59,30.42t31.58,78.65q0,45.92-25.84,76.63t-83.23,38.18l5.16,56.25q-8.61,10.92-38.46,10.91-15.49,0-25-8.32a31.18,31.18,0,0,1-10.62-21.53L66,287.45q-1.15-19.51,8-31a197.81,197.81,0,0,0,26.7-3.15,230.94,230.94,0,0,0,28.41-7.18q14.35-4.59,23.82-13.49t9.48-19.8Q162.46,189.28,150.4,178.1ZM110.79,394.23q41.34,0,41.33,41.33t-41.33,41.33q-41.33,0-41.33-41.33T110.79,394.23Z"/><path class="ace52dd2-becc-4d4d-a867-b847524a1b74" d="M148.43,0c6.22,1.88,12.64,3,18.69,5.56,11.42,4.79,21.69,11.41,31.41,19a147,147,0,0,1,19.08,17.37c2.38,2.65,4.3,3.36,7.53,1.5,4.13-2.38,8.65-2.54,13.28-1.16,6.62,2,9.4,8.21,4.16,14.68-1.9,2.34-6.28,3.32-6,6.13.28,2.51,3.58,4.63,5.37,7,14.89,20.12,27.77,41.32,34.81,65.62,1.61,5.54,3.36,11,1.92,17.06s-7.39,10.05-13.52,8.09A38.47,38.47,0,0,1,251,152.64c-9.95-9-21.26-16.11-32.69-23-18.66-11.3-38.54-20.07-58.71-28.22-15-6.05-30.52-10.64-46-15.34-13.69-4.17-23.45-11.79-26.18-26.6,0-.21-.48-.35-.73-.51V45.42C89.25,36.74,91.93,28.25,97.86,21,105.12,12.14,113,4.54,124.4,1.3c1.9-.54,4.2.75,5.71-1.3Z"/></g></g></svg>