<svg xmlns="http://www.w3.org/2000/svg" xmlns:xlink="http://www.w3.org/1999/xlink" viewBox="0 0 1226.02 1215.12"><defs><style>.ffc3034d-1656-4fff-98ec-ad95a8df2a06{fill:#b44551;}.f4bafb4f-36d5-41b2-ac2e-66bf3ea782a6{fill:none;}.fa537336-4b13-4cd9-a66f-8b18203c5775{clip-path:url(#a7f56bdc-a34e-47e8-95ea-400ba11f3c96);}.e3b04446-37b9-4bec-8c5a-f106ccc499be{fill:#c44d58;}</style><clipPath id="a7f56bdc-a34e-47e8-95ea-400ba11f3c96" transform="translate(66.36 81.79)"><rect class="ffc3034d-1656-4fff-98ec-ad95a8df2a06" width="1068.76" height="1068.76"/></clipPath></defs><g id="b851b5f9-1499-4927-bb02-b679e7e9a7ec" data-name="Layer 2"><g id="ad080e0c-65ee-4086-836a-21272677736e" data-name="Layer 1"><rect class="f4bafb4f-36d5-41b2-ac2e-66bf3ea782a6" x="66.36" y="81.79" width="1068.76" height="1068.76"/><rect class="ffc3034d-1656-4fff-98ec-ad95a8df2a06" x="66.36" y="81.79" width="1068.76" height="1068.76"/><g class="fa537336-4b13-4cd9-a66f-8b18203c5775"><g id="a026f4ae-4888-49ac-8cc6-dd65ca7b1092" data-name="faAsWI"><path class="e3b04446-37b9-4bec-8c5a-f106ccc499be" d="M862.54,356.29a8.38,8.38,0,0,1,3.35,5.22c2.79,10.73,5.51,21.48,8.41,32.18.59,2.17,0,2.82-2,3.33-13.2,3.31-26.35,6.84-39.56,10.12a53.17,53.17,0,0,1-33-2.29c-3.77-1.47-4.42-4-1.85-7.13a54.37,54.37,0,0,1,29.39-18.41c9.25-2.34,18.48-4.78,27.73-7.13,1.85-.47,3.41-.66,2.69-3.47s-2.22-2.14-4-1.66c-5.7,1.5-11.46,2.77-17.1,4.48-3.82,1.16-4.55-.91-5.29-3.82s-1.19-5,2.74-5.92c7.52-1.7,15-3.79,22.43-5.72A9,9,0,0,1,862.54,356.29Z" transform="translate(66.36 81.79)"/><path class="e3b04446-37b9-4bec-8c5a-f106ccc499be" d="M897,388.07a10.88,10.88,0,0,1-6.91,4.32c-3.26.73-7.21,2.95-9.6,1.82s-2.1-5.95-3-9.13c-1.41-5-2.55-10-4-15-.54-1.89-.26-2.77,1.79-3.19,3.29-.67,6.5-1.73,9.79-2.38,3.46-.68,6.64.18,8.09,3.64a63.74,63.74,0,0,1,4.31,16.6A11.24,11.24,0,0,1,897,388.07Z" transform="translate(66.36 81.79)"/></g><g id="f196651a-4488-4620-9602-3cbd7368bd1a" data-name="otP480"><path class="e3b04446-37b9-4bec-8c5a-f106ccc499be" d="M656.21,408.53c0-8.14-.05-16.28,0-24.42.07-9.37,6.52-15.86,15.88-15.89,16.42-.06,32.85,0,49.27-.07,4,0,5.58,1.51,5.56,5.48q-.13,24.62,0,49.25c0,3.42-2.37,6.24-1.86,9.77.44,3,0,6,1.38,9,2,4.37-.26,7.3-5.18,7.31q-24.64.06-49.28,0c-9.32,0-15.71-6.57-15.77-16C656.17,424.81,656.21,416.67,656.21,408.53Zm36.55,20.22c-6.87,0-13.73,0-20.6,0-3.4,0-5.87,1.53-5.81,5.16s2.49,5.07,5.94,5h37c6.83,0,6.63,0,7.13-6.84.23-3.07-.9-3.47-3.47-3.42C706.21,428.84,699.48,428.75,692.76,428.75Zm.9-35.28c5,0,10.08-.05,15.13,0,2,0,3.15-.28,3.09-2.7,0-2.19-1.08-2.5-2.88-2.5q-14.93.07-29.84,0c-1.8,0-2.84.31-2.89,2.49,0,2.43,1.13,2.75,3.1,2.71C684.13,393.42,688.89,393.47,693.66,393.47Zm.52,10.1c5,0,10.08,0,15.13,0,1.72,0,2.55-.49,2.55-2.38s-.39-2.84-2.54-2.83c-10.09.08-20.18.06-30.26,0-1.9,0-2.78.5-2.78,2.59s.85,2.64,2.76,2.61C684.09,403.52,689.13,403.58,694.18,403.57Z" transform="translate(66.36 81.79)"/></g><g id="af469d4b-1061-49b1-bd13-34ef3aab6a58" data-name="7VvAr8"><path class="e3b04446-37b9-4bec-8c5a-f106ccc499be" d="M659,166.29a10.69,10.69,0,0,1-6.62-5.6c-1.29-3-3.43-4-6.17-4.88-9.42-3-18.8-6.15-28.17-9.3-2.37-.79-4.3-1.12-6.92.2a11.4,11.4,0,0,1-15.81-5.53c-2.66-5.72-.29-12.31,5.88-15.33a5.74,5.74,0,0,0,3.39-3.75q5.12-15.73,10.4-31.42a5.81,5.81,0,0,0-.46-5.05c-3.16-6.11-1.15-12.79,4.38-15.82a11.48,11.48,0,0,1,16,5,7.64,7.64,0,0,0,4.92,4.17c10,3.24,20,6.58,30,9.93a6.32,6.32,0,0,0,5.53-.27c5.1-2.65,10.09-1.81,13.71,1.66a11.92,11.92,0,0,1,2.69,13.18c-2.13,4.69-6.35,7.26-12,7-6.5-.36-10.9,4.81-12.37,8.72-2,5.39-6.14,11.16-3.3,18.1,1.43,3.48,2.17,6.68,5.71,9,4.53,3,5.51,9.63,3,14.2A12.07,12.07,0,0,1,659,166.29Zm10.53-65.19c-12.55-4.15-24-8.21-35.64-11.61-3-.88-6.41.81-7.63,4.47-3.6,10.78-7.22,21.54-10.68,32.36a6.27,6.27,0,0,0,3.62,8.05c11.36,4.17,22.94,7.76,35.23,11.83-1.8-6.48-1-12.66-7.42-16.46-4.14-2.44-4.83-7.39-3.38-12,1.52-4.79,5.11-8.48,10.1-7.94C661.23,110.64,664,104.84,669.51,101.1ZM623.89,82.92c1.62.22,3-.31,3.47-1.89a2.9,2.9,0,1,0-5.58-1.49A2.87,2.87,0,0,0,623.89,82.92Zm56.62,18.74a3,3,0,0,0,3.23-2,2.9,2.9,0,1,0-5.59-1.49C677.85,99.79,678.66,101,680.51,101.66Zm-23,20.68a2.88,2.88,0,0,0-1.52-3.7,2.74,2.74,0,0,0-4,1.62,2.68,2.68,0,0,0,1.49,3.64C655.29,124.71,656.65,123.94,657.54,122.34Zm-54.39,13.24c-.24,1.62.26,3,1.84,3.51a2.91,2.91,0,1,0,1.57-5.58A2.89,2.89,0,0,0,603.15,135.58ZM661.87,158a3,3,0,0,0,3.24-2,2.9,2.9,0,1,0-5.59-1.49C659.21,156.1,660,157.3,661.87,158Z" transform="translate(66.36 81.79)"/></g><g id="fb6e43dd-bd94-42e9-9a90-4bf8e8fab17a" data-name="7VvAr8"><path class="e3b04446-37b9-4bec-8c5a-f106ccc499be" d="M617.51,967.2a10.66,10.66,0,0,1-8-3.24c-2.16-2.43-4.51-2.71-7.39-2.69-9.89.1-19.78.07-29.67,0-2.49,0-4.43.29-6.51,2.37a11.39,11.39,0,0,1-16.74-.29c-4.32-4.59-4.14-11.59.77-16.39a5.81,5.81,0,0,0,2-4.64q-.09-16.55,0-33.09a5.82,5.82,0,0,0-2-4.65c-4.92-4.8-5.11-11.78-.81-16.39a11.49,11.49,0,0,1,16.77-.34,7.68,7.68,0,0,0,6,2.42c10.55-.08,21.1-.06,31.64,0a6.3,6.3,0,0,0,5.17-2c4-4.12,9-4.89,13.54-2.73a11.89,11.89,0,0,1,6.69,11.67c-.55,5.12-3.74,8.88-9.21,10.37-6.28,1.71-8.84,8-9,12.17-.24,5.75-2.32,12.53,2.56,18.21,2.45,2.86,4.15,5.67,8.25,6.78,5.25,1.44,8.26,7.41,7.33,12.53C627.83,962.84,622.9,967.16,617.51,967.2ZM607,902c-13.23,0-25.37-.26-37.49.17-3.15.12-5.83,2.78-5.84,6.64,0,11.36-.09,22.72,0,34.08a6.28,6.28,0,0,0,6,6.51c12.09.38,24.2.15,37.16.15-3.76-5.58-4.9-11.71-12.23-13.29-4.68-1-6.9-5.5-7-10.31-.06-5,2.2-9.65,7.1-10.71C602.16,913.66,602.93,907.3,607,902Zm-49-2.93c1.61-.3,2.71-1.22,2.7-2.89a2.89,2.89,0,1,0-5.76.34A2.87,2.87,0,0,0,558,899.08Zm59.64,0a3,3,0,0,0,2.45-2.89,2.9,2.9,0,1,0-5.78.34C614.53,898.14,615.68,899,617.64,899.08Zm-15.31,26.85a2.89,2.89,0,0,0-2.61-3,2.74,2.74,0,0,0-3.24,2.79,2.68,2.68,0,0,0,2.55,3C600.93,928.89,602,927.73,602.33,925.93Zm-47.47,29.66c.27,1.61,1.17,2.73,2.84,2.75a2.9,2.9,0,1,0-.26-5.78A2.87,2.87,0,0,0,554.86,955.59Zm62.78,2.81a3,3,0,0,0,2.45-2.89,2.9,2.9,0,1,0-5.78.34C614.53,957.46,615.68,958.34,617.64,958.4Z" transform="translate(66.36 81.79)"/></g><g id="a8e1b149-1b16-45c6-9edf-ab053bd23c7e" data-name="BQRE4H"><path class="e3b04446-37b9-4bec-8c5a-f106ccc499be" d="M814.13,970.65q-13.95-5.5-27.88-11c-7-2.77-8.59-6.32-5.91-13.13q7.38-18.79,14.83-37.56c2.66-6.67,6.28-8.25,12.9-5.7a32.86,32.86,0,0,1,3.53,1.41c4.33,2.27,8.19,3.56,11.75-1.66,1.77-2.58,5.21-2.47,8.18-1.32q8.67,3.36,17.28,6.82c4.29,1.73,5.78,5.16,5.36,9.47-.26,2.65.6,4,3.23,4.83a72,72,0,0,1,9,3.55c4.67,2.11,6.46,6,4.63,10.7Q863.2,957.46,855,977.73c-2,5-6.09,6.57-11.41,4.53C833.73,978.46,823.94,974.52,814.13,970.65ZM817.9,960a18.88,18.88,0,0,0,25-9.86c4.27-9.49-.12-20.5-10-24.92-9.53-4.28-20.55.08-24.95,9.87C803.69,944.52,808.11,955.57,817.9,960Z" transform="translate(66.36 81.79)"/><path class="e3b04446-37b9-4bec-8c5a-f106ccc499be" d="M838.12,947.64c-3,7.45-10.46,10.61-18,7.55-7.26-3-10.39-10.34-7.5-17.65s10.49-10.61,18-7.55A13.2,13.2,0,0,1,838.12,947.64Z" transform="translate(66.36 81.79)"/></g><g id="e106635e-3d85-4296-9c53-54a2227a8e14" data-name="cH71Ww"><path class="e3b04446-37b9-4bec-8c5a-f106ccc499be" d="M358.55,530.11c0,8.68-.1,17.37,0,26a8.94,8.94,0,0,1-4.3,8.09c-6,4-15.69,3.92-21.49-.25-5.15-3.7-5.22-9.64,0-13.25a16.33,16.33,0,0,1,12.75-3c2.71.52,3.5-.27,3.47-2.89-.09-7.71-.14-15.41,0-23.11.06-3-1.06-3.16-3.5-2.43-11.52,3.44-23.06,6.84-34.64,10.1-2.42.68-2.9,2-2.88,4.26.09,10.65-.11,21.3.11,31.94a9.5,9.5,0,0,1-6,9.61c-6.38,2.94-12.85,2.86-19-.66-6.37-3.65-6.31-10.7,0-14.41,3.57-2.09,7.55-3.25,11.68-2.36,3,.66,3.66-.39,3.64-3.12-.09-11.48-.05-23,0-34.46,0-6.41.71-7.27,6.89-9.08Q327.69,504.62,350,498c6.29-1.84,8.51-.15,8.52,6.45Q358.57,517.29,358.55,530.11Z" transform="translate(66.36 81.79)"/></g><path class="e3b04446-37b9-4bec-8c5a-f106ccc499be" d="M1053,198.82c3.76,2.29,7.79,4.13,11.34,6.82a93.06,93.06,0,0,1,17.41,17.83,98.76,98.76,0,0,1,9.6,14.65c1.11,2.14,2.25,2.93,4.69,2.26a11.1,11.1,0,0,1,8.92,1.49c4,2.43,4.79,7,.24,10.36-1.64,1.21-4.68,1.11-5,3-.25,1.69,1.57,3.65,2.33,5.54,6.38,15.75,11.24,31.87,11.74,49,.12,3.92.35,7.8-1.63,11.54a7.22,7.22,0,0,1-10.25,3,26.17,26.17,0,0,1-7.92-7.83c-5-7.6-11.23-14.2-17.57-20.68-10.35-10.59-21.93-19.73-33.8-28.5-8.83-6.53-18.25-12.18-27.62-17.89-8.29-5.06-13.41-11.73-12.69-21.92,0-.15-.25-.31-.39-.46l2.29-8.9c3.14-5.27,6.34-10.39,11.47-14.15,6.27-4.59,12.76-8.25,20.78-8.45,1.34,0,2.64,1.21,4,.12Z" transform="translate(66.36 81.79)"/><path class="e3b04446-37b9-4bec-8c5a-f106ccc499be" d="M613.14,256.68c2.55-3.6,4.66-7.49,7.58-10.85a93.43,93.43,0,0,1,19-16.17A99.1,99.1,0,0,1,655,221.09c2.22-1,3.08-2.06,2.57-4.53a11.08,11.08,0,0,1,2.1-8.8c2.7-3.84,7.3-4.3,10.34.46,1.1,1.72.8,4.75,2.67,5.16,1.68.36,3.75-1.32,5.69-2,16.15-5.28,32.56-9,49.72-8.38,3.91.15,7.8.18,11.4,2.41a7.24,7.24,0,0,1,2.32,10.44,26,26,0,0,1-8.36,7.36c-7.92,4.48-14.92,10.25-21.82,16.13-11.27,9.61-21.17,20.54-30.73,31.79-7.11,8.37-13.39,17.38-19.72,26.34-5.61,7.93-12.61,12.58-22.73,11.17-.15,0-.33.23-.49.36l-8.72-2.89c-5-3.49-9.94-7-13.34-12.4-4.16-6.57-7.36-13.29-7-21.31.06-1.34,1.38-2.54.39-4Z" transform="translate(66.36 81.79)"/><path class="e3b04446-37b9-4bec-8c5a-f106ccc499be" d="M-15.81,198.82C-12,201.11-8,203-4.47,205.64A92.82,92.82,0,0,1,13,223.47a97.91,97.91,0,0,1,9.59,14.65c1.11,2.14,2.26,2.93,4.7,2.26a11.11,11.11,0,0,1,8.92,1.49c4,2.43,4.79,7,.24,10.36-1.64,1.21-4.69,1.11-5,3-.25,1.69,1.56,3.65,2.33,5.54,6.37,15.75,11.24,31.87,11.74,49,.12,3.92.35,7.8-1.63,11.54a7.23,7.23,0,0,1-10.26,3,26.25,26.25,0,0,1-7.91-7.83c-5-7.6-11.24-14.2-17.57-20.68-10.35-10.59-21.93-19.73-33.8-28.5-8.84-6.53-18.26-12.18-27.62-17.89-8.29-5.06-13.41-11.73-12.69-21.92,0-.15-.26-.31-.39-.46l2.29-8.9c3.14-5.27,6.34-10.39,11.47-14.15,6.27-4.59,12.76-8.25,20.78-8.45,1.34,0,2.63,1.21,4,.12Z" transform="translate(66.36 81.79)"/><path class="e3b04446-37b9-4bec-8c5a-f106ccc499be" d="M554,670.06c-8.15,12-19.84,15.83-32.87,15.9-9.66,0-18.88-2.43-26.31-9.28-8.05-7.42-12.26-21.27-4.39-30.86a17.27,17.27,0,0,1,8.41-6.06c1-.3,1.76-1,2.62.09a2.16,2.16,0,0,1,0,2.79c-.72,1.06-1.41,2.14-2.06,3.24-1.9,3.21-2.25,6.61.33,9.4,2.3,2.49,5.63,3.05,9,2.63,6-.73,10.85-3.81,15.81-6.91s10-5.2,16-5.08a16.83,16.83,0,0,1,11.89,5c1.52,1.46,2.36,2.59,4.54.4,8.16-8.17,19.28-6.06,27.1-1,4.75,3.07,9.3,6.39,15.11,7.48,4.39.83,7.85-.19,10.65-3.52,2.59-3.07,2.19-6.23.24-9.53-.9-1.53-2.2-3.49-.25-5.06,1.74-1.41,3.23.53,4.51,1.25,9.46,5.36,11.37,17.41,4.47,27.87-6.59,10-15.94,15-27.81,16.6-10.19,1.33-19.53-.07-28.17-5.46C559.19,677.6,555.86,674.65,554,670.06Z" transform="translate(66.36 81.79)"/><rect class="e3b04446-37b9-4bec-8c5a-f106ccc499be" x="453.98" y="733.16" width="5.85" height="24.49" transform="translate(-192.48 325.09) rotate(-23.44)"/><rect class="e3b04446-37b9-4bec-8c5a-f106ccc499be" x="391.85" y="748.2" width="60.96" height="24.49" transform="translate(-201.24 312.48) rotate(-23.44)"/><path class="e3b04446-37b9-4bec-8c5a-f106ccc499be" d="M473.24,751.84a7.06,7.06,0,0,0,3.68-9.32l-4.07-9.39a7.06,7.06,0,0,0-9.32-3.68l-4.7,2,9.87,22.75Z" transform="translate(66.36 81.79)"/><path class="e3b04446-37b9-4bec-8c5a-f106ccc499be" d="M371.28,780.39a2.15,2.15,0,0,0-.3,2.28,2.12,2.12,0,0,0,1.09,1l.77.3,22.18.68-9.08-20.94Z" transform="translate(66.36 81.79)"/><path class="e3b04446-37b9-4bec-8c5a-f106ccc499be" d="M922.89,918.22a2.66,2.66,0,0,0,2.88-2.43,2.7,2.7,0,0,1,5.38.45,2.66,2.66,0,0,0,2.43,2.88,2.12,2.12,0,0,0,.44,0,2.65,2.65,0,0,0,2.44-2.42,8,8,0,0,0-16-1.31A2.66,2.66,0,0,0,922.89,918.22Z" transform="translate(66.36 81.79)"/><path class="e3b04446-37b9-4bec-8c5a-f106ccc499be" d="M950.78,909.91a8,8,0,0,0-8.65,7.29,2.66,2.66,0,0,0,5.3.53.25.25,0,0,1,0-.08,2.7,2.7,0,0,1,5.38.45,2.66,2.66,0,0,0,2.42,2.88,2.28,2.28,0,0,0,.45,0,2.66,2.66,0,0,0,2.43-2.42A8,8,0,0,0,950.78,909.91Z" transform="translate(66.36 81.79)"/><path class="e3b04446-37b9-4bec-8c5a-f106ccc499be" d="M938.38,927.31a16.67,16.67,0,0,0-15.72,8.16,2.66,2.66,0,1,0,4.6,2.69,11.23,11.23,0,0,1,20.23,1.7,2.66,2.66,0,1,0,5-1.87h0A16.67,16.67,0,0,0,938.38,927.31Z" transform="translate(66.36 81.79)"/><path class="e3b04446-37b9-4bec-8c5a-f106ccc499be" d="M985.36,875A8,8,0,0,0,974,884.48a2.66,2.66,0,0,0,5.09-1.58,2.68,2.68,0,0,1,5.11-1.59,2.66,2.66,0,1,0,5.08-1.59A8,8,0,0,0,985.36,875Z" transform="translate(66.36 81.79)"/><path class="e3b04446-37b9-4bec-8c5a-f106ccc499be" d="M999,856.59a2.64,2.64,0,0,0-2.23-1.8,83.07,83.07,0,0,0-63.86,19.9,2.63,2.63,0,0,0-.84,2.75l.85,2.7c.75,2.64,1.5,5.35,2.4,8.12a82.64,82.64,0,0,0-27.5,4.37,2.67,2.67,0,0,0-1.78,2.29l-.31,2.71c-1.69,15.51-3.8,34.81,8.67,51.62a29.44,29.44,0,0,0,21.12,11.81A29.34,29.34,0,0,0,958.29,953a50.79,50.79,0,0,0,14.05-24.3,29.17,29.17,0,0,0,30.13-17.19c8.6-19.09,2.39-37.47-2.6-52.24ZM954.6,949.14a24,24,0,0,1-33.86-.65,22.43,22.43,0,0,1-2-2.43C907.44,931,909.42,912.8,911,898.22l.11-1.08a77.75,77.75,0,0,1,59.19,5.07l-.07,1.07C969.39,917.94,968.26,936.14,954.6,949.14Zm43-39.84a24,24,0,0,1-24.13,14.17,124.6,124.6,0,0,0,1.75-14.54c.42,0,.85,0,1.27,0a16.55,16.55,0,0,0,14.38-11,2.67,2.67,0,0,0-5-1.73,11.16,11.16,0,0,1-10.22,7.49l.17-2.73a2.65,2.65,0,0,0-1.44-2.55A82.32,82.32,0,0,0,958,891.58a2.57,2.57,0,0,0,.05-1.71,2.68,2.68,0,0,1,5.11-1.59h0a2.66,2.66,0,0,0,5.09-1.58h0a8,8,0,0,0-15.55,3.53,82.51,82.51,0,0,0-11.81-1.78c-1.1-3.35-2-6.63-2.93-9.81l-.3-1a77.77,77.77,0,0,1,56.8-17.66l.35,1c4.68,13.89,10.51,31.17,2.78,48.36Z" transform="translate(66.36 81.79)"/><g id="adf59698-665f-4023-9620-47205a886e29" data-name="FsgmBF"><path class="e3b04446-37b9-4bec-8c5a-f106ccc499be" d="M359.49,849.58a3.1,3.1,0,0,1-.74,3.66c-6.09,6.16-6.57,9.34-2.77,17,.41.84.84,1.66,1.25,2.49-.13.12-.26.31-.31.29-4.48-1.72-9-1.39-13.55-.32-8.78,2.09-16-.36-22.23-6.8-4.52-4.7-5.38-5.06-11.8-7.41l3.28-1.82c6.94-3.91,8.57-7.42,6.87-15.24-.34-1.58-.26-2.81,1.24-3.67Z" transform="translate(66.36 81.79)"/><path class="e3b04446-37b9-4bec-8c5a-f106ccc499be" d="M355.39,893.91c-4.68-4-10-4.32-15.57-3.4-2,.33-4,.63-5.94,1A17.35,17.35,0,0,1,319,887c-2.3-2-4.54-4.17-6.89-6.16a15.8,15.8,0,0,0-11.05-4c-1.14,0-1.66-.06-1.31-1.47a58.48,58.48,0,0,1,3.82-10.72c.85-1.78,2-2.26,3.9-2.14a13.54,13.54,0,0,1,8.1,3.58c2.12,1.83,4.12,3.79,6.25,5.59A22.9,22.9,0,0,0,340,877.17c2.7-.32,5.39-.78,8.08-1.13a14.88,14.88,0,0,1,6,.29c4.46,1.23,5.37,2.72,4.63,7.25A35.06,35.06,0,0,1,355.39,893.91Z" transform="translate(66.36 81.79)"/><path class="e3b04446-37b9-4bec-8c5a-f106ccc499be" d="M344.08,909.21a18.56,18.56,0,0,0-8.68-.56c-2.56.35-5.1.81-7.65,1.17a16.85,16.85,0,0,1-13.8-4c-2-1.71-3.92-3.55-5.89-5.34a18.06,18.06,0,0,0-8.74-4.79c-1.07-.21-1.36-.73-1.34-1.74,0-3.8.28-7.59.6-11.37.11-1.25.65-1.69,1.89-1.76,4.09-.23,7.37,1.44,10.22,4.18a48.51,48.51,0,0,0,8.78,7.21,25.74,25.74,0,0,0,17.44,3c3.32-.51,6.6-1.48,10-.9a12.92,12.92,0,0,1,1.89.39c4.75,1.58,5.26,2.83,2.82,7.1-1.1,1.92-2.35,3.76-3.48,5.67S346.05,910.84,344.08,909.21Z" transform="translate(66.36 81.79)"/><path class="e3b04446-37b9-4bec-8c5a-f106ccc499be" d="M315.07,926.16c-4-1.21-7.95-2.45-11.94-3.61a2.74,2.74,0,0,1-2.2-2.29,134.24,134.24,0,0,1-2.68-19.13c-.12-1.84.46-1.94,1.91-1.32a20.34,20.34,0,0,1,6.16,4.59c4.52,4.44,9.48,8.09,16,9.12a35.31,35.31,0,0,0,12.17-.6,19.74,19.74,0,0,1,7.88-.32c1.42.3,1.61.76.7,2a121.28,121.28,0,0,1-12.91,14.64,2.59,2.59,0,0,1-2.91.66C323.18,928.58,319.12,927.39,315.07,926.16Z" transform="translate(66.36 81.79)"/></g><path class="e3b04446-37b9-4bec-8c5a-f106ccc499be" d="M730.49,854.41l6.78,5.44a2.57,2.57,0,0,0,4-1l4-9.09a2.64,2.64,0,0,0-.71-3l-9.32-8.23a18.25,18.25,0,0,0-10.49-4.34l-5-.28-9.93-4.38-.1-1.26A7.37,7.37,0,0,0,713.46,818a7.65,7.65,0,0,0-4.56-3.66,7.24,7.24,0,0,0-7.1,2.07,7.76,7.76,0,0,0-1.94,5.92l0,.35a1.17,1.17,0,0,0,1.24,1.05l2-.16a1.16,1.16,0,0,0,1-1.24l0-.57a3.25,3.25,0,0,1,.95-2.5,3,3,0,0,1,2.59-.79,2.84,2.84,0,0,1,2.35,2,3,3,0,0,1-2,3.85A3.68,3.68,0,0,0,705.4,828l.15,1.83-9.2,5.94-5,1.1a17.55,17.55,0,0,0-9.65,6l-8,9.76a2.78,2.78,0,0,0-.21,3.12l5.41,8.32a2.69,2.69,0,0,0,4.18.36l5.81-6.47,5.8,17.51a9.93,9.93,0,0,1,.06,6.33L683.54,919.1a4.67,4.67,0,0,0,4.87,6l53.7-4.37a4.67,4.67,0,0,0,3.83-6.77l-17.38-35.12a10.72,10.72,0,0,1-1-6.26Zm-22.58-21.1,6.69,2.91L711.05,845a2.42,2.42,0,0,1-4.35.36l-4.93-8.13Z" transform="translate(66.36 81.79)"/><g id="fd11977c-efbf-4db7-8a62-ddf611efaeea" data-name="xjPlSa"><path class="e3b04446-37b9-4bec-8c5a-f106ccc499be" d="M582.9,781.57a5.13,5.13,0,0,1-.71,1.86c-3.79,4.12-7.79,8.27-13.57,9.08-7.14,1-11-3.86-14-9.42-5-9.27-9.85-18.6-14.77-27.91-1-2-2.19-3.92-3.16-5.95-2.31-4.82-1.67-8.88,1.77-11.91,2.91-2.57,6.94-2.63,11.12.73a238.75,238.75,0,0,1,22.7,21.26A59.46,59.46,0,0,1,581,770.12,16.07,16.07,0,0,1,582.9,781.57Z" transform="translate(66.36 81.79)"/><path class="e3b04446-37b9-4bec-8c5a-f106ccc499be" d="M573.7,825.6c2.35-2.61,5.85-4,6.4-7,.64-3.56-3.59-4.52-5.32-6.94a16,16,0,0,1-2.92-11.5c.28-2.61,13.94-12.65,16.51-12.19,6.4,1.16,12.18,7,13.42,13.59C605,818.47,591.21,830.51,573.7,825.6Z" transform="translate(66.36 81.79)"/></g><g id="b0a3911d-58f0-4fef-a3eb-17c88381c2b6" data-name="faAsWI"><path class="e3b04446-37b9-4bec-8c5a-f106ccc499be" d="M179,958a8.37,8.37,0,0,1,4.13,4.63c4.42,10.16,8.77,20.36,13.3,30.48.92,2.06.45,2.78-1.49,3.61-12.53,5.32-25,10.85-37.51,16.15a53.24,53.24,0,0,1-33,2.87c-4-.88-5-3.29-2.94-6.76a54.44,54.44,0,0,1,26.17-22.76c8.78-3.74,17.51-7.59,26.28-11.35,1.76-.75,3.28-1.18,2.13-3.84s-2.53-1.77-4.24-1c-5.4,2.37-10.9,4.52-16.2,7.09-3.59,1.74-4.63-.2-5.82-3s-2-4.79,1.78-6.28c7.17-2.85,14.19-6.07,21.28-9.14A9,9,0,0,1,179,958Z" transform="translate(66.36 81.79)"/><path class="e3b04446-37b9-4bec-8c5a-f106ccc499be" d="M217.93,984a10.8,10.8,0,0,1-6.15,5.33c-3.11,1.23-6.67,4-9.2,3.3s-3-5.55-4.38-8.56c-2.17-4.71-4.09-9.52-6.27-14.22-.82-1.78-.69-2.7,1.27-3.43,3.15-1.17,6.15-2.72,9.3-3.87,3.32-1.2,6.59-.86,8.57,2.34a64.24,64.24,0,0,1,6.83,15.72A11,11,0,0,1,217.93,984Z" transform="translate(66.36 81.79)"/></g><g id="ab0ddc83-9d9d-47da-9027-72cd3fd6379b" data-name="otP480"><path class="e3b04446-37b9-4bec-8c5a-f106ccc499be" d="M901.9,1040.57c1.12-8.06,2.19-16.13,3.37-24.18,1.36-9.27,8.64-14.81,17.91-13.56,16.28,2.2,32.53,4.57,48.82,6.72,3.91.52,5.31,2.26,4.75,6.18q-3.53,24.38-6.78,48.79c-.45,3.39-3.21,5.85-3.18,9.42,0,3-.85,5.91.12,9.09,1.41,4.62-1.26,7.21-6.14,6.54q-24.4-3.35-48.8-6.79c-9.23-1.32-14.66-8.66-13.42-18C899.61,1056.69,900.78,1048.64,901.9,1040.57Zm33.42,25.06c-6.8-.94-13.6-1.91-20.4-2.82-3.38-.45-6,.71-6.47,4.3s1.77,5.37,5.18,5.82c1,.12,2,.27,2.92.4l33.72,4.69c6.76.94,6.57.9,8-5.8.65-3-.41-3.55-3-3.86C948.63,1067.57,942,1066.56,935.32,1065.63Zm5.74-34.82c5,.69,10,1.34,15,2.11,2,.3,3.16.15,3.44-2.26.25-2.17-.73-2.62-2.51-2.86q-14.79-2-29.56-4.11c-1.78-.26-2.85-.09-3.2,2.07-.39,2.39.74,2.87,2.69,3.11C931.63,1029.45,936.34,1030.15,941.06,1030.81Zm-.88,10.08c5,.7,10,1.35,15,2.1,1.7.26,2.6-.13,2.85-2s0-2.87-2.12-3.15q-15-2-30-4.16c-1.87-.27-2.82.12-3.11,2.19s.49,2.73,2.38,3C930.2,1039.45,935.19,1040.2,940.18,1040.89Z" transform="translate(66.36 81.79)"/></g><g id="bf330967-afd5-4711-8955-feafabc5f3e3" data-name="otP480"><path class="e3b04446-37b9-4bec-8c5a-f106ccc499be" d="M901.9-28.19c1.12-8.06,2.19-16.13,3.37-24.18,1.36-9.27,8.64-14.82,17.91-13.56,16.28,2.2,32.53,4.56,48.82,6.72,3.91.51,5.31,2.26,4.75,6.18Q973.22-28.65,970-4.24c-.45,3.39-3.21,5.85-3.18,9.42,0,3-.85,5.91.12,9.09,1.41,4.62-1.26,7.2-6.14,6.54Q936.37,17.46,912,14c-9.23-1.32-14.66-8.67-13.42-18C899.61-12.07,900.78-20.13,901.9-28.19ZM935.32-3.13c-6.8-.94-13.6-1.91-20.4-2.82-3.38-.45-6,.7-6.47,4.3s1.77,5.37,5.18,5.82c1,.12,2,.27,2.92.4l33.72,4.69c6.76.94,6.57.9,8-5.8.65-3-.41-3.56-3-3.86C948.63-1.19,942-2.21,935.32-3.13Zm5.74-34.82c5,.69,10,1.34,15,2.1,2,.3,3.16.16,3.44-2.25.25-2.17-.73-2.63-2.51-2.87q-14.79-2-29.56-4.1c-1.78-.26-2.85-.09-3.2,2.07-.39,2.39.74,2.87,2.69,3.11C931.63-39.32,936.34-38.61,941.06-37.95Zm-.88,10.08c5,.69,10,1.35,15,2.1,1.7.26,2.6-.13,2.85-2s0-2.87-2.12-3.15c-10-1.31-20-2.72-30-4.16-1.87-.27-2.82.12-3.11,2.19s.49,2.73,2.38,3C930.2-29.31,935.19-28.56,940.18-27.87Z" transform="translate(66.36 81.79)"/></g><g id="f556e77d-123c-4337-aea4-31ff24f86636" data-name="otP480"><path class="e3b04446-37b9-4bec-8c5a-f106ccc499be" d="M492.19,191.5c6.42-5,12.83-10,19.29-15,7.44-5.7,16.53-4.58,22.29,2.79,10.12,12.93,20.11,26,30.27,38.88,2.44,3.1,2.23,5.33-.91,7.74q-19.54,15-38.91,30.21c-2.68,2.11-6.38,1.95-8.85,4.53-2.1,2.18-4.73,3.64-6.26,6.6-2.21,4.28-5.92,4.28-8.95.39Q485,248.26,469.94,228.76c-5.69-7.39-4.45-16.44,3-22.27C479.3,201.45,485.76,196.49,492.19,191.5Zm6.44,41.27c-4.21-5.42-8.4-10.86-12.64-16.26-2.1-2.68-4.81-3.7-7.64-1.43s-2.47,5.08-.34,7.78c.61.77,1.2,1.55,1.8,2.33l20.88,26.89c4.19,5.39,4.08,5.23,9.78,1.43,2.56-1.7,2.19-2.83.57-4.83C506.81,243.45,502.76,238.08,498.63,232.77Zm28.42-20.93c3.09,4,6.22,7.94,9.26,12,1.18,1.57,2.15,2.31,4,.78,1.7-1.38,1.31-2.39.2-3.8q-9.19-11.74-18.3-23.57c-1.09-1.43-2-2.05-3.73-.76-2,1.45-1.48,2.57-.25,4.11C521.25,204.28,524.13,208.08,527.05,211.84Zm-7.67,6.61c3.1,4,6.22,8,9.27,12,1,1.37,2,1.73,3.44.56s2-2.05.68-3.74q-9.37-11.88-18.57-23.9c-1.15-1.5-2.1-1.88-3.75-.6s-1.56,2.29-.37,3.79C513.24,210.45,516.29,214.47,519.38,218.45Z" transform="translate(66.36 81.79)"/></g><g id="ef07917f-722f-45fa-adb6-5cd3c1c4df42" data-name="7VvAr8"><path class="e3b04446-37b9-4bec-8c5a-f106ccc499be" d="M587.73,375.71a10.72,10.72,0,0,1-8.62,1c-3.05-1.11-5.26-.24-7.77,1.16-8.64,4.81-17.35,9.5-26.06,14.18-2.2,1.19-3.76,2.38-4.59,5.19A11.41,11.41,0,0,1,525.84,405c-6-2-9.17-8.22-7.15-14.78a5.83,5.83,0,0,0-.42-5q-8-14.49-15.8-29.07a5.8,5.8,0,0,0-4-3.12c-6.62-1.88-10.12-7.92-8.54-14a11.48,11.48,0,0,1,14.58-8.3,7.69,7.69,0,0,0,6.41-.74q13.84-7.65,27.79-15.12a6.29,6.29,0,0,0,3.59-4.22c1.56-5.53,5.59-8.59,10.6-8.86a11.91,11.91,0,0,1,11.45,7.06c2,4.76.95,9.59-3.15,13.51-4.7,4.5-3.94,11.25-2.1,15,2.54,5.17,3.94,12.12,10.94,14.79,3.52,1.34,6.36,3,10.49,2,5.3-1.25,10.8,2.56,12.42,7.5A12.07,12.07,0,0,1,587.73,375.71ZM547.4,323.43c-11.62,6.32-22.42,11.89-32.86,18.06-2.71,1.6-3.79,5.22-2,8.62,5.39,10,10.77,20,16.3,29.92a6.26,6.26,0,0,0,8.34,2.87c10.82-5.43,21.35-11.42,32.73-17.6-6-3.11-9.9-8-17.09-5.85-4.6,1.35-8.69-1.53-11-5.73-2.46-4.38-2.68-9.53,1.12-12.79C548.68,336,546.32,330,547.4,323.43Zm-44.48,20.83c1.27-1,1.8-2.36,1-3.82a2.9,2.9,0,1,0-4.91,3.05A2.86,2.86,0,0,0,502.92,344.26Zm52.4-28.47a3,3,0,0,0,.77-3.71,2.9,2.9,0,1,0-4.9,3.06C552.14,316.45,553.57,316.68,555.32,315.79Zm-.63,30.9a2.88,2.88,0,0,0-3.74-1.42,2.73,2.73,0,0,0-1.52,4,2.69,2.69,0,0,0,3.67,1.42C554.88,350,555.25,348.44,554.69,346.69Zm-27.55,48.73c1,1.28,2.33,1.84,3.81,1.06a2.9,2.9,0,1,0-3-5A2.87,2.87,0,0,0,527.14,395.42Zm56.51-27.5c.91-.95,1.6-2.22.77-3.71a2.9,2.9,0,1,0-4.91,3.05C580.46,368.58,581.89,368.8,583.65,367.92Z" transform="translate(66.36 81.79)"/></g><g id="ace7a92f-2a25-4d1b-991e-b1166b535532" data-name="BQRE4H"><path class="e3b04446-37b9-4bec-8c5a-f106ccc499be" d="M959.76,810.19Q944.88,812,930,813.82c-7.45.89-10.57-1.46-11.47-8.72q-2.49-20-4.89-40.08c-.86-7.14,1.58-10.25,8.61-11.17a32.29,32.29,0,0,1,3.77-.45c4.89-.07,8.9-.79,9.54-7.07.32-3.11,3.39-4.65,6.56-5.06q9.21-1.18,18.43-2.26c4.59-.53,7.55,1.78,9.23,5.76,1,2.46,2.46,3.27,5.15,2.71a72,72,0,0,1,9.63-1.2c5.11-.37,8.51,2.16,9.17,7.19q2.85,21.69,5.31,43.42c.61,5.4-2.21,8.69-7.86,9.43C980.72,807.69,970.24,808.91,959.76,810.19ZM958,799a18.9,18.9,0,0,0,17.22-20.58c-.77-10.37-9.89-17.95-20.64-17.14-10.41.79-18,9.88-17.22,20.58C938.12,792.21,947.27,799.81,958,799Z" transform="translate(66.36 81.79)"/><path class="e3b04446-37b9-4bec-8c5a-f106ccc499be" d="M969.86,778.52c1,8-4.13,14.31-12.17,15.2a13.17,13.17,0,0,1-15-11.93c-1-7.95,4.15-14.33,12.17-15.2A13.18,13.18,0,0,1,969.86,778.52Z" transform="translate(66.36 81.79)"/></g><g id="b559057c-c863-4d66-be00-4ff2bb1725d7" data-name="BQRE4H"><path class="e3b04446-37b9-4bec-8c5a-f106ccc499be" d="M290.15,450.06c-9.92,1.21-19.84,2.44-29.76,3.63-7.44.9-10.56-1.46-11.46-8.72q-2.49-20-4.9-40.08c-.85-7.13,1.58-10.25,8.62-11.17a34.27,34.27,0,0,1,3.77-.44c4.89-.08,8.89-.79,9.53-7.07.32-3.11,3.39-4.66,6.56-5.07q9.21-1.18,18.44-2.25c4.59-.54,7.54,1.77,9.23,5.76,1,2.45,2.46,3.26,5.14,2.7a74.08,74.08,0,0,1,9.63-1.2c5.12-.37,8.52,2.16,9.18,7.2Q327,415,329.44,436.77c.61,5.39-2.22,8.69-7.87,9.43C311.11,447.57,300.62,448.78,290.15,450.06Zm-1.78-11.17a18.88,18.88,0,0,0,17.21-20.58c-.77-10.38-9.89-17.95-20.63-17.14-10.42.78-18,9.87-17.22,20.58C268.5,432.09,277.66,439.69,288.37,438.89Z" transform="translate(66.36 81.79)"/><path class="e3b04446-37b9-4bec-8c5a-f106ccc499be" d="M300.25,418.39c1,7.95-4.14,14.31-12.17,15.21a13.18,13.18,0,0,1-15-11.94c-1-7.94,4.15-14.32,12.18-15.2A13.2,13.2,0,0,1,300.25,418.39Z" transform="translate(66.36 81.79)"/></g><g id="abffc219-53fa-49f0-a47b-18a85806c947" data-name="cH71Ww"><path class="e3b04446-37b9-4bec-8c5a-f106ccc499be" d="M954.85,421c5.71,6.54,11.35,13.14,17.17,19.59a9,9,0,0,1,2.08,8.93c-1.84,7-9.24,13.27-16.36,13.94-6.3.6-10.26-3.82-8.73-10a16.33,16.33,0,0,1,7.66-10.61c2.39-1.39,2.46-2.51.72-4.46-5.14-5.74-10.24-11.52-15.19-17.42-1.92-2.29-2.88-1.68-4.23.47q-9.63,15.27-19.45,30.39c-1.38,2.11-.85,3.43.63,5.11,7.07,8,13.92,16.11,21.09,24A9.51,9.51,0,0,1,942,492.17c-2.88,6.4-7.79,10.6-14.72,12-7.2,1.43-11.79-3.91-9.45-10.88,1.32-3.93,3.55-7.42,7.26-9.46,2.7-1.5,2.49-2.71.68-4.74-7.62-8.6-15.15-17.28-22.69-25.94-4.21-4.84-4.24-5.94-.78-11.38q12.51-19.64,25-39.3c3.52-5.53,6.31-5.72,10.66-.75Q946.43,411.34,954.85,421Z" transform="translate(66.36 81.79)"/></g><path class="e3b04446-37b9-4bec-8c5a-f106ccc499be" d="M336.62,987c4.22,1.28,8.58,2.06,12.69,3.78a92.9,92.9,0,0,1,21.32,12.9,99.85,99.85,0,0,1,12.95,11.79c1.61,1.8,2.92,2.28,5.11,1a11.05,11.05,0,0,1,9-.79c4.49,1.35,6.38,5.58,2.82,10-1.28,1.58-4.26,2.25-4,4.15.18,1.71,2.43,3.15,3.64,4.79,10.11,13.65,18.85,28.05,23.63,44.54,1.09,3.76,2.28,7.46,1.3,11.58a7.25,7.25,0,0,1-9.18,5.49,26.15,26.15,0,0,1-9.62-5.61c-6.75-6.11-14.42-10.94-22.18-15.63-12.67-7.67-26.16-13.62-39.85-19.15-10.18-4.11-20.72-7.23-31.21-10.42-9.3-2.82-15.92-8-17.77-18.05,0-.14-.32-.23-.5-.35v-9.18c1.72-5.89,3.54-11.65,7.57-16.57,4.92-6,10.29-11.18,18-13.37,1.29-.37,2.85.5,3.87-.89Z" transform="translate(66.36 81.79)"/><path class="e3b04446-37b9-4bec-8c5a-f106ccc499be" d="M336.62-81.79c4.22,1.28,8.58,2.06,12.69,3.78a92.9,92.9,0,0,1,21.32,12.9,99.85,99.85,0,0,1,12.95,11.79c1.61,1.8,2.92,2.28,5.11,1a11.05,11.05,0,0,1,9-.79c4.49,1.35,6.38,5.57,2.82,10-1.28,1.59-4.26,2.26-4,4.16.18,1.71,2.43,3.14,3.64,4.79C410.22-20.53,419-6.13,423.74,10.36c1.09,3.76,2.28,7.46,1.3,11.58a7.25,7.25,0,0,1-9.18,5.49,26.28,26.28,0,0,1-9.62-5.61c-6.75-6.11-14.42-10.94-22.18-15.63C371.39-1.48,357.9-7.43,344.21-13,334-17.07,323.49-20.19,313-23.38c-9.3-2.82-15.92-8-17.77-18,0-.14-.32-.24-.5-.35V-51c1.72-5.89,3.54-11.65,7.57-16.57,4.92-6,10.29-11.18,18-13.37,1.29-.37,2.85.5,3.87-.89Z" transform="translate(66.36 81.79)"/><path class="e3b04446-37b9-4bec-8c5a-f106ccc499be" d="M802,550.16c-4.88.42-7.81,3.7-11.26,5.74-8.59,5.09-17.58,8.94-27.49,10.45-4.59.7-9.24-6.51-7.71-11.84,1-3.4,2.93-5.43,6.74-5.47,9.86-.13,19.07-3.29,27.61-7.65,10.26-5.24,17.82-13.68,23.22-23.95a83.7,83.7,0,0,0,7.28-18.34c1.55-6.13,5.36-7.93,11.26-5.39,2.45,1.06,3.92,3.31,5.75,5.14,2.4,2.4.59,4.54,0,6.75-2.83,10-8.62,18.19-15.55,25.74a51.69,51.69,0,0,1-5.69,5.77c-1,.8-1.89,2-1.25,3.09s2.09.28,3.08,0c8.5-2.44,17-3.48,25.62-.44a34.61,34.61,0,0,1,18.08,14.89,74.08,74.08,0,0,1,4.73,8.26c1.8,3.9,1.69,4.42-2.08,6-11.69,5-21.88,1.63-31.78-5.2-4.45-3.07-8-7.19-12.63-9.93-.82-.49-2.13-1.53-3-.39s-.54,2.4.29,3.75c4.67,7.59,9.13,15.35,11.57,24,3.36,11.93,3.5,23.71-2.52,35-1,1.84-1.85,1-2.87.49-3.15-1.44-5.63-3.83-8.22-6-8.87-7.52-14.77-16.72-16.83-28.4-1.71-9.66.08-18.84,2.47-28C801.07,553,801.47,551.87,802,550.16Z" transform="translate(66.36 81.79)"/><path class="e3b04446-37b9-4bec-8c5a-f106ccc499be" d="M447.14,892.09c-4.89.42-7.81,3.7-11.26,5.75-8.6,5.08-17.58,8.93-27.49,10.44-4.59.7-9.25-6.51-7.71-11.84,1-3.4,2.92-5.43,6.74-5.47,9.85-.12,19.06-3.29,27.6-7.65,10.27-5.24,17.82-13.68,23.23-24A83.17,83.17,0,0,0,465.52,841c1.56-6.12,5.37-7.93,11.27-5.38,2.44,1.05,3.91,3.3,5.74,5.13,2.41,2.41.6,4.54,0,6.75-2.83,10-8.62,18.2-15.55,25.74a50.92,50.92,0,0,1-5.7,5.77c-1,.8-1.88,2-1.24,3.1s2.09.27,3.07,0c8.51-2.44,17-3.49,25.62-.45a34.68,34.68,0,0,1,18.09,14.89,74,74,0,0,1,4.72,8.26c1.81,3.9,1.7,4.43-2.08,6-11.69,4.95-21.87,1.62-31.77-5.21-4.45-3.07-8-7.19-12.63-9.93-.82-.48-2.13-1.53-3-.39s-.54,2.4.29,3.75c4.67,7.6,9.13,15.35,11.56,24,3.37,11.94,3.51,23.71-2.52,35-1,1.85-1.84.95-2.86.49-3.15-1.44-5.64-3.83-8.23-6-8.86-7.52-14.76-16.72-16.83-28.4-1.7-9.66.08-18.83,2.48-28C446.22,895,446.62,893.8,447.14,892.09Z" transform="translate(66.36 81.79)"/><path class="e3b04446-37b9-4bec-8c5a-f106ccc499be" d="M818.08,131.63c-4.89.41-7.81,3.7-11.26,5.74-8.6,5.09-17.58,8.93-27.49,10.45-4.59.7-9.25-6.51-7.71-11.84,1-3.4,2.92-5.43,6.73-5.48,9.86-.12,19.07-3.28,27.61-7.64,10.27-5.25,17.82-13.69,23.22-24a83.48,83.48,0,0,0,7.28-18.35c1.55-6.12,5.36-7.93,11.27-5.38,2.44,1.06,3.91,3.31,5.74,5.14,2.41,2.4.6,4.54,0,6.75-2.82,10-8.61,18.19-15.54,25.74a52.63,52.63,0,0,1-5.7,5.77c-1,.79-1.89,2-1.24,3.09s2.09.27,3.07,0c8.51-2.44,17-3.48,25.62-.44a34.67,34.67,0,0,1,18.09,14.89,73.12,73.12,0,0,1,4.72,8.26c1.81,3.9,1.7,4.42-2.08,6-11.69,5-21.87,1.63-31.77-5.2-4.45-3.07-8-7.19-12.63-9.93-.82-.49-2.14-1.53-3-.39s-.55,2.4.28,3.75c4.68,7.59,9.14,15.34,11.57,24,3.36,11.93,3.5,23.7-2.52,35-1,1.84-1.84,1-2.86.48-3.16-1.43-5.64-3.82-8.23-6-8.86-7.52-14.76-16.72-16.83-28.4-1.7-9.67.08-18.84,2.48-28C817.16,134.48,817.56,133.34,818.08,131.63Z" transform="translate(66.36 81.79)"/><path class="e3b04446-37b9-4bec-8c5a-f106ccc499be" d="M165.38,29.47C164,43.9,155.51,52.86,144.09,59.14c-8.46,4.65-17.75,6.87-27.54,4.41-10.62-2.68-20.93-12.84-18.6-25a17.32,17.32,0,0,1,4.5-9.35c.72-.73,1.06-1.72,2.35-1.17a2.15,2.15,0,0,1,1.34,2.45c-.12,1.27-.21,2.55-.26,3.83-.14,3.72,1.18,6.88,4.78,8.1,3.21,1.09,6.4,0,9.17-2,4.88-3.49,7.71-8.52,10.59-13.62s6.31-9.34,11.67-12.12a16.82,16.82,0,0,1,12.82-1.3c2,.56,3.31,1.15,4.18-1.81C162.36.47,173.14-3,182.42-2.28c5.64.43,11.23,1.18,16.85-.64,4.25-1.37,6.8-3.91,7.68-8.18.81-3.94-1-6.52-4.35-8.49-1.51-.91-3.6-2-2.63-4.33.86-2.06,3.09-1.07,4.56-1,10.87.19,18.3,9.87,17.23,22.35-1,11.93-6.83,20.83-16.51,27.86-8.31,6-17.19,9.27-27.35,8.65C173.54,33.63,169.2,32.62,165.38,29.47Z" transform="translate(66.36 81.79)"/><path class="e3b04446-37b9-4bec-8c5a-f106ccc499be" d="M332.57,306.72c-13.79,4.46-25.38.32-35.71-7.62-7.65-5.89-13.41-13.51-15.07-23.48-1.8-10.8,3.38-24.32,15.48-27.06a17.3,17.3,0,0,1,10.36.38c1,.37,2,.29,2,1.68a2.14,2.14,0,0,1-1.7,2.21c-1.21.4-2.42.83-3.61,1.3-3.47,1.37-5.83,3.83-5.51,7.62.29,3.38,2.57,5.86,5.49,7.61,5.15,3.07,10.9,3.65,16.73,4.24,5.68.59,11.09,2,15.78,5.84a16.84,16.84,0,0,1,6.32,11.23c.3,2.08.27,3.49,3.34,3.11,11.46-1.45,18.94,7.05,22,15.84,1.86,5.33,3.42,10.75,7.34,15.18,3,3.34,6.31,4.66,10.57,3.76,3.93-.84,5.55-3.58,6-7.38.22-1.76.4-4.11,2.91-4.15,2.23,0,2.22,2.4,2.78,3.76,4.19,10-1.71,20.72-13.57,24.74-11.34,3.84-21.82,2.08-32.15-4-8.86-5.2-15.37-12-18.88-21.6C332,315.86,331.22,311.49,332.57,306.72Z" transform="translate(66.36 81.79)"/><path class="e3b04446-37b9-4bec-8c5a-f106ccc499be" d="M165.38,1098.24c-1.43,14.42-9.87,23.38-21.29,29.66-8.46,4.66-17.75,6.88-27.54,4.41-10.62-2.68-20.93-12.84-18.6-25a17.35,17.35,0,0,1,4.5-9.35c.72-.72,1.06-1.72,2.35-1.16a2.14,2.14,0,0,1,1.34,2.44c-.12,1.27-.21,2.55-.26,3.83-.14,3.72,1.18,6.88,4.78,8.1,3.21,1.09,6.4,0,9.17-2,4.88-3.49,7.71-8.52,10.59-13.62s6.31-9.34,11.67-12.12a16.87,16.87,0,0,1,12.82-1.3c2,.56,3.31,1.15,4.18-1.81,3.27-11.08,14-14.54,23.33-13.83,5.64.44,11.23,1.18,16.85-.64,4.25-1.37,6.8-3.91,7.68-8.18.81-3.94-1-6.52-4.35-8.49-1.51-.91-3.6-2-2.63-4.33.86-2.06,3.09-1.07,4.56-1,10.87.18,18.3,9.86,17.23,22.34-1,11.93-6.83,20.83-16.51,27.87-8.31,6-17.19,9.26-27.35,8.65C173.54,1102.39,169.2,1101.39,165.38,1098.24Z" transform="translate(66.36 81.79)"/><rect class="e3b04446-37b9-4bec-8c5a-f106ccc499be" x="-17.93" y="881.68" width="24.49" height="5.85" transform="translate(-649.42 438.83) rotate(-53.76)"/><rect class="e3b04446-37b9-4bec-8c5a-f106ccc499be" x="12.5" y="876.38" width="24.49" height="60.96" transform="translate(-654.86 472.37) rotate(-53.75)"/><path class="e3b04446-37b9-4bec-8c5a-f106ccc499be" d="M-8.38,867.26a7.06,7.06,0,0,0-9.91,1.52L-24.34,877a7.06,7.06,0,0,0,1.53,9.9l4.13,3L-4,870Z" transform="translate(66.36 81.79)"/><path class="e3b04446-37b9-4bec-8c5a-f106ccc499be" d="M67.73,940.86a2.1,2.1,0,0,0,2.46-2.35l-.13-.82L59.45,918.2,46,936.61Z" transform="translate(66.36 81.79)"/><rect class="e3b04446-37b9-4bec-8c5a-f106ccc499be" x="1050.83" y="881.68" width="24.49" height="5.85" transform="matrix(0.59, -0.81, 0.81, 0.59, -212.51, 1300.82)"/><rect class="e3b04446-37b9-4bec-8c5a-f106ccc499be" x="1081.26" y="876.38" width="24.49" height="60.96" transform="translate(-218.07 1334.26) rotate(-53.75)"/><path class="e3b04446-37b9-4bec-8c5a-f106ccc499be" d="M1060.38,867.26a7.05,7.05,0,0,0-9.9,1.52l-6,8.26a7,7,0,0,0,1.52,9.9l4.13,3,14.66-20Z" transform="translate(66.36 81.79)"/><path class="e3b04446-37b9-4bec-8c5a-f106ccc499be" d="M1136.49,940.86a2.1,2.1,0,0,0,2.46-2.35l-.13-.82-10.6-19.49-13.5,18.41Z" transform="translate(66.36 81.79)"/><path class="e3b04446-37b9-4bec-8c5a-f106ccc499be" d="M156.53,857.41a2.67,2.67,0,0,0,1-3.64,2.7,2.7,0,1,1,4.66-2.71,2.67,2.67,0,0,0,3.64,1,3.17,3.17,0,0,0,.35-.29,2.66,2.66,0,0,0,.6-3.37,8,8,0,0,0-13.86,8.07A2.66,2.66,0,0,0,156.53,857.41Z" transform="translate(66.36 81.79)"/><path class="e3b04446-37b9-4bec-8c5a-f106ccc499be" d="M174.64,834.63a8,8,0,0,0-2.92,10.92,2.66,2.66,0,1,0,4.65-2.59l0-.07a2.7,2.7,0,0,1,4.67-2.72,2.65,2.65,0,0,0,3.63,1,2.45,2.45,0,0,0,.35-.29,2.67,2.67,0,0,0,.61-3.38A8,8,0,0,0,174.64,834.63Z" transform="translate(66.36 81.79)"/><path class="e3b04446-37b9-4bec-8c5a-f106ccc499be" d="M174.44,856a16.67,16.67,0,0,0-8.21,15.69,2.66,2.66,0,1,0,5.31-.42,11.23,11.23,0,0,1,17.56-10.2,2.66,2.66,0,1,0,3-4.39h0A16.65,16.65,0,0,0,174.44,856Z" transform="translate(66.36 81.79)"/><path class="e3b04446-37b9-4bec-8c5a-f106ccc499be" d="M183,786.21a8,8,0,0,0-3.89,14.27,2.67,2.67,0,1,0,3.27-4.21,2.67,2.67,0,1,1,3.27-4.23,2.66,2.66,0,1,0,3.26-4.21A8,8,0,0,0,183,786.21Z" transform="translate(66.36 81.79)"/><path class="e3b04446-37b9-4bec-8c5a-f106ccc499be" d="M183.63,763.31a2.67,2.67,0,0,0-2.87-.2A83.07,83.07,0,0,0,139.81,816a2.65,2.65,0,0,0,.88,2.73l2.25,1.73c2.12,1.74,4.29,3.52,6.61,5.28a82.52,82.52,0,0,0-20,19.34,2.66,2.66,0,0,0-.16,2.89l1.31,2.4c7.49,13.68,16.82,30.71,36.67,37.34a29.43,29.43,0,0,0,24.07-2.41,28.28,28.28,0,0,0,4-2.75,29.53,29.53,0,0,0,10.1-16.9,50.62,50.62,0,0,0-2.4-28,29.19,29.19,0,0,0,14.86-31.35c-3.88-20.58-19.5-32.09-32.05-41.34Zm16.61,101.28a24,24,0,0,1-28.14,18.87,24.64,24.64,0,0,1-3.06-.82c-17.88-5.94-26.66-22-33.69-34.83l-.53-.95a77.8,77.8,0,0,1,51.42-29.74l.56.92C194.49,830.55,204,846.12,200.24,864.59Zm12.44-57.28A24,24,0,0,1,201,832.74a122.8,122.8,0,0,0-6.89-12.91c.33-.27.69-.51,1-.78a16.56,16.56,0,0,0,5.47-17.26,2.66,2.66,0,0,0-5.11,1.46,11.19,11.19,0,0,1-4.09,12L190,812.91a2.63,2.63,0,0,0-2.64-1.27,82.3,82.3,0,0,0-17.26,3.81,2.63,2.63,0,0,0-.93-1.44,2.67,2.67,0,1,1,3.27-4.23h0a2.66,2.66,0,1,0,3.27-4.2h0A8,8,0,0,0,165,817.38a83,83,0,0,0-10.69,5.3c-2.83-2.11-5.48-4.26-8-6.36l-.84-.69a77.77,77.77,0,0,1,36.45-47l.88.65c11.79,8.71,26.47,19.54,30,38.06Z" transform="translate(66.36 81.79)"/><g id="f5326ff8-d53a-4fb3-86bb-dd749176d0df" data-name="FsgmBF"><path class="e3b04446-37b9-4bec-8c5a-f106ccc499be" d="M707,994a3.08,3.08,0,0,1,1.48,3.42c-1.46,8.55,0,11.42,7.49,15.56l2.45,1.33c0,.17,0,.4-.09.41-4.65,1.16-8.2,4-11.29,7.5-6,6.74-13.34,8.89-22.12,7.16-6.39-1.27-7.31-1.07-13.91.68.62-1.28,1.14-2.32,1.64-3.37,3.46-7.18,2.78-11-3.09-16.43-1.19-1.1-1.82-2.15-1.08-3.72Z" transform="translate(66.36 81.79)"/><path class="e3b04446-37b9-4bec-8c5a-f106ccc499be" d="M729,1032.65c-6.11-.57-10.67,2.18-14.72,6.13-1.43,1.4-2.89,2.78-4.33,4.18a17.34,17.34,0,0,1-14.76,4.92c-3.06-.36-6.11-.82-9.17-1.1a15.8,15.8,0,0,0-11.37,3c-.91.69-1.39.91-1.91-.45a57.86,57.86,0,0,1-3-11c-.33-2,.36-3,2-4a13.6,13.6,0,0,1,8.69-1.7c2.78.28,5.54.74,8.32,1a22.88,22.88,0,0,0,18-5.91c2-1.81,4-3.73,6-5.57a15.15,15.15,0,0,1,5.07-3.18c4.36-1.54,6-.84,8,3.29A35.77,35.77,0,0,1,729,1032.65Z" transform="translate(66.36 81.79)"/><path class="e3b04446-37b9-4bec-8c5a-f106ccc499be" d="M728.49,1051.67a18.65,18.65,0,0,0-7.44,4.51c-1.89,1.75-3.71,3.58-5.59,5.34a16.82,16.82,0,0,1-13.62,4.6c-2.64-.24-5.26-.66-7.89-1a18,18,0,0,0-9.91,1.08,1.46,1.46,0,0,1-2.1-.66c-2.13-3.15-4.11-6.38-6-9.67a1.66,1.66,0,0,1,.53-2.52c3.23-2.54,6.87-3,10.78-2.43a48.43,48.43,0,0,0,11.33.88c6.27-.5,11.49-3.26,16-7.55,2.42-2.32,4.56-5,7.69-6.47A11.94,11.94,0,0,1,724,1037c4.79-1.43,5.93-.69,6.37,4.2.2,2.21.24,4.43.4,6.65C731,1049.92,731.05,1051.88,728.49,1051.67Z" transform="translate(66.36 81.79)"/><path class="e3b04446-37b9-4bec-8c5a-f106ccc499be" d="M714.42,1082.17c-4,1.29-7.92,2.55-11.86,3.88a2.73,2.73,0,0,1-3.11-.61,133.3,133.3,0,0,1-13.15-14.15c-1.15-1.44-.74-1.85.81-2.17a20.25,20.25,0,0,1,7.68.23c6.25,1.05,12.4,1.21,18.3-1.67a35.5,35.5,0,0,0,9.63-7.45,19.75,19.75,0,0,1,6.28-4.78c1.34-.57,1.75-.3,1.7,1.21a120.3,120.3,0,0,1-2.2,19.4,2.58,2.58,0,0,1-2,2.2C722.46,1079.52,718.44,1080.86,714.42,1082.17Z" transform="translate(66.36 81.79)"/></g><g id="a8d7f303-4192-4e44-be00-dfce5141f989" data-name="FsgmBF"><path class="e3b04446-37b9-4bec-8c5a-f106ccc499be" d="M707-74.8a3.08,3.08,0,0,1,1.48,3.42C707-62.84,708.42-60,716-55.82l2.45,1.32c0,.18,0,.4-.09.42-4.65,1.15-8.2,4-11.29,7.5-6,6.74-13.34,8.89-22.12,7.15-6.39-1.26-7.31-1.06-13.91.69.62-1.28,1.14-2.32,1.64-3.37,3.46-7.18,2.78-11-3.09-16.43-1.19-1.1-1.82-2.15-1.08-3.72Z" transform="translate(66.36 81.79)"/><path class="e3b04446-37b9-4bec-8c5a-f106ccc499be" d="M729-36.11c-6.11-.57-10.67,2.17-14.72,6.13-1.43,1.4-2.89,2.78-4.33,4.17a17.32,17.32,0,0,1-14.76,4.93c-3.06-.36-6.11-.82-9.17-1.1a15.8,15.8,0,0,0-11.37,3c-.91.69-1.39.91-1.91-.45a58,58,0,0,1-3-11c-.33-1.94.36-3,2-4a13.6,13.6,0,0,1,8.69-1.7c2.78.28,5.54.74,8.32,1a22.92,22.92,0,0,0,18-5.91c2-1.81,4-3.74,6-5.57a15,15,0,0,1,5.07-3.18c4.36-1.54,6-.85,8,3.29A35.77,35.77,0,0,1,729-36.11Z" transform="translate(66.36 81.79)"/><path class="e3b04446-37b9-4bec-8c5a-f106ccc499be" d="M728.49-17.09a18.53,18.53,0,0,0-7.44,4.51c-1.89,1.75-3.71,3.58-5.59,5.34a16.89,16.89,0,0,1-13.62,4.6c-2.64-.25-5.26-.67-7.89-1A18.13,18.13,0,0,0,684-2.57a1.44,1.44,0,0,1-2.1-.66c-2.13-3.14-4.11-6.37-6-9.66a1.67,1.67,0,0,1,.53-2.53c3.23-2.53,6.87-3,10.78-2.42a48.43,48.43,0,0,0,11.33.88c6.27-.5,11.49-3.26,16-7.56,2.42-2.31,4.56-5,7.69-6.46a13.16,13.16,0,0,1,1.77-.77c4.79-1.42,5.93-.68,6.37,4.21.2,2.21.24,4.43.4,6.64C731-18.84,731.05-16.88,728.49-17.09Z" transform="translate(66.36 81.79)"/><path class="e3b04446-37b9-4bec-8c5a-f106ccc499be" d="M714.42,13.41c-4,1.29-7.92,2.55-11.86,3.88a2.72,2.72,0,0,1-3.11-.62A132.24,132.24,0,0,1,686.3,2.53c-1.15-1.44-.74-1.85.81-2.18a20.45,20.45,0,0,1,7.68.24c6.25,1,12.4,1.21,18.3-1.67a35.5,35.5,0,0,0,9.63-7.45A19.75,19.75,0,0,1,729-13.31c1.34-.57,1.75-.3,1.7,1.21a120.43,120.43,0,0,1-2.2,19.4,2.58,2.58,0,0,1-2,2.2C722.46,10.76,718.44,12.1,714.42,13.41Z" transform="translate(66.36 81.79)"/></g><path class="e3b04446-37b9-4bec-8c5a-f106ccc499be" d="M817,1039.39l8.67.57a2.57,2.57,0,0,0,2.66-3.09l-1.93-9.73a2.65,2.65,0,0,0-2.33-2.1l-12.36-1.41a18.18,18.18,0,0,0-11.08,2.46l-4.25,2.62-10.64,2.09-.81-1a7.36,7.36,0,0,0-2.75-10.54,7.7,7.7,0,0,0-5.84-.39,7.27,7.27,0,0,0-4.63,5.77,7.75,7.75,0,0,0,1.8,6l.22.27a1.15,1.15,0,0,0,1.62.15l1.51-1.25a1.14,1.14,0,0,0,.15-1.61l-.37-.45a3.25,3.25,0,0,1-.65-2.59,3,3,0,0,1,1.67-2.12,2.84,2.84,0,0,1,3.08.29,3,3,0,0,1,.57,4.29,3.68,3.68,0,0,0,0,4.49l1.17,1.42-4.14,10.13-3.46,3.76a17.53,17.53,0,0,0-4.49,10.42l-1,12.56a2.82,2.82,0,0,0,1.63,2.69l9.19,3.72a2.69,2.69,0,0,0,3.63-2.1l1.06-8.63,14.79,11a10,10,0,0,1,3.67,5.17l12.16,37a4.68,4.68,0,0,0,7.47,2.18l41.52-34.34a4.68,4.68,0,0,0-.74-7.74l-34.37-18.84a10.72,10.72,0,0,1-4.38-4.58ZM786.4,1035l7.15-1.44,2.15,9.26a2.42,2.42,0,0,1-3.37,2.78l-8.69-3.84Z" transform="translate(66.36 81.79)"/><path class="e3b04446-37b9-4bec-8c5a-f106ccc499be" d="M170.67,298.67l8.68.58a2.57,2.57,0,0,0,2.66-3.09l-1.94-9.73a2.61,2.61,0,0,0-2.33-2.1l-12.35-1.42a18.31,18.31,0,0,0-11.08,2.46L150.06,288l-10.64,2.1-.81-1a7.37,7.37,0,0,0-2.75-10.54,7.66,7.66,0,0,0-5.84-.39,7.23,7.23,0,0,0-4.63,5.76,7.72,7.72,0,0,0,1.8,6l.22.26a1.16,1.16,0,0,0,1.62.16l1.51-1.25a1.16,1.16,0,0,0,.15-1.62l-.37-.44a3.27,3.27,0,0,1-.65-2.59,3,3,0,0,1,1.67-2.13,2.84,2.84,0,0,1,3.07.29,3,3,0,0,1,.58,4.3,3.66,3.66,0,0,0,0,4.49l1.17,1.41L132,302.93l-3.46,3.75a17.56,17.56,0,0,0-4.49,10.43l-1,12.56a2.79,2.79,0,0,0,1.63,2.68l9.19,3.73a2.69,2.69,0,0,0,3.63-2.11l1.06-8.63,14.79,11a10,10,0,0,1,3.67,5.16l12.16,37.06a4.67,4.67,0,0,0,7.46,2.17l41.53-34.34a4.68,4.68,0,0,0-.74-7.74l-34.37-18.84a10.75,10.75,0,0,1-4.38-4.57Zm-30.59-4.36,7.15-1.45,2.15,9.27a2.42,2.42,0,0,1-3.37,2.78l-8.69-3.84Z" transform="translate(66.36 81.79)"/><path class="e3b04446-37b9-4bec-8c5a-f106ccc499be" d="M817-29.37l8.67.57a2.57,2.57,0,0,0,2.66-3.09l-1.93-9.73a2.64,2.64,0,0,0-2.33-2.1l-12.36-1.41a18.18,18.18,0,0,0-11.08,2.46l-4.25,2.61L785.74-38l-.81-1a7.36,7.36,0,0,0-2.75-10.54,7.7,7.7,0,0,0-5.84-.39,7.25,7.25,0,0,0-4.63,5.76,7.76,7.76,0,0,0,1.8,6l.22.26a1.15,1.15,0,0,0,1.62.16L776.86-39a1.14,1.14,0,0,0,.15-1.61l-.37-.45a3.27,3.27,0,0,1-.65-2.59,3,3,0,0,1,1.67-2.13,2.86,2.86,0,0,1,3.08.3,3,3,0,0,1,.57,4.29,3.68,3.68,0,0,0,0,4.49l1.17,1.42-4.14,10.13-3.46,3.75a17.58,17.58,0,0,0-4.49,10.43l-1,12.56a2.79,2.79,0,0,0,1.63,2.68L780.24,8a2.69,2.69,0,0,0,3.63-2.1l1.06-8.64,14.79,11a10,10,0,0,1,3.67,5.16l12.16,37.06A4.68,4.68,0,0,0,823,52.72l41.52-34.34a4.69,4.69,0,0,0-.74-7.75L829.43-8.2a10.83,10.83,0,0,1-4.38-4.58Zm-30.6-4.37,7.15-1.44,2.15,9.26a2.42,2.42,0,0,1-3.37,2.78L783.64-27Z" transform="translate(66.36 81.79)"/><g id="b2614fc3-aea1-4d64-8c10-5eb1e9ee3521" data-name="xjPlSa"><path class="e3b04446-37b9-4bec-8c5a-f106ccc499be" d="M425,631.54a5.41,5.41,0,0,1-1.75-.95c-3.56-4.32-7.14-8.85-7.16-14.67,0-7.22,5.31-10.37,11.22-12.57,9.86-3.68,19.77-7.25,29.66-10.86,2.1-.77,4.18-1.64,6.32-2.33,5.08-1.63,9-.45,11.56,3.36,2.15,3.24,1.67,7.24-2.23,10.93a239.32,239.32,0,0,1-24.13,19.61,59.37,59.37,0,0,1-11.89,7.12A16.05,16.05,0,0,1,425,631.54Z" transform="translate(66.36 81.79)"/><path class="e3b04446-37b9-4bec-8c5a-f106ccc499be" d="M382.58,616.47c2.28,2.68,3.18,6.33,6.12,7.29,3.44,1.12,5-3,7.59-4.33a16,16,0,0,1,11.79-1.34c2.55.64,10.66,15.52,9.84,18-2,6.19-8.59,11.12-15.27,11.46C385.42,648.42,375.35,633.15,382.58,616.47Z" transform="translate(66.36 81.79)"/></g><g id="eae15ae2-b706-49d2-b38d-aa61d2134fa3" data-name="faAsWI"><path class="e3b04446-37b9-4bec-8c5a-f106ccc499be" d="M671,514.15a8.39,8.39,0,0,1,4.12,4.63c4.42,10.17,8.78,20.36,13.31,30.48.92,2.06.45,2.78-1.5,3.61-12.53,5.32-25,10.85-37.51,16.15a53.24,53.24,0,0,1-33,2.87c-4-.87-5-3.29-2.93-6.76a54.44,54.44,0,0,1,26.17-22.76c8.77-3.74,17.51-7.58,26.28-11.35,1.76-.75,3.27-1.18,2.12-3.84s-2.53-1.77-4.24-1c-5.39,2.37-10.89,4.52-16.19,7.09-3.6,1.74-4.64-.19-5.82-3s-2-4.79,1.78-6.28c7.17-2.85,14.19-6.07,21.27-9.14A9,9,0,0,1,671,514.15Z" transform="translate(66.36 81.79)"/><path class="e3b04446-37b9-4bec-8c5a-f106ccc499be" d="M710,540.19a10.89,10.89,0,0,1-6.15,5.34c-3.11,1.23-6.67,4-9.2,3.29s-3-5.55-4.39-8.56c-2.16-4.7-4.08-9.52-6.26-14.22-.83-1.78-.69-2.69,1.27-3.42,3.14-1.18,6.15-2.73,9.3-3.88,3.31-1.2,6.58-.85,8.56,2.34a63.8,63.8,0,0,1,6.84,15.73A11.64,11.64,0,0,1,710,540.19Z" transform="translate(66.36 81.79)"/></g><g id="bcc213f9-6bef-4e5e-9b9f-f5a1f2ed52d5" data-name="otP480"><path class="e3b04446-37b9-4bec-8c5a-f106ccc499be" d="M152.83,642.58c2.36-7.79,4.68-15.59,7.11-23.36,2.79-8.94,10.85-13.28,19.81-10.59,15.73,4.72,31.42,9.59,47.16,14.26,3.78,1.13,4.9,3.07,3.73,6.85q-7.29,23.53-14.32,47.14c-1,3.27-4.09,5.27-4.62,8.8-.45,3-1.76,5.71-1.3,9,.67,4.78-2.36,6.92-7.08,5.49q-23.58-7.11-47.14-14.33c-8.91-2.75-13.13-10.85-10.44-19.89C148.05,658.14,150.46,650.37,152.83,642.58Zm29.09,30c-6.57-2-13.13-4-19.71-6-3.27-1-6.07-.25-7.06,3.24s.91,5.58,4.21,6.55l2.82.86,32.57,9.9c6.54,2,6.35,1.91,8.81-4.48,1.11-2.86.15-3.58-2.33-4.28C194.76,676.55,188.35,674.51,181.92,672.56ZM193,639.06c4.83,1.46,9.67,2.88,14.47,4.42,1.88.6,3.1.65,3.75-1.69.59-2.1-.31-2.71-2-3.22q-14.29-4.27-28.55-8.68c-1.72-.53-2.8-.53-3.49,1.54-.76,2.31.28,3,2.17,3.5C183.93,636.24,188.48,637.67,193,639.06Zm-2.44,9.82c4.83,1.46,9.67,2.89,14.47,4.42,1.64.52,2.59.27,3.14-1.54s.45-2.83-1.61-3.44q-14.51-4.29-29-8.79c-1.81-.56-2.8-.33-3.41,1.67s.05,2.78,1.89,3.3C181,645.9,185.77,647.41,190.59,648.88Z" transform="translate(66.36 81.79)"/></g><g id="a06233dc-c6c0-489f-b915-9d6d6b55ecfe" data-name="7VvAr8"><path class="e3b04446-37b9-4bec-8c5a-f106ccc499be" d="M841,822.53a10.74,10.74,0,0,1-8.06-3.24c-2.15-2.43-4.5-2.72-7.38-2.69-9.89.1-19.78.06-29.67,0-2.5,0-4.44.29-6.51,2.36a11.4,11.4,0,0,1-16.75-.28c-4.31-4.6-4.13-11.6.77-16.4a5.78,5.78,0,0,0,2.05-4.63q-.09-16.54,0-33.1a5.82,5.82,0,0,0-2-4.64c-4.93-4.81-5.12-11.79-.82-16.4a11.49,11.49,0,0,1,16.77-.34,7.64,7.64,0,0,0,6,2.42c10.55-.08,21.09-.06,31.64,0a6.31,6.31,0,0,0,5.17-2c4-4.12,9-4.89,13.54-2.73a11.9,11.9,0,0,1,6.69,11.67c-.55,5.12-3.75,8.89-9.21,10.37-6.28,1.71-8.84,8-9,12.17-.24,5.76-2.32,12.53,2.56,18.22,2.45,2.85,4.15,5.66,8.25,6.78,5.25,1.43,8.26,7.4,7.33,12.52C851.34,818.16,846.4,822.48,841,822.53Zm-10.49-65.2c-13.22,0-25.37-.25-37.49.18-3.14.11-5.82,2.78-5.83,6.64,0,11.36-.09,22.72,0,34.07a6.27,6.27,0,0,0,6,6.51c12.1.39,24.21.16,37.16.16-3.75-5.58-4.9-11.72-12.22-13.3-4.69-1-6.91-5.49-7-10.3-.06-5,2.2-9.66,7.09-10.71C825.66,769,826.44,762.63,830.53,757.33Zm-49-2.93c1.6-.3,2.7-1.21,2.7-2.89a2.9,2.9,0,1,0-5.77.35A2.87,2.87,0,0,0,781.51,754.4Zm59.64,0c1.25-.4,2.47-1.18,2.44-2.9a2.9,2.9,0,1,0-5.77.35C838,753.46,839.18,754.34,841.15,754.41Zm-15.31,26.84a2.87,2.87,0,0,0-2.61-3A2.74,2.74,0,0,0,820,781a2.67,2.67,0,0,0,2.55,3C824.44,784.21,825.5,783.06,825.84,781.25Zm-47.48,29.66c.28,1.61,1.17,2.73,2.85,2.75a2.9,2.9,0,1,0-.27-5.78A2.88,2.88,0,0,0,778.36,810.91Zm62.79,2.82c1.25-.4,2.47-1.18,2.44-2.9a2.9,2.9,0,1,0-5.77.35C838,812.78,839.18,813.66,841.15,813.73Z" transform="translate(66.36 81.79)"/></g><g id="e4899eb7-8fc9-41e3-9584-1cfd7f4cebd5" data-name="7VvAr8"><path class="e3b04446-37b9-4bec-8c5a-f106ccc499be" d="M345.33,116.12a10.66,10.66,0,0,1-8.63,1c-3.05-1.1-5.25-.23-7.77,1.17-8.64,4.81-17.35,9.5-26.06,14.18-2.2,1.18-3.76,2.37-4.59,5.18a11.39,11.39,0,0,1-14.85,7.75c-6-2-9.17-8.21-7.15-14.78a5.8,5.8,0,0,0-.42-5q-8-14.51-15.8-29.08a5.78,5.78,0,0,0-4-3.12c-6.62-1.87-10.12-7.91-8.54-14a11.48,11.48,0,0,1,14.57-8.3,7.64,7.64,0,0,0,6.41-.74q13.85-7.65,27.8-15.12A6.31,6.31,0,0,0,299.9,51c1.55-5.53,5.58-8.59,10.59-8.86a11.91,11.91,0,0,1,11.45,7.06c2,4.76.95,9.6-3.14,13.51-4.71,4.5-3.95,11.25-2.11,15,2.54,5.17,3.94,12.12,10.95,14.78,3.52,1.34,6.35,3,10.48,2,5.31-1.25,10.8,2.56,12.43,7.5C352.31,107.36,350,113.51,345.33,116.12ZM305,63.85c-11.62,6.31-22.41,11.88-32.86,18.05-2.71,1.6-3.79,5.22-2,8.62,5.4,10,10.77,20,16.3,29.93a6.28,6.28,0,0,0,8.35,2.87c10.81-5.44,21.34-11.43,32.72-17.61-6-3.11-9.89-7.95-17.08-5.84-4.6,1.35-8.7-1.54-11-5.73-2.45-4.39-2.68-9.53,1.12-12.8C306.27,76.41,303.92,70.45,305,63.85ZM260.51,84.67c1.27-1,1.8-2.35,1-3.82a2.9,2.9,0,1,0-4.91,3.05A2.86,2.86,0,0,0,260.51,84.67Zm52.41-28.46c.91-1,1.61-2.22.77-3.71a2.9,2.9,0,1,0-4.91,3C309.73,56.87,311.16,57.09,312.92,56.21Zm-.64,30.89a2.88,2.88,0,0,0-3.74-1.42,2.75,2.75,0,0,0-1.52,4,2.69,2.69,0,0,0,3.67,1.41C312.47,90.37,312.85,88.85,312.28,87.1Zm-27.55,48.73c1,1.28,2.33,1.84,3.81,1.06a2.9,2.9,0,1,0-3-4.95A2.86,2.86,0,0,0,284.73,135.83Zm56.51-27.5c.91-1,1.61-2.22.77-3.71a2.9,2.9,0,1,0-4.91,3.06C338.05,109,339.48,109.21,341.24,108.33Z" transform="translate(66.36 81.79)"/></g><g id="b93ded10-bda9-4543-a576-89a6ec40c66e" data-name="7VvAr8"><path class="e3b04446-37b9-4bec-8c5a-f106ccc499be" d="M42.3,475a10.74,10.74,0,0,1-8.06-3.24c-2.15-2.43-4.5-2.72-7.38-2.69-9.89.1-19.78.06-29.67,0-2.49,0-4.43.29-6.51,2.36a11.38,11.38,0,0,1-16.74-.28c-4.32-4.59-4.14-11.6.77-16.4a5.8,5.8,0,0,0,2-4.63q-.09-16.54,0-33.09a5.81,5.81,0,0,0-2-4.65c-4.93-4.81-5.12-11.79-.81-16.39a11.46,11.46,0,0,1,16.76-.34,7.67,7.67,0,0,0,6,2.41c10.55-.08,21.1,0,31.64,0a6.34,6.34,0,0,0,5.17-2c4-4.12,9-4.88,13.54-2.73A11.91,11.91,0,0,1,53.71,405c-.55,5.12-3.74,8.89-9.21,10.37-6.28,1.71-8.84,8-9,12.17-.24,5.76-2.32,12.53,2.56,18.22,2.45,2.86,4.15,5.66,8.25,6.78,5.25,1.43,8.26,7.4,7.33,12.52C52.62,470.64,47.68,475,42.3,475Zm-10.49-65.2c-13.22,0-25.37-.25-37.49.18-3.14.11-5.82,2.78-5.83,6.64,0,11.36-.09,22.72,0,34.08a6.27,6.27,0,0,0,6,6.5c12.1.39,24.21.16,37.17.16-3.76-5.58-4.91-11.72-12.23-13.3-4.69-1-6.9-5.49-7-10.3-.06-5,2.2-9.66,7.1-10.71C26.94,421.47,27.72,415.11,31.81,409.81Zm-49-2.93c1.6-.3,2.7-1.21,2.7-2.88a2.7,2.7,0,0,0-3.06-3,2.72,2.72,0,0,0-2.71,3.3A2.87,2.87,0,0,0-17.21,406.88Zm59.64,0c1.25-.4,2.47-1.18,2.45-2.89a2.72,2.72,0,0,0-3.07-3,2.71,2.71,0,0,0-2.71,3.3C39.31,406,40.46,406.83,42.43,406.89ZM27.12,433.73a2.88,2.88,0,0,0-2.61-3,2.74,2.74,0,0,0-3.24,2.78,2.69,2.69,0,0,0,2.55,3C25.72,436.69,26.78,435.54,27.12,433.73Zm-47.47,29.66c.27,1.62,1.17,2.73,2.84,2.75a2.69,2.69,0,0,0,3-3,2.71,2.71,0,0,0-3.25-2.76A2.86,2.86,0,0,0-20.35,463.39Zm62.78,2.82c1.25-.4,2.47-1.18,2.45-2.89a2.72,2.72,0,0,0-3.07-3,2.71,2.71,0,0,0-2.71,3.3C39.32,465.27,40.46,466.15,42.43,466.21Z" transform="translate(66.36 81.79)"/></g><g id="f765b883-9af2-4968-b097-d2882a5b8d08" data-name="7VvAr8"><path class="e3b04446-37b9-4bec-8c5a-f106ccc499be" d="M1111.06,475a10.71,10.71,0,0,1-8-3.24c-2.16-2.43-4.51-2.72-7.39-2.69-9.89.1-19.78.06-29.67,0-2.49,0-4.43.29-6.5,2.36a11.39,11.39,0,0,1-16.75-.28c-4.32-4.59-4.14-11.6.77-16.4a5.8,5.8,0,0,0,2-4.63q-.09-16.54,0-33.09a5.81,5.81,0,0,0-2-4.65c-4.92-4.81-5.11-11.79-.81-16.39a11.47,11.47,0,0,1,16.77-.34,7.64,7.64,0,0,0,6,2.41c10.55-.08,21.1,0,31.65,0a6.32,6.32,0,0,0,5.16-2c4-4.12,9-4.88,13.54-2.73a11.91,11.91,0,0,1,6.69,11.67c-.55,5.12-3.74,8.89-9.21,10.37-6.28,1.71-8.84,8-9,12.17-.23,5.76-2.32,12.53,2.56,18.22,2.45,2.86,4.15,5.66,8.25,6.78,5.25,1.43,8.26,7.4,7.33,12.52A12.08,12.08,0,0,1,1111.06,475Zm-10.48-65.2c-13.23,0-25.37-.25-37.49.18-3.15.11-5.83,2.78-5.84,6.64,0,11.36-.09,22.72,0,34.08a6.27,6.27,0,0,0,6,6.5c12.09.39,24.2.16,37.16.16-3.75-5.58-4.9-11.72-12.23-13.3-4.68-1-6.9-5.49-7-10.3-.07-5,2.19-9.66,7.09-10.71C1095.71,421.47,1096.48,415.11,1100.58,409.81Zm-49-2.93c1.61-.3,2.71-1.21,2.7-2.88a2.89,2.89,0,1,0-5.76.34A2.85,2.85,0,0,0,1051.55,406.88Zm59.64,0c1.25-.4,2.47-1.18,2.45-2.89a2.9,2.9,0,1,0-5.77.34C1108.08,406,1109.23,406.83,1111.19,406.89Zm-15.31,26.84a2.88,2.88,0,0,0-2.61-3,2.74,2.74,0,0,0-3.24,2.78,2.69,2.69,0,0,0,2.55,3C1094.48,436.69,1095.54,435.54,1095.88,433.73Zm-47.47,29.66c.28,1.62,1.17,2.73,2.84,2.75a2.9,2.9,0,1,0-.26-5.78A2.87,2.87,0,0,0,1048.41,463.39Zm62.78,2.82c1.25-.4,2.47-1.18,2.45-2.89a2.9,2.9,0,1,0-5.77.34C1108.08,465.27,1109.23,466.15,1111.19,466.21Z" transform="translate(66.36 81.79)"/></g><g id="f777b39e-6b42-4fdd-a3a1-73d1a7d1d10d" data-name="BQRE4H"><path class="e3b04446-37b9-4bec-8c5a-f106ccc499be" d="M950.53,151.85q-14.88,1.82-29.75,3.62c-7.45.9-10.56-1.45-11.47-8.71q-2.47-20-4.89-40.08c-.86-7.14,1.58-10.25,8.61-11.17a32.29,32.29,0,0,1,3.77-.45c4.89-.08,8.9-.79,9.54-7.07.32-3.11,3.39-4.66,6.56-5.06q9.21-1.19,18.43-2.26c4.6-.53,7.55,1.78,9.23,5.76,1,2.46,2.46,3.27,5.15,2.71a72,72,0,0,1,9.63-1.2c5.11-.37,8.52,2.16,9.18,7.19q2.84,21.69,5.3,43.42c.62,5.4-2.21,8.69-7.86,9.43C971.49,149.35,961,150.57,950.53,151.85Zm-1.78-11.18A18.89,18.89,0,0,0,966,120.09c-.77-10.37-9.89-18-20.64-17.14-10.41.79-18,9.88-17.21,20.58C928.89,133.87,938,141.47,948.75,140.67Z" transform="translate(66.36 81.79)"/><path class="e3b04446-37b9-4bec-8c5a-f106ccc499be" d="M960.63,120.18c1,7.94-4.13,14.31-12.17,15.2a13.17,13.17,0,0,1-15-11.93c-1-8,4.15-14.33,12.17-15.21A13.19,13.19,0,0,1,960.63,120.18Z" transform="translate(66.36 81.79)"/></g><g id="bde02931-40e7-4b7b-be48-e7b807398f22" data-name="BQRE4H"><path class="e3b04446-37b9-4bec-8c5a-f106ccc499be" d="M500.15,120.76q-14.88,1.83-29.76,3.63c-7.44.9-10.56-1.46-11.46-8.71q-2.49-20-4.9-40.09c-.85-7.13,1.58-10.25,8.62-11.17a34.27,34.27,0,0,1,3.77-.44c4.89-.08,8.9-.79,9.54-7.07.31-3.11,3.38-4.66,6.55-5.06q9.21-1.18,18.44-2.26c4.59-.53,7.54,1.78,9.23,5.76,1,2.45,2.46,3.27,5.14,2.7a75.85,75.85,0,0,1,9.63-1.2c5.12-.36,8.52,2.16,9.18,7.2q2.83,21.69,5.31,43.42c.61,5.4-2.22,8.69-7.87,9.43C521.11,118.27,510.62,119.48,500.15,120.76Zm-1.78-11.17A18.88,18.88,0,0,0,515.58,89c-.77-10.37-9.89-18-20.63-17.14-10.42.78-18,9.87-17.22,20.58C478.5,102.79,487.66,110.39,498.37,109.59Z" transform="translate(66.36 81.79)"/><path class="e3b04446-37b9-4bec-8c5a-f106ccc499be" d="M510.25,89.09c1,8-4.13,14.32-12.17,15.21a13.17,13.17,0,0,1-15-11.93c-1-8,4.14-14.33,12.17-15.21A13.19,13.19,0,0,1,510.25,89.09Z" transform="translate(66.36 81.79)"/></g><g id="e6fd91e6-21da-4b9c-9c54-167a76fa9195" data-name="cH71Ww"><path class="e3b04446-37b9-4bec-8c5a-f106ccc499be" d="M1103,1016.72c-3.19,8.08-6.47,16.12-9.53,24.25a8.93,8.93,0,0,1-7,5.94c-7,1.56-16-2.12-19.89-8.13-3.43-5.33-1.32-10.87,4.84-12.33a16.34,16.34,0,0,1,12.94,1.94c2.33,1.49,3.36,1,4.29-1.41,2.74-7.2,5.54-14.38,8.51-21.49,1.15-2.76.18-3.33-2.36-3.54-12-1-24-2.12-35.93-3.34-2.51-.25-3.44.82-4.24,2.91-3.84,9.93-7.93,19.76-11.64,29.74a9.48,9.48,0,0,1-9.13,6.73c-7,.39-13-2.06-17.4-7.58-4.57-5.74-1.93-12.27,5.34-13.39,4.09-.63,8.22-.25,11.73,2.1,2.57,1.72,3.55,1,4.53-1.56,4.14-10.72,8.4-21.39,12.64-32.06,2.37-6,3.33-6.5,9.74-5.92,15.47,1.4,30.93,2.76,46.39,4.17,6.53.59,8,3,5.56,9.13Q1107.69,1004.81,1103,1016.72Z" transform="translate(66.36 81.79)"/></g><g id="e0026d90-667c-48f6-a372-d5287e6231a7" data-name="cH71Ww"><path class="e3b04446-37b9-4bec-8c5a-f106ccc499be" d="M34.2,1016.72c-3.19,8.08-6.47,16.12-9.53,24.25a9,9,0,0,1-7,5.94c-7,1.56-16-2.12-19.9-8.13-3.42-5.33-1.31-10.87,4.85-12.33a16.34,16.34,0,0,1,12.94,1.94c2.33,1.49,3.36,1,4.29-1.41,2.74-7.2,5.53-14.38,8.51-21.49,1.15-2.76.18-3.33-2.36-3.54-12-1-24-2.12-35.93-3.34-2.51-.25-3.44.82-4.25,2.91-3.83,9.93-7.93,19.76-11.63,29.74-1.66,4.45-4.73,6.49-9.13,6.73-7,.39-13-2.06-17.4-7.58-4.57-5.74-1.93-12.27,5.34-13.39,4.09-.63,8.22-.25,11.73,2.1,2.57,1.72,3.55,1,4.53-1.56,4.14-10.72,8.39-21.39,12.64-32.06,2.36-6,3.33-6.5,9.74-5.92,15.46,1.4,30.93,2.76,46.39,4.17,6.53.59,8,3,5.56,9.13Q38.93,1004.81,34.2,1016.72Z" transform="translate(66.36 81.79)"/></g><path class="e3b04446-37b9-4bec-8c5a-f106ccc499be" d="M182.24,463.1c-.76,4.34-1,8.76-2.21,13a93.3,93.3,0,0,1-10.25,22.72,99.38,99.38,0,0,1-10.14,14.27c-1.59,1.82-1.91,3.18-.39,5.2a11,11,0,0,1,1.86,8.85c-.8,4.63-4.76,7-9.55,4-1.72-1.08-2.75-4-4.61-3.52-1.67.39-2.83,2.79-4.31,4.19-12.34,11.68-25.58,22.09-41.37,28.82-3.61,1.54-7.13,3.17-11.34,2.69a7.24,7.24,0,0,1-6.56-8.44,26.25,26.25,0,0,1,4.41-10.23c5.25-7.44,9.12-15.64,12.84-23.91,6.09-13.5,10.37-27.61,14.21-41.86,2.85-10.61,4.68-21.44,6.58-32.24,1.69-9.57,6-16.77,15.78-19.82.14,0,.19-.35.29-.53l9.11-1.11c6.06,1,12,2.11,17.36,5.51,6.57,4.17,12.34,8.87,15.45,16.27.52,1.24-.16,2.89,1.35,3.74Z" transform="translate(66.36 81.79)"/><path class="e3b04446-37b9-4bec-8c5a-f106ccc499be" d="M1100.51,730.45c-.74-4.84-4.22-7.54-6.49-10.84-5.66-8.23-10.11-16.93-12.29-26.72-1-4.53,5.87-9.67,11.29-8.5,3.46.75,5.61,2.56,5.92,6.35.79,9.83,4.57,18.81,9.5,27,5.93,9.89,14.86,16.85,25.47,21.54a83.61,83.61,0,0,0,18.8,6c6.21,1.13,8.27,4.81,6.13,10.87-.88,2.51-3,4.13-4.73,6.08-2.24,2.57-4.49.91-6.74.43-10.17-2.14-18.74-7.36-26.73-13.76a52.6,52.6,0,0,1-6.15-5.29c-.86-.95-2.12-1.75-3.17-1s-.13,2.1.22,3.06c3,8.32,4.63,16.75,2.18,25.53a34.68,34.68,0,0,1-13.63,19.06,74.07,74.07,0,0,1-7.92,5.27c-3.77,2.07-4.3,2-6.15-1.66-5.73-11.33-3.11-21.72,3-32.06,2.76-4.64,6.63-8.46,9-13.27.43-.85,1.38-2.23.18-3s-2.43-.38-3.72.54c-7.26,5.18-14.69,10.16-23.14,13.17-11.68,4.16-23.41,5.1-35.12-.14-1.91-.85-1.08-1.77-.68-2.82,1.22-3.25,3.44-5.88,5.45-8.62,6.9-9.35,15.68-15.86,27.2-18.72,9.52-2.36,18.79-1.2,28.13.57C1097.6,729.73,1098.77,730.05,1100.51,730.45Z" transform="translate(66.36 81.79)"/><path class="e3b04446-37b9-4bec-8c5a-f106ccc499be" d="M31.75,730.45c-.75-4.84-4.22-7.54-6.49-10.84C19.6,711.38,15.15,702.68,13,692.89c-1-4.53,5.86-9.67,11.29-8.5,3.46.75,5.61,2.56,5.92,6.35.79,9.83,4.57,18.81,9.5,27,5.93,9.89,14.86,16.85,25.47,21.54a83.61,83.61,0,0,0,18.8,6c6.21,1.13,8.27,4.81,6.13,10.87-.89,2.51-3,4.13-4.73,6.08-2.24,2.57-4.49.91-6.74.43-10.17-2.14-18.74-7.36-26.74-13.76a52.51,52.51,0,0,1-6.14-5.29c-.86-.95-2.12-1.75-3.17-1s-.13,2.1.22,3.06c3,8.32,4.63,16.75,2.18,25.53a34.68,34.68,0,0,1-13.63,19.06,74.07,74.07,0,0,1-7.92,5.27c-3.77,2.07-4.3,2-6.15-1.66-5.73-11.33-3.11-21.72,3-32.06,2.77-4.64,6.63-8.46,9.05-13.27.43-.85,1.39-2.23.19-3s-2.43-.38-3.72.54c-7.26,5.18-14.69,10.16-23.14,13.17-11.68,4.16-23.42,5.1-35.12-.14-1.91-.85-1.08-1.77-.68-2.82,1.22-3.25,3.43-5.88,5.45-8.62,6.9-9.35,15.68-15.86,27.2-18.72,9.52-2.36,18.79-1.2,28.13.57C28.84,729.73,30,730.05,31.75,730.45Z" transform="translate(66.36 81.79)"/><path class="e3b04446-37b9-4bec-8c5a-f106ccc499be" d="M856.42,274.29c-10,10.47-22.2,12.31-35,10.21C811.84,282.94,803.16,279,797,271c-6.7-8.65-8.54-23,.81-31.16a17.31,17.31,0,0,1,9.31-4.57c1-.13,1.9-.7,2.57.53a2.16,2.16,0,0,1-.45,2.75c-.89.93-1.75,1.87-2.57,2.85-2.41,2.85-3.32,6.14-1.24,9.33,1.85,2.84,5,3.94,8.44,4.09,6,.27,11.33-1.95,16.74-4.18s10.73-3.46,16.66-2.34a16.88,16.88,0,0,1,10.89,6.89c1.25,1.69,1.89,3,4.41,1.16,9.41-6.71,20-2.77,26.89,3.52,4.17,3.81,8.11,7.85,13.66,9.89,4.19,1.54,7.76,1.12,11.08-1.7,3.07-2.6,3.2-5.78,1.82-9.36-.63-1.65-1.59-3.81.6-5,1.95-1.09,3.1,1.07,4.24,2,8.44,6.86,8.31,19.06-.23,28.22-8.17,8.76-18.23,12.17-30.2,11.73-10.26-.38-19.24-3.32-26.85-10.07C860.28,282.6,857.49,279.13,856.42,274.29Z" transform="translate(66.36 81.79)"/><path class="e3b04446-37b9-4bec-8c5a-f106ccc499be" d="M540.61,1067.05c-10,10.46-22.2,12.31-35.06,10.21-9.53-1.56-18.21-5.55-24.39-13.54-6.71-8.65-8.55-23,.8-31.16a17.33,17.33,0,0,1,9.31-4.58c1-.12,1.9-.69,2.57.53a2.14,2.14,0,0,1-.45,2.75c-.88.93-1.74,1.88-2.57,2.86-2.4,2.84-3.32,6.14-1.24,9.32,1.85,2.84,5,4,8.44,4.1,6,.26,11.33-2,16.74-4.19s10.74-3.45,16.66-2.33a16.82,16.82,0,0,1,10.89,6.89c1.26,1.69,1.9,2.95,4.41,1.16,9.41-6.71,20-2.77,26.89,3.52,4.17,3.81,8.11,7.85,13.66,9.89,4.19,1.54,7.76,1.12,11.09-1.7,3.06-2.6,3.19-5.78,1.82-9.36-.64-1.65-1.59-3.81.59-5,2-1.1,3.1,1.06,4.24,2,8.44,6.85,8.31,19.06-.23,28.22-8.17,8.75-18.23,12.17-30.19,11.73-10.27-.38-19.25-3.32-26.86-10.08C544.46,1075.35,541.67,1071.89,540.61,1067.05Z" transform="translate(66.36 81.79)"/><path class="e3b04446-37b9-4bec-8c5a-f106ccc499be" d="M540.61-1.71c-10,10.46-22.2,12.31-35.06,10.2C496,6.93,487.34,3,481.16-5c-6.71-8.66-8.55-23,.8-31.16a17.33,17.33,0,0,1,9.31-4.58c1-.13,1.9-.69,2.57.53a2.14,2.14,0,0,1-.45,2.75c-.88.93-1.74,1.88-2.57,2.86-2.4,2.84-3.32,6.14-1.24,9.32,1.85,2.84,5,3.94,8.44,4.09,6,.27,11.33-1.95,16.74-4.18s10.74-3.45,16.66-2.33a16.82,16.82,0,0,1,10.89,6.89c1.26,1.69,1.9,2.94,4.41,1.15,9.41-6.7,20-2.76,26.89,3.52,4.17,3.82,8.11,7.85,13.66,9.9C591.46-4.74,595-5.16,598.36-8c3.06-2.6,3.19-5.78,1.82-9.36-.64-1.66-1.59-3.81.59-5,2-1.09,3.1,1.07,4.24,2,8.44,6.86,8.31,19.07-.23,28.22-8.17,8.76-18.23,12.18-30.19,11.74-10.27-.38-19.25-3.32-26.86-10.08C544.46,6.59,541.67,3.13,540.61-1.71Z" transform="translate(66.36 81.79)"/><rect class="e3b04446-37b9-4bec-8c5a-f106ccc499be" x="941.89" y="581.67" width="5.85" height="24.49" transform="translate(53.41 1248.51) rotate(-63.04)"/><rect class="e3b04446-37b9-4bec-8c5a-f106ccc499be" x="897.27" y="615.29" width="60.96" height="24.49" transform="translate(14.05 1251.54) rotate(-63.03)"/><path class="e3b04446-37b9-4bec-8c5a-f106ccc499be" d="M961.5,588.46a7.06,7.06,0,0,0-3.11-9.53l-9.12-4.64a7.06,7.06,0,0,0-9.53,3.1L937.42,582l22.11,11.25Z" transform="translate(66.36 81.79)"/><path class="e3b04446-37b9-4bec-8c5a-f106ccc499be" d="M901.12,675.44a2.19,2.19,0,0,0,1.22,1.95,2.14,2.14,0,0,0,1.5.1l.79-.26,17.53-13.61-20.35-10.35Z" transform="translate(66.36 81.79)"/><rect class="e3b04446-37b9-4bec-8c5a-f106ccc499be" x="419.03" y="165.24" width="5.85" height="24.49" transform="translate(138.79 554.88) rotate(-63.04)"/><rect class="e3b04446-37b9-4bec-8c5a-f106ccc499be" x="374.42" y="198.86" width="60.96" height="24.49" transform="translate(99.47 558) rotate(-63.03)"/><path class="e3b04446-37b9-4bec-8c5a-f106ccc499be" d="M438.64,172a7.06,7.06,0,0,0-3.1-9.53l-9.12-4.64a7.06,7.06,0,0,0-9.53,3.11l-2.32,4.56,22.1,11.24Z" transform="translate(66.36 81.79)"/><path class="e3b04446-37b9-4bec-8c5a-f106ccc499be" d="M378.27,259a2.1,2.1,0,0,0,2.71,2l.8-.26,17.52-13.61L379,236.84Z" transform="translate(66.36 81.79)"/><path class="e3b04446-37b9-4bec-8c5a-f106ccc499be" d="M677,710.15a2.65,2.65,0,0,0,1-3.63,2.7,2.7,0,1,1,4.66-2.72,2.67,2.67,0,0,0,3.64,1l.35-.29a2.67,2.67,0,0,0,.6-3.38,8,8,0,0,0-13.86,8.08A2.66,2.66,0,0,0,677,710.15Z" transform="translate(66.36 81.79)"/><path class="e3b04446-37b9-4bec-8c5a-f106ccc499be" d="M695.12,687.37a8,8,0,0,0-2.92,10.93,2.66,2.66,0,0,0,4.65-2.59s0-.05,0-.08a2.7,2.7,0,1,1,4.67-2.71,2.65,2.65,0,0,0,3.63,1,2.39,2.39,0,0,0,.35-.28,2.67,2.67,0,0,0,.61-3.38A8,8,0,0,0,695.12,687.37Z" transform="translate(66.36 81.79)"/><path class="e3b04446-37b9-4bec-8c5a-f106ccc499be" d="M694.92,708.74a16.66,16.66,0,0,0-8.21,15.69A2.66,2.66,0,1,0,692,724a11.23,11.23,0,0,1,17.56-10.19,2.66,2.66,0,0,0,3-4.39h0A16.65,16.65,0,0,0,694.92,708.74Z" transform="translate(66.36 81.79)"/><path class="e3b04446-37b9-4bec-8c5a-f106ccc499be" d="M703.48,639a8,8,0,0,0-3.89,14.27,2.66,2.66,0,1,0,3.27-4.2,2.67,2.67,0,1,1,3.27-4.23,2.67,2.67,0,1,0,3.26-4.22A8,8,0,0,0,703.48,639Z" transform="translate(66.36 81.79)"/><path class="e3b04446-37b9-4bec-8c5a-f106ccc499be" d="M704.11,616.05a2.67,2.67,0,0,0-2.87-.2,83.07,83.07,0,0,0-41,52.89,2.66,2.66,0,0,0,.88,2.74l2.25,1.73c2.12,1.73,4.29,3.52,6.61,5.27a82.7,82.7,0,0,0-20,19.34,2.66,2.66,0,0,0-.16,2.89l1.31,2.4c7.49,13.69,16.82,30.71,36.67,37.35a29.47,29.47,0,0,0,24.07-2.41,30.07,30.07,0,0,0,4-2.75A29.57,29.57,0,0,0,726,718.4a50.67,50.67,0,0,0-2.4-28,29.18,29.18,0,0,0,14.86-31.35c-3.88-20.57-19.51-32.09-32-41.34Zm16.61,101.29a24,24,0,0,1-28.14,18.86,24.6,24.6,0,0,1-3.06-.81c-17.88-5.95-26.66-22-33.69-34.83l-.53-.95a77.76,77.76,0,0,1,51.42-29.74l.56.92C715,683.3,724.47,698.86,720.72,717.34Zm12.44-57.28a24,24,0,0,1-11.67,25.43,124,124,0,0,0-6.89-12.92c.33-.27.69-.5,1-.77a16.59,16.59,0,0,0,5.47-17.27A2.66,2.66,0,0,0,716,656a11.21,11.21,0,0,1-4.09,12l-1.43-2.34a2.66,2.66,0,0,0-2.64-1.27,82.32,82.32,0,0,0-17.26,3.82,2.59,2.59,0,0,0-.94-1.44,2.68,2.68,0,0,1,3.28-4.23h0a2.66,2.66,0,1,0,3.26-4.21h0a8,8,0,0,0-10.72,11.8,83.07,83.07,0,0,0-10.69,5.31c-2.83-2.12-5.48-4.26-8-6.37l-.84-.68a77.77,77.77,0,0,1,36.45-47l.88.65c11.79,8.7,26.47,19.53,30,38.05Z" transform="translate(66.36 81.79)"/><path class="e3b04446-37b9-4bec-8c5a-f106ccc499be" d="M111.4,165.15a2.67,2.67,0,0,0,3.67-.86,2.7,2.7,0,0,1,4.59,2.84,2.66,2.66,0,0,0,.86,3.67,3,3,0,0,0,.41.17,2.66,2.66,0,0,0,3.26-1.06,8,8,0,0,0-13.65-8.42A2.67,2.67,0,0,0,111.4,165.15Z" transform="translate(66.36 81.79)"/><path class="e3b04446-37b9-4bec-8c5a-f106ccc499be" d="M140,170.39A8,8,0,0,0,129,173a2.66,2.66,0,0,0,4.48,2.88.43.43,0,0,0,0-.07,2.7,2.7,0,0,1,4.59,2.84,2.67,2.67,0,0,0,.86,3.67,3,3,0,0,0,.41.17,2.67,2.67,0,0,0,3.27-1.06A8,8,0,0,0,140,170.39Z" transform="translate(66.36 81.79)"/><path class="e3b04446-37b9-4bec-8c5a-f106ccc499be" d="M121.08,180.28a16.65,16.65,0,0,0-17.71.14,2.67,2.67,0,0,0,2.88,4.49,11.22,11.22,0,0,1,17.26,10.68,2.66,2.66,0,1,0,5.29.6h0A16.64,16.64,0,0,0,121.08,180.28Z" transform="translate(66.36 81.79)"/><path class="e3b04446-37b9-4bec-8c5a-f106ccc499be" d="M186.67,155a8,8,0,0,0-14.41,3.29,2.66,2.66,0,1,0,5.24.9,2.68,2.68,0,0,1,5.28.9,2.66,2.66,0,0,0,5.25.89A7.9,7.9,0,0,0,186.67,155Z" transform="translate(66.36 81.79)"/><path class="e3b04446-37b9-4bec-8c5a-f106ccc499be" d="M207.17,144.73a2.64,2.64,0,0,0-1.17-2.62,83,83,0,0,0-65.94-11.22,2.65,2.65,0,0,0-2,2.07l-.47,2.79c-.53,2.7-1.08,5.45-1.54,8.33a82.56,82.56,0,0,0-26.49-8.58,2.69,2.69,0,0,0-2.63,1.23l-1.5,2.29c-8.54,13-19.17,29.29-15.67,49.93a29.43,29.43,0,0,0,13.46,20.1,29.92,29.92,0,0,0,4.29,2.2,29.57,29.57,0,0,0,19.66.95,50.78,50.78,0,0,0,23.55-15.29,29.18,29.18,0,0,0,34.65-1.65c16.32-13.12,19.12-32.32,21.37-47.75Zm-81.52,62.35a24,24,0,0,1-29.9-15.93,26.67,26.67,0,0,1-.72-3.09c-3.17-18.57,6.82-33.86,14.86-46.12l.59-.91a77.76,77.76,0,0,1,50.45,31.35l-.55.93C153,186,143.71,201.69,125.65,207.08Zm56.39-16a24,24,0,0,1-27.93,1.69,122.79,122.79,0,0,0,8.14-12.17c.4.17.77.38,1.17.54a16.54,16.54,0,0,0,17.8-3.31,2.66,2.66,0,0,0-3.69-3.82,11.17,11.17,0,0,1-12.51,2l1.39-2.35a2.67,2.67,0,0,0-.12-2.93,82.29,82.29,0,0,0-11.49-13.43,2.69,2.69,0,0,0,.82-1.5,2.67,2.67,0,1,1,5.27.89h0a2.66,2.66,0,1,0,5.25.9h0a8,8,0,0,0-15.46-3.9,83.13,83.13,0,0,0-9.71-6.94c.53-3.48,1.18-6.83,1.83-10.08l.21-1.06a77.71,77.71,0,0,1,58.63,10l-.15,1.09c-2.13,14.5-4.77,32.55-19.45,44.37Z" transform="translate(66.36 81.79)"/><g id="ad07af27-0d31-4416-b7be-0165b72c505e" data-name="FsgmBF"><path class="e3b04446-37b9-4bec-8c5a-f106ccc499be" d="M533.75,464.67a3.08,3.08,0,0,1,1.48,3.42c-1.46,8.55,0,11.42,7.49,15.56l2.45,1.32c0,.18,0,.41-.09.42-4.65,1.16-8.2,4-11.29,7.5-6,6.74-13.34,8.89-22.12,7.16-6.39-1.27-7.31-1.07-13.91.68.62-1.28,1.14-2.32,1.64-3.37,3.46-7.18,2.78-11-3.09-16.43-1.19-1.1-1.82-2.15-1.08-3.72Z" transform="translate(66.36 81.79)"/><path class="e3b04446-37b9-4bec-8c5a-f106ccc499be" d="M555.78,503.36c-6.11-.57-10.67,2.18-14.72,6.13-1.43,1.4-2.89,2.78-4.33,4.18A17.34,17.34,0,0,1,522,518.59c-3.06-.36-6.11-.82-9.17-1.1a15.8,15.8,0,0,0-11.37,3c-.91.69-1.39.91-1.91-.45a57.76,57.76,0,0,1-3-11c-.33-1.94.36-3,2-4a13.62,13.62,0,0,1,8.7-1.7c2.77.28,5.53.74,8.31,1a22.88,22.88,0,0,0,18-5.91c2-1.81,4-3.73,6-5.57a15.15,15.15,0,0,1,5.07-3.18c4.36-1.54,6-.84,7.95,3.29A35.77,35.77,0,0,1,555.78,503.36Z" transform="translate(66.36 81.79)"/><path class="e3b04446-37b9-4bec-8c5a-f106ccc499be" d="M555.26,522.38a18.65,18.65,0,0,0-7.44,4.51c-1.89,1.75-3.71,3.58-5.59,5.34a16.82,16.82,0,0,1-13.62,4.6c-2.64-.24-5.26-.66-7.89-1a18,18,0,0,0-9.91,1.08,1.46,1.46,0,0,1-2.1-.66c-2.13-3.15-4.11-6.38-6-9.67a1.66,1.66,0,0,1,.54-2.52c3.22-2.54,6.86-3,10.77-2.43a48.43,48.43,0,0,0,11.33.88c6.27-.5,11.49-3.26,16-7.56,2.42-2.31,4.56-5,7.69-6.46a11.94,11.94,0,0,1,1.77-.76c4.79-1.43,5.93-.69,6.37,4.2.2,2.21.24,4.43.4,6.65C557.72,520.63,557.82,522.59,555.26,522.38Z" transform="translate(66.36 81.79)"/><path class="e3b04446-37b9-4bec-8c5a-f106ccc499be" d="M541.19,552.88c-4,1.29-7.92,2.55-11.86,3.88a2.72,2.72,0,0,1-3.11-.62A132.24,132.24,0,0,1,513.07,542c-1.15-1.44-.74-1.85.81-2.17a20.25,20.25,0,0,1,7.68.23c6.25,1.05,12.4,1.21,18.3-1.67a35.5,35.5,0,0,0,9.63-7.45,19.86,19.86,0,0,1,6.28-4.78c1.34-.57,1.75-.3,1.7,1.21a120.43,120.43,0,0,1-2.2,19.4,2.58,2.58,0,0,1-2,2.2C549.23,550.23,545.21,551.57,541.19,552.88Z" transform="translate(66.36 81.79)"/></g><g id="ba011d9d-f069-4f63-9cd7-9f30ccc8040a" data-name="FsgmBF"><path class="e3b04446-37b9-4bec-8c5a-f106ccc499be" d="M329.31,679.09a3.07,3.07,0,0,1-1.08,3.57c-6.64,5.57-7.41,8.69-4.33,16.72.33.86.67,1.73,1,2.59-.14.11-.29.28-.34.26-4.3-2.13-8.87-2.23-13.46-1.58-8.94,1.27-15.93-1.84-21.5-8.83-4.07-5.1-4.89-5.54-11.06-8.47l3.43-1.51c7.27-3.24,9.22-6.6,8.26-14.53-.2-1.62,0-2.83,1.58-3.54Z" transform="translate(66.36 81.79)"/><path class="e3b04446-37b9-4bec-8c5a-f106ccc499be" d="M321.12,722.85c-4.3-4.38-9.55-5.24-15.19-4.83-2,.14-4,.25-6,.39a17.34,17.34,0,0,1-14.44-5.79c-2.11-2.24-4.13-4.57-6.29-6.77a15.79,15.79,0,0,0-10.63-5c-1.14-.07-1.65-.21-1.16-1.59a57.88,57.88,0,0,1,4.79-10.32c1-1.69,2.23-2.06,4.08-1.77a13.59,13.59,0,0,1,7.74,4.32c1.94,2,3.75,4.15,5.7,6.15a22.89,22.89,0,0,0,17.59,7.14c2.72-.07,5.44-.28,8.16-.38a15.09,15.09,0,0,1,5.92.84c4.33,1.65,5.1,3.21,3.94,7.65A35.25,35.25,0,0,1,321.12,722.85Z" transform="translate(66.36 81.79)"/><path class="e3b04446-37b9-4bec-8c5a-f106ccc499be" d="M308.43,737a18.6,18.6,0,0,0-8.59-1.36c-2.58.11-5.15.33-7.72.46a16.86,16.86,0,0,1-13.37-5.3c-1.85-1.89-3.58-3.9-5.36-5.86a18.1,18.1,0,0,0-8.27-5.58c-1.05-.31-1.28-.86-1.17-1.86.41-3.78,1-7.53,1.66-11.27.22-1.23.8-1.62,2-1.57,4.1.15,7.2,2.12,9.79,5.11a48.86,48.86,0,0,0,8.07,8,25.83,25.83,0,0,0,17.09,4.57c3.35-.2,6.71-.87,10,0a13.19,13.19,0,0,1,1.85.57c4.58,2,5,3.3,2.14,7.32-1.27,1.82-2.68,3.54-4,5.33S310.25,738.84,308.43,737Z" transform="translate(66.36 81.79)"/><path class="e3b04446-37b9-4bec-8c5a-f106ccc499be" d="M278,751.21c-3.85-1.57-7.69-3.17-11.56-4.7a2.72,2.72,0,0,1-2-2.48,133.85,133.85,0,0,1-.9-19.3c.05-1.84.63-1.89,2-1.13a20.48,20.48,0,0,1,5.71,5.14c4.09,4.84,8.68,8.94,15,10.56a35.32,35.32,0,0,0,12.17.53,19.94,19.94,0,0,1,7.88.41c1.38.44,1.53.91.51,2a120,120,0,0,1-14.22,13.38,2.58,2.58,0,0,1-2.95.38C285.83,754.38,281.9,752.81,278,751.21Z" transform="translate(66.36 81.79)"/></g><path class="e3b04446-37b9-4bec-8c5a-f106ccc499be" d="M449.47,414.93l6.32,6a2.57,2.57,0,0,0,4-.69l4.71-8.73a2.64,2.64,0,0,0-.46-3.1l-8.62-9a18.19,18.19,0,0,0-10.11-5.17l-4.94-.69-9.53-5.17v-1.27a7.36,7.36,0,0,0,4.59-9.88,7.68,7.68,0,0,0-4.25-4,7.25,7.25,0,0,0-7.24,1.5,7.7,7.7,0,0,0-2.41,5.74v.34A1.15,1.15,0,0,0,422.7,382h1.95a1.15,1.15,0,0,0,1.15-1.15v-.57a3.22,3.22,0,0,1,1.15-2.41,3,3,0,0,1,2.64-.58,2.84,2.84,0,0,1,2.19,2.19,3,3,0,0,1-2.3,3.67,3.67,3.67,0,0,0-2.87,3.45v1.84L417,393.56l-5.05.69a17.47,17.47,0,0,0-10.11,5.17l-8.73,9.07a2.8,2.8,0,0,0-.46,3.11l4.71,8.73a2.68,2.68,0,0,0,4.13.69l6.32-6L412.13,433a10,10,0,0,1-.46,6.32l-14.25,36.31a4.68,4.68,0,0,0,4.37,6.43h53.88a4.68,4.68,0,0,0,4.37-6.43l-14.48-36.42a10.75,10.75,0,0,1-.46-6.32Zm-20.8-22.87,6.44,3.45-4.25,8.5a2.42,2.42,0,0,1-4.37,0l-4.25-8.5Z" transform="translate(66.36 81.79)"/><g id="a7d13fa1-02ce-4c33-8566-6cc7984b4926" data-name="xjPlSa"><path class="e3b04446-37b9-4bec-8c5a-f106ccc499be" d="M1042.53,573.4a5.33,5.33,0,0,1,0-2c2-5.25,4.1-10.61,9.14-13.53,6.24-3.61,11.63-.57,16.49,3.45,8.11,6.71,16.14,13.52,24.21,20.28,1.72,1.44,3.51,2.81,5.17,4.32,4,3.59,4.9,7.59,2.86,11.69-1.73,3.48-5.44,5.06-10.58,3.53a238.35,238.35,0,0,1-29-11.13,59.29,59.29,0,0,1-12.1-6.75A16.08,16.08,0,0,1,1042.53,573.4Z" transform="translate(66.36 81.79)"/><path class="e3b04446-37b9-4bec-8c5a-f106ccc499be" d="M1034.44,529.15c-1.19,3.3-3.9,5.91-3.26,8.93.74,3.55,5,2.83,7.53,4.42a16,16,0,0,1,7,9.55c.72,2.53-8.13,17-10.7,17.52-6.36,1.34-13.92-1.9-17.55-7.52C1008.17,547.55,1016.37,531.21,1034.44,529.15Z" transform="translate(66.36 81.79)"/></g><g id="ade83dc3-6432-4190-9478-48a5a734844f" data-name="xjPlSa"><path class="e3b04446-37b9-4bec-8c5a-f106ccc499be" d="M-26.23,573.4a5.33,5.33,0,0,1,0-2c2-5.25,4.09-10.61,9.14-13.53,6.24-3.61,11.63-.57,16.49,3.45C7.47,568,15.5,574.85,23.57,581.61c1.72,1.44,3.51,2.81,5.17,4.32,3.95,3.59,4.89,7.59,2.86,11.69-1.73,3.48-5.45,5.06-10.58,3.53A237.72,237.72,0,0,1-8,590a59.29,59.29,0,0,1-12.1-6.75A16,16,0,0,1-26.23,573.4Z" transform="translate(66.36 81.79)"/><path class="e3b04446-37b9-4bec-8c5a-f106ccc499be" d="M-34.32,529.15c-1.19,3.3-3.9,5.91-3.27,8.93.75,3.55,5,2.83,7.54,4.42A16,16,0,0,1-23,552.05c.72,2.53-8.13,17-10.7,17.52-6.36,1.34-13.92-1.9-17.55-7.52C-60.59,547.55-52.39,531.21-34.32,529.15Z" transform="translate(66.36 81.79)"/></g><path class="e3b04446-37b9-4bec-8c5a-f106ccc499be" d="M5.49,82.5C1.25,80-3,81.06-7,80.76-17,80-26.56,78-35.55,73.57c-4.16-2-3.85-10.63.46-14.12,2.75-2.22,5.51-2.77,8.66-.63,8.15,5.55,17.51,8.23,27,9.55C12,70,23,67.36,33.33,62A83.47,83.47,0,0,0,49.8,51.16c4.78-4.13,8.94-3.43,12.32,2,1.4,2.27,1.32,5,1.77,7.5.59,3.35-2.11,4.07-3.89,5.52-8,6.58-17.48,10-27.49,12.2a52.72,52.72,0,0,1-8,1.47c-1.28.07-2.69.55-2.79,1.82s1.56,1.42,2.52,1.75c8.37,2.87,16,6.9,21.26,14.31a34.62,34.62,0,0,1,6.3,22.57,73.57,73.57,0,0,1-.86,9.47c-.75,4.24-1.14,4.6-5.15,3.75C33.4,130.92,27,122.37,22.75,111.1c-1.89-5.07-2.44-10.48-4.67-15.38-.39-.87-.87-2.47-2.24-2S14,95.34,13.93,96.92c-.52,8.9-1.3,17.81-4.26,26.28C5.6,134.91-1,144.64-12.45,150.47c-1.86.95-2.06-.27-2.63-1.24-1.76-3-2.43-6.36-3.29-9.65-3-11.24-2.53-22.16,2.47-32.92C-11.77,97.76-5,91.27,2.18,85.1,3.1,84.31,4.08,83.6,5.49,82.5Z" transform="translate(66.36 81.79)"/><path class="e3b04446-37b9-4bec-8c5a-f106ccc499be" d="M1074.25,82.5c-4.24-2.46-8.52-1.44-12.52-1.74-10-.76-19.53-2.75-28.52-7.19-4.16-2-3.85-10.63.46-14.12,2.75-2.22,5.51-2.77,8.66-.63,8.15,5.55,17.51,8.23,27,9.55,11.42,1.58,22.45-1,32.75-6.33a83.54,83.54,0,0,0,16.48-10.88c4.78-4.13,8.93-3.43,12.31,2,1.4,2.27,1.32,5,1.77,7.5.6,3.35-2.11,4.07-3.89,5.52-8,6.58-17.48,10-27.48,12.2a52.85,52.85,0,0,1-8,1.47c-1.28.07-2.69.55-2.79,1.82s1.56,1.42,2.53,1.75c8.37,2.87,16,6.9,21.25,14.31a34.62,34.62,0,0,1,6.3,22.57,73.57,73.57,0,0,1-.86,9.47c-.75,4.24-1.14,4.6-5.15,3.75-12.42-2.64-18.86-11.19-23.07-22.46-1.89-5.07-2.43-10.48-4.66-15.38-.4-.87-.88-2.47-2.25-2s-1.82,1.66-1.91,3.24c-.52,8.9-1.3,17.81-4.25,26.28-4.08,11.71-10.71,21.44-22.13,27.27-1.86.95-2.06-.27-2.63-1.24-1.76-3-2.42-6.36-3.29-9.65-3-11.24-2.53-22.16,2.47-32.92,4.14-8.9,10.85-15.39,18.08-21.56C1071.86,84.31,1072.84,83.6,1074.25,82.5Z" transform="translate(66.36 81.79)"/></g></g></g></svg>