<svg xmlns="http://www.w3.org/2000/svg" viewBox="0 0 147.33 264.31"><defs><style>.a103f354-aac3-493e-946a-e304c2acdb69{fill:#fff;}</style></defs><g id="f40b1dc6-3bb9-494a-afc7-0f6730db9831" data-name="Layer 2"><g id="a2c3d18e-181d-4632-9449-45f13befcbd9" data-name="Layer 1"><path class="a103f354-aac3-493e-946a-e304c2acdb69" d="M109.67,249.57h-1.32v3.71h-.9v-3.71h-1.31v-.8h3.53Zm6,3.71h-.89v-3.59h0l-1.27,3.59h-.86l-1.22-3.59h0v3.59h-.89v-4.51H112l1,2.94h0l1.06-2.94h1.53ZM47.23,0C52,1.44,56.9,2.32,61.53,4.26a104.88,104.88,0,0,1,24,14.55,110.91,110.91,0,0,1,14.6,13.29c1.82,2,3.29,2.57,5.76,1.14a12.53,12.53,0,0,1,10.16-.88c5.07,1.52,7.2,6.28,3.19,11.23-1.45,1.79-4.81,2.54-4.57,4.69.2,1.92,2.73,3.54,4.11,5.4,11.39,15.39,21.24,31.62,26.63,50.22,1.23,4.24,2.58,8.41,1.47,13s-5.65,7.7-10.34,6.19a29.37,29.37,0,0,1-10.85-6.32c-7.61-6.89-16.27-12.33-25-17.62-14.29-8.65-29.5-15.36-44.94-21.59C44.3,73,32.42,69.46,20.59,65.86c-10.48-3.19-17.94-9-20-20.36,0-.16-.37-.26-.56-.39V34.76c1.93-6.64,4-13.14,8.53-18.68C14.08,9.29,20.13,3.47,28.83,1c1.46-.42,3.22.57,4.38-1ZM60.15,199c-3.94-2.82-8.24-2.22-12.14-2.89-9.71-1.68-18.92-4.54-27.34-9.74-3.9-2.41-2.79-10.81,1.78-13.83,2.91-1.93,5.67-2.21,8.56.19,7.49,6.22,16.44,9.73,25.65,11.92,11.07,2.63,22.15,1.12,32.78-3.14a82.25,82.25,0,0,0,17.2-9.14c5.09-3.6,9.11-2.53,11.91,3.17,1.17,2.35.83,5,1,7.53.27,3.35-2.46,3.8-4.34,5.06-8.53,5.71-18.12,8.16-28.16,9.4a50.75,50.75,0,0,1-8,.69c-1.27,0-2.7.29-2.92,1.53s1.4,1.54,2.32,2c8,3.61,15,8.28,19.54,16.06a34.2,34.2,0,0,1,4.07,22.76,73,73,0,0,1-1.74,9.24c-1.13,4.08-1.55,4.41-5.41,3.19-12-3.76-17.49-12.77-20.56-24.24C73,223.54,73,218.17,71.28,213.15c-.3-.9-.62-2.52-2-2.22s-1.94,1.45-2.18,3c-1.35,8.7-3,17.38-6.65,25.43-5.11,11.11-12.54,20.05-24.31,24.71-1.92.76-2-.46-2.47-1.47-1.45-3.09-1.78-6.48-2.32-9.79-1.85-11.32-.4-22,5.52-32.12,4.9-8.35,12.11-14.1,19.8-19.48C57.63,200.52,58.66,199.92,60.15,199Zm8.3-55.81c-6.91,10.17-16.83,13.43-27.88,13.49-8.19,0-16-2.06-22.31-7.87-6.83-6.29-10.4-18-3.73-26.17a14.7,14.7,0,0,1,7.13-5.15c.84-.25,1.5-.85,2.23.08a1.83,1.83,0,0,1,0,2.37c-.6.9-1.19,1.81-1.74,2.75-1.61,2.71-1.91,5.6.28,8,1.95,2.11,4.77,2.58,7.63,2.23,5-.62,9.2-3.23,13.41-5.86s8.49-4.41,13.61-4.31a14.28,14.28,0,0,1,10.08,4.22c1.28,1.24,2,2.2,3.85.35,6.92-6.94,16.36-5.15,23-.86,4,2.6,7.88,5.42,12.81,6.34,3.73.7,6.66-.16,9-3,2.19-2.61,1.85-5.29.2-8.09-.77-1.29-1.87-3-.22-4.29,1.48-1.19,2.75.45,3.83,1.06,8,4.54,9.64,14.77,3.79,23.64-5.59,8.47-13.52,12.75-23.59,14.07-8.64,1.14-16.56-.05-23.88-4.62A17.61,17.61,0,0,1,68.45,143.16Z"/></g></g></svg>