<svg xmlns="http://www.w3.org/2000/svg" viewBox="0 0 152.62 152.62"><defs><style>.aee9859a-8664-41f5-b068-5707de7a73e1{fill:#f26a21;}</style></defs><g id="a809f9db-312f-42fc-87aa-901a76e94d74" data-name="Layer 2"><g id="fda9fad7-9bfe-4bb6-b871-01db0bd0840d" data-name="Layer 1"><path class="aee9859a-8664-41f5-b068-5707de7a73e1" d="M152.62,145.69v-6.94a7,7,0,0,0-6.93-6.94H126.14l-16-58.55-78.4,39.2-5.28,19.35H6.94A7,7,0,0,0,0,138.75v6.94a7,7,0,0,0,6.94,6.93H145.69A7,7,0,0,0,152.62,145.69Z"/><path class="aee9859a-8664-41f5-b068-5707de7a73e1" d="M92,6.69A9.64,9.64,0,0,0,83.25,0H69.37a9.63,9.63,0,0,0-8.76,6.69L51.48,40.17,95.19,18.31Z"/><polygon class="aee9859a-8664-41f5-b068-5707de7a73e1" points="100.18 36.63 44.91 64.26 38.34 88.36 105.17 54.95 100.18 36.63"/></g></g></svg>