<svg xmlns="http://www.w3.org/2000/svg" xmlns:xlink="http://www.w3.org/1999/xlink" viewBox="0 0 314.58 566.97"><defs><style>.fa1a95d9-ad4d-4cff-89b9-05b9965cf91e{fill:#c44d58;}</style><symbol id="baa43b20-c392-4dad-b5a1-cb2d634326b4" data-name="Salon Icon red" viewBox="0 0 314.58 566.97"><path class="fa1a95d9-ad4d-4cff-89b9-05b9965cf91e" d="M234,535.43h-2.82v7.94h-1.91v-7.94h-2.82v-1.71H234Zm12.79,7.94h-1.9v-7.68h-.06l-2.7,7.68h-1.85l-2.61-7.68h0v7.68H235.7v-9.65H239l2.17,6.3h.06l2.27-6.3h3.27ZM99,1.24a23.44,23.44,0,0,1,2.64.44c10.59,2.45,19.79,4.82,29.3,8.81,18.71,7.83,35.52,18.68,51.44,31.13,11.14,8.72,21.83,17.92,31.25,28.45,3.88,4.34,7,5.5,12.33,2.45,6.75-3.89,14.16-4.16,21.74-1.89,10.85,3.26,15.4,13.44,6.81,24-3.1,3.82-10.28,5.43-9.78,10,.44,4.11,5.86,7.58,8.8,11.55,24.38,32.94,45.46,67.67,57,107.46,2.64,9.08,5.51,18,3.14,27.94s-12.09,16.47-22.13,13.24a62.68,62.68,0,0,1-23.21-13.53c-16.29-14.73-34.81-26.38-53.53-37.71-30.56-18.5-63.13-32.87-96.15-46.2-24.57-9.92-50-17.44-75.3-25.14C21,135.49,3.68,121.63.5,98.75c0-.13-.24-3.53-.42-7.79A83.59,83.59,0,0,1,6,55.67,77.11,77.11,0,0,1,17.56,35.78C29.44,21.27,43,10.48,61,3.52,74.4-1.65,87.94.07,99,1.24Zm29,425.91c-8.43-6-17.63-4.75-26-6.18-20.8-3.59-40.51-9.71-58.52-20.85-8.34-5.15-6-23.12,3.81-29.59,6.23-4.13,12.13-4.73,18.33.41,16,13.31,35.16,20.83,54.87,25.51,23.69,5.62,47.4,2.39,70.14-6.72a176.35,176.35,0,0,0,36.82-19.55C238.4,362.46,247,364.77,253,377c2.49,5,1.78,10.68,2.21,16.12.58,7.17-5.25,8.13-9.28,10.83-18.25,12.21-38.78,17.46-60.25,20.1-5.69.7-11.31,1.69-17.07,1.49-2.7-.09-5.76.63-6.23,3.28s3,3.3,5,4.19c17,7.72,32.15,17.71,41.81,34.36,8.79,15.16,11.22,31.48,8.71,48.72a158.64,158.64,0,0,1-3.72,19.75c-2.43,8.75-3.33,9.44-11.59,6.84-25.58-8-37.41-27.33-44-51.87-3-11-3-22.52-6.72-33.27-.65-1.91-1.33-5.38-4.31-4.74s-4.16,3.11-4.67,6.41c-2.88,18.62-6.32,37.2-14.23,54.42-10.93,23.79-26.83,42.92-52,52.89-4.1,1.62-4.27-1-5.27-3.14-3.1-6.63-3.82-13.88-5-21-4-24.24-.85-47.12,11.82-68.74,10.48-17.87,25.92-30.18,42.36-41.7C122.64,430.48,124.85,429.18,128,427.15Zm17.75-119.42c-14.78,21.76-36,28.75-59.65,28.87-17.53.09-34.27-4.42-47.75-16.85-14.61-13.46-22.26-38.61-8-56,4.07-5,8.85-9.09,15.27-11,1.79-.54,3.19-1.82,4.76.17,1.33,1.7,1.19,3.33,0,5.06-1.3,1.93-2.56,3.89-3.74,5.89-3.44,5.81-4.08,12,.6,17.06,4.18,4.52,10.21,5.53,16.35,4.77,10.8-1.34,19.68-6.92,28.69-12.55,8.8-5.5,18.17-9.42,29.11-9.21a30.54,30.54,0,0,1,21.58,9c2.75,2.65,4.28,4.7,8.23.74,14.82-14.85,35-11,49.19-1.83,8.61,5.57,16.88,11.59,27.43,13.57,8,1.49,14.24-.34,19.33-6.39,4.7-5.58,4-11.31.43-17.31-1.63-2.76-4-6.33-.46-9.18,3.17-2.55,6.27.77,8.48,2.29C272,266,276,286.44,263.51,305.41c-12,18.14-28.94,27.3-50.48,30.13-18.49,2.42-35.45-.12-51.12-9.91C155.19,321.43,149.15,316.07,145.78,307.73Z"/></symbol></defs><g id="e4ee396b-5d1c-4291-8198-1d6a6c296632" data-name="Layer 2"><g id="b8bd6d4f-96ce-4699-b856-1030b1edd263" data-name="Layer 1"><use width="314.58" height="566.97" xlink:href="#baa43b20-c392-4dad-b5a1-cb2d634326b4"/></g></g></svg>