<svg xmlns="http://www.w3.org/2000/svg" viewBox="0 0 402.71 124.19"><defs><style>.fdcfaab3-c6f1-45b6-ad3c-ee299b24fdf6{fill:#fff;}</style></defs><g id="e46487fb-1152-40cf-adfb-cd60817bc590" data-name="Layer 2"><g id="a4ed58a7-fdcd-4303-8904-5536e0f36493" data-name="Layer 1"><path class="fdcfaab3-c6f1-45b6-ad3c-ee299b24fdf6" d="M56.68,38.38Q64,43.26,64,49.71q0,9.95-3,13.61-3.66-2.1-11.94-3.49a92.53,92.53,0,0,0-15.27-1.4q-10.45,0-10.46,4.36,0,4.18,12.91,5.76Q52.68,70.65,60,77.18t7.32,18.93q0,13.24-8.28,20.66t-24.51,7.42q-16.92,0-25.72-4.36T0,108q0-8.39,3.66-13.08a61.8,61.8,0,0,0,13.78,4.53A71.4,71.4,0,0,0,33,101.34q11.52,0,11.51-4.71T30.35,90.35Q14,88.26,7.76,81.63T1.57,62.1q0-13.44,8.37-21t24.24-7.59Q49.36,33.49,56.68,38.38Z"/><path class="fdcfaab3-c6f1-45b6-ad3c-ee299b24fdf6" d="M83.29,49.54a11.58,11.58,0,0,1,3-8,18,18,0,0,1,7.85-5,54.72,54.72,0,0,1,9.59-2.36,66.11,66.11,0,0,1,9.59-.7q16.57,0,25.21,7.94t8.63,23.11v36.8q0,4.53,2.79,4.53h4.88q1.4,1.75,1.4,7.5,0,9.07-17.09,9.07a13.13,13.13,0,0,1-7.76-2.53,14.34,14.34,0,0,1-5.15-6.36q-13.08,10.64-25.46,10.64-11.87,0-18.32-7.59T76,95.76q0-12.39,7.33-19.62t21.27-7.42L125,68.55q-1.57-12.21-13.78-12.21-15.34,0-24.94,3.49Q83.28,53,83.29,49.54Zm42,47.26V85.47l-19,2.09q-8.2,1.05-8.2,8a7.36,7.36,0,0,0,2,5.15,6.88,6.88,0,0,0,5.32,2.18Q115,102.91,125.32,96.8Z"/><path class="fdcfaab3-c6f1-45b6-ad3c-ee299b24fdf6" d="M189.65,93.14c0,3.26.66,5.58,2,7s3.34,2.09,6,2.09h11.51a21.9,21.9,0,0,1,1,7q0,5.58-5.67,9.41t-18.05,3.84q-21.28,0-21.28-23.89V3.84q4.71-4,12-3.83,12.39.52,12.39,11.16Z"/><path class="fdcfaab3-c6f1-45b6-ad3c-ee299b24fdf6" d="M226.57,44.83Q238.17,33.49,257,33.49q19.19,0,30.7,11.25t11.51,34.45q0,23-11.51,34t-30.7,11q-19,0-30.52-11.17T215,79.19Q215,56.17,226.57,44.83Zm19.27,51.71A13.79,13.79,0,0,0,257,101.86q15.35,0,15.35-22.32,0-23.21-15.35-23.2A13.49,13.49,0,0,0,245.84,62q-4.36,5.67-4.36,17.53Q241.48,91.23,245.84,96.54Z"/><path class="fdcfaab3-c6f1-45b6-ad3c-ee299b24fdf6" d="M333.29,38.55a18.75,18.75,0,0,1,7.33,9.07q12.56-14.13,27.73-14.13,10.63,0,17.18,6.72t6.54,20.84v40.29q0,4.53,3.66,4.53h5.93c.7,1.17,1,3.08,1,5.76q0,5.06-5.15,7.93t-14.73,2.88q-8.55,0-12.3-3.84t-3.75-13.08V68a8.58,8.58,0,0,0-2.27-6.2,8.33,8.33,0,0,0-6.28-2.35q-8.37,0-16.22,5.93V120q-3.83,2.44-14.47,2.44-12,0-12-12.9V62.62c0-3.6-1.62-5.41-4.88-5.41h-5.41A23,23,0,0,1,303,47.45q0-12.21,19.18-12.21A19.92,19.92,0,0,1,333.29,38.55Z"/></g></g></svg>