<svg xmlns="http://www.w3.org/2000/svg" viewBox="0 0 250.66 77.3"><defs><style>.ad371601-21b8-4591-9842-828994cc9477{fill:#fff;}</style></defs><g id="b25ba766-1c17-47f5-b98b-654a2231d6f0" data-name="Layer 2"><g id="edbecd07-bd17-4be4-9fb9-7554e1145880" data-name="Layer 1"><path class="ad371601-21b8-4591-9842-828994cc9477" d="M35.28,23.89c3,2,4.56,4.38,4.56,7.05q0,6.19-1.84,8.47a24,24,0,0,0-7.44-2.17,57.39,57.39,0,0,0-9.5-.87q-6.51,0-6.51,2.72c0,1.73,2.67,2.93,8,3.58Q32.78,44,37.34,48T41.9,59.82q0,8.25-5.15,12.86T21.49,77.3q-10.53,0-16-2.72T0,67.2C0,63.73.76,61,2.28,59.06a37.73,37.73,0,0,0,8.58,2.82,44.17,44.17,0,0,0,9.66,1.2q7.15,0,7.16-2.93t-8.79-3.91Q8.69,54.93,4.83,50.81T1,38.65Q1,30.3,6.19,25.57t15.09-4.72Q30.72,20.85,35.28,23.89Z"/><path class="ad371601-21b8-4591-9842-828994cc9477" d="M51.22,30.84a7.24,7.24,0,0,1,1.84-5A11.3,11.3,0,0,1,58,22.75a34.18,34.18,0,0,1,6-1.47,40.53,40.53,0,0,1,6-.43q10.32,0,15.69,4.94T91,40.17V63.08q0,2.82,1.74,2.82h3c.58.72.87,2.28.87,4.67q0,5.64-10.64,5.64a8.17,8.17,0,0,1-4.83-1.57,8.91,8.91,0,0,1-3.21-4Q69.79,77.3,62.07,77.3q-7.38,0-11.39-4.72t-4-13q0-7.71,4.56-12.21t13.24-4.61l12.7-.11q-1-7.61-8.57-7.6-9.56,0-15.53,2.17A18,18,0,0,1,51.22,30.84ZM77.38,60.25v-7L65.55,54.5q-5.1.66-5.1,5a4.6,4.6,0,0,0,1.24,3.21A4.32,4.32,0,0,0,65,64.05,24.18,24.18,0,0,0,77.38,60.25Z"/><path class="ad371601-21b8-4591-9842-828994cc9477" d="M116.8,58c0,2,.41,3.48,1.25,4.35a4.94,4.94,0,0,0,3.74,1.3H129a13.78,13.78,0,0,1,.65,4.34q0,3.48-3.53,5.86t-11.24,2.39q-13.25,0-13.24-14.87V2.39A10.76,10.76,0,0,1,109.09,0q7.71.33,7.71,7Z"/><path class="ad371601-21b8-4591-9842-828994cc9477" d="M139.78,27.9q7.22-7,18.94-7,11.94,0,19.11,7T185,49.29q0,14.33-7.16,21.17T158.72,77.3q-11.83,0-19-7t-7.17-21.06Q132.56,35,139.78,27.9Zm12,32.19a8.57,8.57,0,0,0,6.94,3.31q9.56,0,9.56-13.89,0-14.44-9.56-14.44a8.37,8.37,0,0,0-6.94,3.53q-2.72,3.52-2.72,10.91T151.78,60.09Z"/><path class="ad371601-21b8-4591-9842-828994cc9477" d="M207.46,24A11.69,11.69,0,0,1,212,29.64q7.83-8.79,17.27-8.79A14.25,14.25,0,0,1,240,25Q244,29.2,244,38V63.08q0,2.82,2.28,2.82H250a7.36,7.36,0,0,1,.65,3.58,5.48,5.48,0,0,1-3.2,4.94c-2.14,1.2-5.19,1.79-9.17,1.79-3.55,0-6.1-.79-7.66-2.39s-2.33-4.3-2.33-8.14V42.34a5.32,5.32,0,0,0-1.41-3.85A5.17,5.17,0,0,0,223,37a16.57,16.57,0,0,0-10.1,3.69v34c-1.59,1-4.59,1.52-9,1.52q-7.49,0-7.49-8V39q0-3.37-3-3.37H190a14.31,14.31,0,0,1-1.41-6.08q0-7.59,11.94-7.6A12.4,12.4,0,0,1,207.46,24Z"/></g></g></svg>